<?xml version="1.0" encoding="UTF-8"?><svg xmlns="http://www.w3.org/2000/svg" viewBox="0 0 500 500"><g id="a"><path d="M385.9,80.77s-64.81-55.62-146.29-36.28c-81.48,19.34-138.95,96.82-187.04,158.12-48.09,61.3-48.39,141.87-2.78,195.75,45.62,53.89,94.19,17.86,170.2,43.71,76.01,25.85,93.36,45.59,167.54,21.07,74.18-24.52,112.86-133.6,83.75-235.95-29.12-102.35-85.37-146.42-85.37-146.42Z" style="fill:#92e3a9; stroke-width:0px;"/><path d="M385.9,80.77s-64.81-55.62-146.29-36.28c-81.48,19.34-138.95,96.82-187.04,158.12-48.09,61.3-48.39,141.87-2.78,195.75,45.62,53.89,94.19,17.86,170.2,43.71,76.01,25.85,93.36,45.59,167.54,21.07,74.18-24.52,112.86-133.6,83.75-235.95-29.12-102.35-85.37-146.42-85.37-146.42Z" style="fill:#fff; opacity:.7; stroke-width:0px;"/></g><g id="b"><rect x="92.43" y="57.01" width="304.36" height="266.14" transform="translate(44.27 -46.2) rotate(11.86)" style="fill:none; stroke:#263238; stroke-linecap:round; stroke-linejoin:round; stroke-width:.99px;"/><rect x="105" y="66.94" width="279.72" height="243.93" transform="translate(44.04 -46.28) rotate(11.86)" style="fill:none; stroke:#263238; stroke-linecap:round; stroke-linejoin:round; stroke-width:1.03px;"/><circle cx="431.1" cy="302.92" r="15.12" style="fill:none; stroke:#263238; stroke-linecap:round; stroke-linejoin:round;"/><circle cx="78.88" cy="110.38" r="15.12" style="fill:none; stroke:#263238; stroke-linecap:round; stroke-linejoin:round;"/><path d="M436.92,218.79c0,2.57-2.08,4.65-4.65,4.65s-4.65-2.08-4.65-4.65,2.08-4.65,4.65-4.65,4.65,2.08,4.65,4.65Z" style="fill:none; stroke:#263238; stroke-linecap:round; stroke-linejoin:round;"/><path d="M51.56,223.06c0,2.78-2.26,5.04-5.04,5.04s-5.04-2.26-5.04-5.04,2.26-5.04,5.04-5.04,5.04,2.26,5.04,5.04Z" style="fill:none; stroke:#263238; stroke-linecap:round; stroke-linejoin:round;"/><path d="M79.47,83.49c0,2.78-2.26,5.04-5.04,5.04s-5.04-2.26-5.04-5.04,2.26-5.04,5.04-5.04,5.04,2.26,5.04,5.04Z" style="fill:none; stroke:#263238; stroke-linecap:round; stroke-linejoin:round;"/><circle cx="411.23" cy="221.68" r="9.23" style="fill:none; stroke:#263238; stroke-linecap:round; stroke-linejoin:round;"/><circle cx="313.25" cy="42.39" r="2.71" style="fill:none; stroke:#263238; stroke-linecap:round; stroke-linejoin:round;"/><line x1="65.51" y1="132.72" x2="65.51" y2="138.15" style="fill:none; stroke:#263238; stroke-linecap:round; stroke-linejoin:round;"/><line x1="65.51" y1="142.13" x2="65.51" y2="147.56" style="fill:none; stroke:#263238; stroke-linecap:round; stroke-linejoin:round;"/><line x1="58.1" y1="140.14" x2="63.52" y2="140.14" style="fill:none; stroke:#263238; stroke-linecap:round; stroke-linejoin:round;"/><line x1="67.5" y1="140.14" x2="72.93" y2="140.14" style="fill:none; stroke:#263238; stroke-linecap:round; stroke-linejoin:round;"/><line x1="446.01" y1="135.97" x2="446.01" y2="141.39" style="fill:none; stroke:#263238; stroke-linecap:round; stroke-linejoin:round;"/><line x1="446.01" y1="145.37" x2="446.01" y2="150.8" style="fill:none; stroke:#263238; stroke-linecap:round; stroke-linejoin:round;"/><line x1="438.59" y1="143.38" x2="444.02" y2="143.38" style="fill:none; stroke:#263238; stroke-linecap:round; stroke-linejoin:round;"/><line x1="448" y1="143.38" x2="453.43" y2="143.38" style="fill:none; stroke:#263238; stroke-linecap:round; stroke-linejoin:round;"/><line x1="443.01" y1="368.26" x2="443.01" y2="376.4" style="fill:none; stroke:#263238; stroke-linecap:round; stroke-linejoin:round;"/><line x1="443.01" y1="382.37" x2="443.01" y2="390.51" style="fill:none; stroke:#263238; stroke-linecap:round; stroke-linejoin:round;"/><line x1="431.88" y1="379.38" x2="440.03" y2="379.38" style="fill:none; stroke:#263238; stroke-linecap:round; stroke-linejoin:round;"/><line x1="446" y1="379.38" x2="454.14" y2="379.38" style="fill:none; stroke:#263238; stroke-linecap:round; stroke-linejoin:round;"/><line x1="408" y1="350.9" x2="408" y2="355.65" style="fill:none; stroke:#263238; stroke-linecap:round; stroke-linejoin:round;"/><line x1="408" y1="359.13" x2="408" y2="363.88" style="fill:none; stroke:#263238; stroke-linecap:round; stroke-linejoin:round;"/><line x1="401.52" y1="357.39" x2="406.27" y2="357.39" style="fill:none; stroke:#263238; stroke-linecap:round; stroke-linejoin:round;"/><line x1="409.75" y1="357.39" x2="414.49" y2="357.39" style="fill:none; stroke:#263238; stroke-linecap:round; stroke-linejoin:round;"/><line x1="111.26" y1="311.9" x2="111.26" y2="316.64" style="fill:none; stroke:#263238; stroke-linecap:round; stroke-linejoin:round;"/><line x1="111.26" y1="320.12" x2="111.26" y2="324.87" style="fill:none; stroke:#263238; stroke-linecap:round; stroke-linejoin:round;"/><line x1="104.77" y1="318.38" x2="109.52" y2="318.38" style="fill:none; stroke:#263238; stroke-linecap:round; stroke-linejoin:round;"/><line x1="113" y1="318.38" x2="117.75" y2="318.38" style="fill:none; stroke:#263238; stroke-linecap:round; stroke-linejoin:round;"/><polygon points="435.18 241.87 456.52 266.65 467.31 235.78 435.18 241.87" style="fill:none; stroke:#263238; stroke-linecap:round; stroke-linejoin:round;"/><polygon points="365.11 37.1 352.83 40.71 362.09 49.54 365.11 37.1" style="fill:none; stroke:#263238; stroke-linecap:round; stroke-linejoin:round;"/><polygon points="48.87 284.83 33.11 313.67 65.97 312.89 48.87 284.83" style="fill:none; stroke:#263238; stroke-linecap:round; stroke-linejoin:round;"/></g><g id="c"><path d="M57.76,350.55c4.04,1.62,13.78,1.12,13.78,1.12.1,0-2.28-6.32-2.48-6.7-2.27-4.41-9.25-11.6-14.73-10.69-3.95.65-6.04,4.69-5.03,8.39,1.03,3.79,5.02,6.5,8.46,7.88Z" style="fill:#92e3a9; stroke-width:0px;"/><path d="M156.41,349.79c.09.05,1.58-6.53,1.63-6.96.54-4.93-1.32-14.78-6.39-17.04-3.65-1.63-7.62.58-8.82,4.22-1.23,3.72.6,8.19,2.71,11.24,2.47,3.58,10.88,8.53,10.88,8.53Z" style="fill:#92e3a9; stroke-width:0px;"/><path d="M184.46,313.61c-5.54-.43-11.88,7.33-13.76,11.92-.16.4-2,6.89-1.89,6.89,0,0,.09,0,.12,0-1.01,1.22-2.08,2.53-3.22,4-2.08,2.72-4.41,5.81-6.71,9.34-2.31,3.52-4.73,7.42-6.9,11.75-2.18,4.34-4.26,9.01-5.77,14.11-.02.06-.03.12-.04.18-.02-1.63-.23-6.18-.28-6.52-.78-4.9-5.17-13.9-10.66-14.75-3.96-.61-7.2,2.57-7.4,6.4-.2,3.92,2.74,7.74,5.58,10.13,3.2,2.69,11.92,5.13,12.62,5.32-1.4,4.86-2.44,9.97-3.21,15.19-.44,2.99-.79,6.01-1.11,9.04-.06-1.41-.13-2.66-.16-2.84-.78-4.9-5.17-13.9-10.66-14.75-3.96-.61-7.2,2.57-7.4,6.4-.21,3.92,2.74,7.74,5.58,10.13,2.88,2.42,10.27,4.65,12.24,5.21-.11,1.17-.23,2.33-.33,3.49-.5,5.59-.98,11.18-1.61,16.64-.22,1.93-.51,3.81-.8,5.7-.06-1.25-.11-2.3-.14-2.46-.78-4.9-5.17-13.9-10.66-14.75-3.96-.61-7.2,2.57-7.4,6.4-.2,3.92,2.74,7.74,5.58,10.13,2.74,2.31,9.55,4.43,11.89,5.11-.35,1.93-.69,3.86-1.12,5.71-.32,1.26-.54,2.49-.93,3.73-.36,1.24-.72,2.47-1.07,3.69-.77,2.32-1.54,4.71-2.35,6.96-.55,1.56-1.1,3.04-1.65,4.54.24-1.91.64-5.67.64-5.99-.02-3.3-1.35-8.62-3.79-12.31,0-.49-.04-.97-.13-1.45-.72-3.77-4.36-6.48-8.2-5.34-5.32,1.59-8.45,11.11-8.56,16.07,0,.29.28,3.47.49,5.48-.3-1.16-.59-2.29-.92-3.48-.63-2.36-1.33-4.69-2.08-7.2-.4-1.2-.81-2.41-1.22-3.64-.38-1.22-.94-2.47-1.41-3.72-1.15-2.87-2.45-5.72-3.82-8.57,2.06-.56,9.36-2.65,12.24-5,2.87-2.34,5.88-6.12,5.73-10.04-.14-3.84-3.33-7.07-7.3-6.52-5.5.76-10.03,9.7-10.89,14.58-.05.31-.28,3.88-.36,5.85-.84-1.7-1.67-3.41-2.58-5.1-2.61-4.9-5.41-9.77-8.18-14.65-.85-1.49-1.68-2.99-2.51-4.49.74-.19,9.46-2.49,12.69-5.12,2.87-2.34,5.88-6.12,5.74-10.04-.14-3.84-3.33-7.07-7.3-6.52-5.5.76-10.03,9.7-10.89,14.58-.06.37-.38,5.51-.39,6.83-1.84-3.3-3.64-6.6-5.28-9.92-2.27-4.59-4.25-9.21-5.83-13.84.34-.09,9.46-2.45,12.77-5.14,2.87-2.34,5.88-6.12,5.73-10.04-.14-3.84-3.33-7.07-7.3-6.52-5.5.76-10.03,9.7-10.89,14.58-.06.32-.3,4.24-.37,6.11-.17.02-.14.02-.31.04-1.64-4.97-2.6-10-3.26-14.75-.39-2.75-.61-5.4-.77-7.98,1.74-.26,9.7-1.56,12.94-3.66,3.11-2.01,6.52-5.44,6.8-9.35.28-3.83-2.54-7.39-6.54-7.28-5.55.15-11.04,8.54-12.43,13.3-.08.26-.55,2.98-.87,4.96-.05-1.17-.13-2.37-.16-3.49-.12-4.2.04-8.05.2-11.46.11-1.94.24-3.69.39-5.33,1.57-1.15,7.86-5.88,9.74-9.17,1.83-3.22,3.28-7.83,1.73-11.43-1.52-3.53-5.66-5.39-9.16-3.45-4.86,2.7-5.86,12.66-4.9,17.53.08.42,2.14,6.85,2.22,6.79,0,0,.08-.06.1-.07-.17,1.57-.34,3.26-.48,5.11-.24,3.41-.47,7.27-.45,11.49.01,4.22.15,8.79.73,13.61.57,4.82,1.42,9.87,2.97,14.95.02.06.04.11.06.17-.91-1.35-3.6-5.03-3.83-5.29-3.36-3.65-11.99-8.74-17.03-6.42-3.64,1.67-4.58,6.11-2.64,9.42,1.99,3.38,6.56,4.94,10.24,5.37,4.15.48,12.78-2.3,13.46-2.52,1.52,4.83,3.47,9.66,5.71,14.44,1.28,2.74,2.65,5.45,4.06,8.15-.83-1.14-1.58-2.15-1.7-2.28-3.36-3.65-11.99-8.74-17.03-6.42-3.64,1.67-4.58,6.11-2.64,9.42,1.99,3.38,6.56,4.95,10.24,5.37,3.73.43,11.13-1.79,13.09-2.4.55,1.03,1.09,2.07,1.65,3.1,2.67,4.94,5.35,9.86,7.83,14.77.88,1.73,1.68,3.46,2.48,5.2-.74-1.01-1.37-1.86-1.47-1.98-3.36-3.65-11.99-8.74-17.03-6.42-3.64,1.67-4.58,6.11-2.64,9.42,1.99,3.38,6.56,4.94,10.24,5.37,3.56.41,10.41-1.58,12.73-2.3.77,1.8,1.55,3.6,2.21,5.38.43,1.22.93,2.37,1.29,3.63.38,1.23.76,2.45,1.14,3.66.64,2.36,1.31,4.78,1.88,7.1.41,1.61.76,3.14,1.13,4.69-.85-1.73-2.59-5.08-2.77-5.35-2.76-4.12-10.52-10.46-15.86-8.93-3.85,1.1-5.46,5.35-4.03,8.91,1.45,3.64,5.74,5.88,9.31,6.86,3.93,1.08,12.54-.27,13.61-.44.59,2.56,1.15,5.06,1.63,7.43.69,3.35,1.28,6.47,1.79,9.33h3.57c-.6-3.06-1.31-6.4-2.14-10.03-.59-2.61-1.28-5.38-2.01-8.22.64-.28,4.28-1.88,7.49-3.79,2.93,2.99,10.32,6.38,11.28,6.81-.92,2.47-1.84,4.86-2.74,7.1-1.17,2.93-2.31,5.64-3.38,8.14h3.76c.87-2.17,1.77-4.48,2.69-6.95.94-2.5,1.9-5.19,2.86-7.96,1.05.19,9.65,1.67,13.61.65,3.59-.92,7.9-3.1,9.41-6.71,1.48-3.54-.06-7.81-3.89-8.98-5.32-1.61-13.17,4.6-16,8.68-.17.24-1.68,3.05-2.61,4.84.39-1.13.77-2.23,1.16-3.41.77-2.31,1.48-4.65,2.24-7.15.33-1.22.66-2.46.99-3.71.36-1.23.58-2.58.88-3.88.63-3.03,1.11-6.12,1.54-9.26,2.03.67,9.27,2.95,12.97,2.58,3.69-.37,8.28-1.86,10.32-5.21,2-3.28,1.12-7.73-2.49-9.46-5.01-2.4-13.72,2.55-17.13,6.16-.21.22-2.37,3.08-3.52,4.68.24-1.88.49-3.76.67-5.68.52-5.53.88-11.14,1.26-16.73.11-1.71.25-3.42.38-5.13.72.25,9.26,3.14,13.41,2.73,3.69-.37,8.28-1.86,10.32-5.21,2-3.28,1.12-7.73-2.49-9.46-5.01-2.4-13.72,2.55-17.13,6.16-.26.27-3.36,4.39-4.09,5.48.29-3.76.61-7.51,1.07-11.19.63-5.08,1.54-10.03,2.77-14.76.33.12,9.24,3.18,13.49,2.75,3.69-.37,8.28-1.86,10.32-5.21,2-3.28,1.12-7.73-2.49-9.46-5.01-2.4-13.72,2.55-17.13,6.16-.22.24-2.59,3.37-3.68,4.89-.16-.08-.13-.06-.29-.14,1.38-5.05,3.35-9.77,5.41-14.1,1.19-2.51,2.47-4.84,3.76-7.08,1.6.74,8.95,4.04,12.81,4.09,3.71.04,8.44-.94,10.83-4.05,2.35-3.04,1.96-7.56-1.44-9.68-4.72-2.94-13.92,1.03-17.7,4.24-.21.17-2.1,2.18-3.46,3.66.6-1,1.2-2.05,1.79-3,2.22-3.57,4.47-6.7,6.49-9.45,1.16-1.56,2.24-2.94,3.26-4.23,1.95-.09,9.8-.56,13.19-2.28,3.31-1.67,7.05-4.72,7.75-8.58.68-3.78-1.74-7.62-5.73-7.93Z" style="fill:#92e3a9; stroke-width:0px;"/><path d="M407.31,388.31c-2.78,1.12-9.49.77-9.5.77-.07,0,1.57-4.35,1.71-4.62,1.56-3.04,6.37-7.99,10.15-7.36,2.72.45,4.16,3.23,3.47,5.78-.71,2.61-3.46,4.48-5.83,5.43Z" style="fill:#92e3a9; stroke-width:0px;"/><path d="M339.35,387.78c-.06.04-1.09-4.5-1.12-4.79-.37-3.4.91-10.18,4.4-11.74,2.52-1.13,5.25.4,6.08,2.91.85,2.56-.41,5.64-1.86,7.74-1.7,2.47-7.49,5.88-7.5,5.88Z" style="fill:#92e3a9; stroke-width:0px;"/><path d="M320.03,362.85c3.82-.3,8.18,5.05,9.48,8.21.11.27,1.37,4.75,1.3,4.75,0,0-.07,0-.08,0,.7.84,1.43,1.75,2.22,2.75,1.43,1.87,3.04,4,4.62,6.43,1.59,2.43,3.26,5.11,4.75,8.09,1.5,2.99,2.93,6.21,3.98,9.72.01.04.02.08.03.12.01-1.12.16-4.25.19-4.49.54-3.37,3.56-9.58,7.35-10.16,2.72-.42,4.96,1.77,5.1,4.41.14,2.7-1.89,5.33-3.84,6.98-2.2,1.85-8.21,3.53-8.69,3.67.96,3.35,1.68,6.87,2.21,10.47.3,2.06.55,4.14.77,6.23.04-.97.09-1.83.11-1.96.54-3.37,3.56-9.58,7.35-10.16,2.72-.42,4.96,1.77,5.1,4.41.14,2.7-1.89,5.33-3.84,6.98-1.98,1.67-7.08,3.2-8.43,3.59.07.8.16,1.6.23,2.41.35,3.85.67,7.7,1.11,11.46.15,1.33.35,2.63.55,3.93.04-.86.08-1.58.1-1.69.54-3.37,3.56-9.58,7.35-10.16,2.72-.42,4.96,1.77,5.1,4.41.14,2.7-1.89,5.33-3.84,6.98-1.89,1.59-6.58,3.05-8.19,3.52.24,1.33.48,2.66.77,3.93.22.87.37,1.72.64,2.57.25.85.49,1.7.74,2.54.53,1.6,1.06,3.25,1.62,4.79.38,1.08.76,2.1,1.14,3.12-.17-1.32-.44-3.91-.44-4.12.01-2.27.93-5.94,2.61-8.48,0-.34.03-.67.09-1,.5-2.6,3.01-4.46,5.65-3.68,3.67,1.09,5.82,7.65,5.89,11.07,0,.2-.19,2.39-.34,3.77.21-.8.4-1.58.63-2.4.44-1.62.92-3.23,1.43-4.96.28-.83.56-1.66.84-2.51.26-.84.65-1.7.97-2.56.79-1.98,1.69-3.94,2.63-5.9-1.42-.39-6.45-1.83-8.43-3.45-1.98-1.61-4.05-4.22-3.95-6.92.1-2.64,2.29-4.87,5.03-4.49,3.79.53,6.91,6.68,7.5,10.05.04.21.19,2.67.25,4.03.58-1.17,1.15-2.35,1.77-3.52,1.8-3.37,3.73-6.73,5.64-10.09.59-1.03,1.16-2.06,1.73-3.09-.51-.13-6.52-1.71-8.74-3.53-1.98-1.61-4.05-4.22-3.95-6.92.1-2.64,2.29-4.87,5.03-4.49,3.79.53,6.91,6.68,7.5,10.05.04.25.26,3.8.27,4.7,1.27-2.27,2.51-4.54,3.64-6.84,1.57-3.16,2.93-6.35,4.02-9.53-.24-.06-6.52-1.68-8.8-3.54-1.98-1.61-4.05-4.22-3.95-6.92.1-2.64,2.29-4.87,5.03-4.49,3.79.53,6.91,6.68,7.5,10.05.04.22.21,2.92.25,4.21.12.02.1.01.22.03,1.13-3.43,1.79-6.89,2.25-10.16.27-1.89.42-3.72.53-5.5-1.2-.18-6.68-1.08-8.92-2.52-2.14-1.39-4.49-3.75-4.69-6.44-.19-2.64,1.75-5.09,4.5-5.02,3.83.11,7.6,5.88,8.56,9.16.05.18.38,2.05.6,3.42.04-.8.09-1.63.11-2.4.08-2.89-.02-5.55-.14-7.9-.07-1.34-.17-2.54-.27-3.67-1.08-.79-5.42-4.05-6.71-6.32-1.26-2.22-2.26-5.39-1.19-7.88,1.04-2.43,3.9-3.71,6.31-2.38,3.35,1.86,4.04,8.72,3.38,12.08-.06.29-1.47,4.72-1.53,4.68,0,0-.05-.04-.07-.05.12,1.08.23,2.25.33,3.52.16,2.35.33,5.01.31,7.92-.01,2.9-.1,6.06-.5,9.37-.39,3.32-.98,6.8-2.04,10.3-.01.04-.03.08-.04.12.63-.93,2.48-3.46,2.64-3.64,2.31-2.52,8.26-6.02,11.73-4.42,2.5,1.15,3.16,4.21,1.82,6.49-1.37,2.33-4.52,3.41-7.05,3.7-2.86.33-8.8-1.58-9.27-1.74-1.04,3.33-2.39,6.65-3.93,9.95-.88,1.88-1.83,3.75-2.8,5.62.57-.78,1.09-1.48,1.17-1.57,2.31-2.52,8.26-6.02,11.73-4.42,2.51,1.15,3.16,4.21,1.82,6.49-1.37,2.33-4.52,3.41-7.05,3.7-2.57.3-7.67-1.23-9.01-1.66-.38.71-.75,1.42-1.13,2.13-1.84,3.4-3.69,6.79-5.4,10.17-.6,1.19-1.15,2.39-1.71,3.58.51-.7.94-1.28,1.02-1.36,2.31-2.52,8.26-6.02,11.73-4.42,2.5,1.15,3.16,4.21,1.82,6.49-1.37,2.33-4.52,3.41-7.05,3.7-2.46.28-7.17-1.09-8.77-1.58-.53,1.24-1.07,2.48-1.53,3.7-.29.84-.64,1.64-.89,2.5-.26.85-.53,1.69-.79,2.52-.44,1.62-.9,3.29-1.29,4.89-.28,1.11-.53,2.17-.78,3.23.59-1.19,1.79-3.5,1.91-3.68,1.9-2.84,7.25-7.2,10.93-6.15,2.65.76,3.76,3.68,2.78,6.14-1,2.51-3.95,4.05-6.41,4.73-2.71.74-8.64-.18-9.38-.3-.41,1.77-.79,3.49-1.12,5.12-.48,2.31-.88,4.46-1.23,6.43h-2.46c.42-2.1.9-4.41,1.47-6.91.41-1.8.88-3.71,1.38-5.66-.44-.19-2.95-1.29-5.16-2.61-2.02,2.06-7.11,4.4-7.77,4.69.63,1.7,1.27,3.35,1.89,4.89.81,2.02,1.59,3.88,2.33,5.61h-2.59c-.6-1.49-1.22-3.09-1.86-4.79-.65-1.72-1.31-3.58-1.97-5.49-.72.13-6.65,1.15-9.37.45-2.47-.64-5.44-2.13-6.49-4.63-1.02-2.44.04-5.38,2.68-6.18,3.66-1.11,9.08,3.17,11.02,5.98.11.17,1.16,2.1,1.8,3.34-.27-.78-.53-1.54-.8-2.35-.53-1.59-1.02-3.2-1.54-4.93-.23-.84-.45-1.69-.68-2.55-.25-.85-.4-1.77-.6-2.67-.43-2.09-.77-4.22-1.06-6.38-1.4.46-6.38,2.03-8.93,1.78-2.54-.25-5.7-1.28-7.11-3.59-1.38-2.26-.77-5.33,1.72-6.52,3.45-1.65,9.45,1.76,11.8,4.24.15.15,1.63,2.12,2.43,3.22-.16-1.3-.34-2.59-.46-3.91-.36-3.81-.6-7.67-.86-11.52-.08-1.18-.17-2.36-.26-3.53-.49.17-6.38,2.17-9.24,1.88-2.54-.25-5.7-1.28-7.11-3.59-1.38-2.26-.77-5.33,1.72-6.52,3.45-1.65,9.45,1.76,11.8,4.24.18.19,2.31,3.02,2.82,3.77-.2-2.59-.42-5.17-.74-7.71-.44-3.5-1.06-6.91-1.91-10.17-.23.08-6.36,2.19-9.29,1.9-2.54-.25-5.7-1.28-7.11-3.59-1.38-2.26-.77-5.33,1.71-6.52,3.45-1.65,9.45,1.76,11.8,4.24.15.16,1.78,2.32,2.53,3.37.11-.05.09-.04.2-.09-.95-3.48-2.31-6.73-3.73-9.71-.82-1.73-1.7-3.33-2.59-4.88-1.1.51-6.16,2.79-8.83,2.81-2.55.03-5.81-.65-7.46-2.79-1.62-2.09-1.35-5.21.99-6.67,3.25-2.02,9.59.71,12.19,2.92.14.12,1.45,1.5,2.39,2.52-.41-.69-.83-1.41-1.24-2.06-1.53-2.46-3.08-4.61-4.47-6.51-.8-1.07-1.54-2.03-2.25-2.91-1.34-.06-6.75-.39-9.08-1.57-2.28-1.15-4.86-3.25-5.34-5.91-.47-2.6,1.2-5.25,3.95-5.46Z" style="fill:#92e3a9; stroke-width:0px;"/></g><g id="d"><path d="M255.41,443.71s1.33,11.61,4.64,16.91,6.96,6.63,4.64,8.95c-2.32,2.32-7.96,2.99-15.92,1.66-7.96-1.33-13.93-7.3-17.58-14.92-3.65-7.63-1.33-11.28-1.33-11.28l6.01-11.15s6.6,7.5,10.24,7.5,9.29,2.32,9.29,2.32Z" style="fill:#fff; stroke:#263238; stroke-linecap:round; stroke-linejoin:round;"/><path d="M264.7,469.58c.71-.71.85-1.32.63-1.98-9.29,2.9-16.53,2.16-25.51-4.65-6.57-4.98-9.11-13.06-10.07-17.68-.42.89-1.68,4.5,1.45,11.05,3.65,7.63,9.62,13.6,17.58,14.93,7.96,1.33,13.6.66,15.92-1.66Z" style="fill:#fff; stroke:#263238; stroke-linecap:round; stroke-linejoin:round;"/><path d="M253.75,210.88s.04.38.12,1.05c.46,4.29,2.12,20.5,1.54,26.81-.66,7.3-5.64,32.83-7.63,45.11s-5.31,27.2-3.32,50.74,2.32,31.51,2.32,31.51c0,0-12.27,24.87-12.27,35.16s-1.72,34.9-.33,38.14c4.97,11.61,23.22,8.62,25.87,5.97,2.65-2.65,5.31-10.28,5.31-16.58s3.65-30.84,6.3-41.46c2.65-10.61,10.28-37.48,11.61-44.77,1.33-7.3,7.3-50.74,7.3-50.74l3.32,1.66s1.33,59.04,2.65,72.97c1.33,13.93,5.64,50.89,5.64,58.85s-5.64,8.95-5.64,12.6.66,8.95.66,9.95.99,1.66,1.99,2.65,20.23,9.29,24.21,9.29,6.3-1.99,6.3-1.99c0,0,5.97-8.62,6.63-16.91s-2.65-6.44-1.99-16.72c.66-10.28,1.99-32.5,1.99-40.13s-3.32-23.22-3.32-23.22c0,0,12.93-38.14,13.27-62.02.33-23.88-7.63-46.76-15.92-57.38-8.29-10.61-18.24-19.24-19.24-22.22-.99-2.98-1.66-6.96-1.66-6.96l-55.72-1.33Z" style="fill:#92e3a9; stroke:#263238; stroke-linecap:round; stroke-linejoin:round;"/><path d="M305.32,344.9s15.87,36.33,27.98,45.94" style="fill:#92e3a9; stroke:#263238; stroke-linecap:round; stroke-linejoin:round;"/><path d="M305.74,354.92s11.69,37.17,24.64,52.21" style="fill:#92e3a9; stroke:#263238; stroke-linecap:round; stroke-linejoin:round;"/><path d="M285.92,262.95l1.33,4.97s-2.98,3.32-2.32,5.97,2.65,8.29,2.65,8.29" style="fill:none; stroke:#263238; stroke-linecap:round; stroke-linejoin:round;"/><path d="M290.57,263.94l1.33,4.31s-2.65,3.65-2.65,6.3,1.33,6.63,1.33,6.63" style="fill:none; stroke:#263238; stroke-linecap:round; stroke-linejoin:round;"/><path d="M260.05,259.3s-3.32,6.3-6.96,11.28" style="fill:none; stroke:#263238; stroke-linecap:round; stroke-linejoin:round;"/><path d="M317.43,257.31s4.97,11.61,22.22,17.25" style="fill:none; stroke:#263238; stroke-linecap:round; stroke-linejoin:round;"/><path d="M320.36,266.8s8.77,11.69,21.3,10.44" style="fill:none; stroke:#263238; stroke-linecap:round; stroke-linejoin:round;"/><path d="M254.79,274.32c4.18-4.18,8.77-15.04,8.77-15.04" style="fill:none; stroke:#263238; stroke-linecap:round; stroke-linejoin:round;"/><polygon points="290.57 291.8 278.18 287.26 289.04 298.96 290.57 291.8" style="fill:#263238; stroke:#263238; stroke-linecap:round; stroke-linejoin:round;"/><path d="M330.37,241.39c-1.2-1.54-2.44-3.02-3.67-4.47-6.32,2.63-22.97,8.78-40.44,8.78-15.66,0-26.2-3.13-31.07-4.98-.42,3.22-1.23,8.11-2.19,13.59,5.69,2.64,18.65,7.45,36.58,6.97,17.83-.48,36.35-8.66,45.16-13.1-1.41-2.61-2.88-4.9-4.36-6.8Z" style="fill:#263238; stroke:#263238; stroke-linecap:round; stroke-linejoin:round;"/><polygon points="244.93 218.3 261.04 239.33 276.26 214.27 244.48 190.99 244.93 218.3" style="fill:#92e3a9; stroke:#263238; stroke-linecap:round; stroke-linejoin:round;"/><path d="M311.13,219.17c-.99-2.98-1.66-6.96-1.66-6.96l-55.72-1.33s.04.38.12,1.05c.46,4.29,2.12,20.5,1.54,26.81-.15,1.69-.54,4.37-1.07,7.64,7.21,3.42,25.46,10.52,44.52,5.63,15.03-3.86,25.2-8.46,30.84-11.45-8.15-10.22-17.6-18.48-18.56-21.38Z" style="fill:#b2b2b2; stroke:#263238; stroke-linecap:round; stroke-linejoin:round;"/><circle cx="285.88" cy="243.94" r="1.12" style="fill:#b2b2b2; stroke:#263238; stroke-linecap:round; stroke-linejoin:round;"/><polygon points="282.94 253.66 283.27 261.62 295.21 260.63 295.54 252.34 282.94 253.66" style="fill:#fff; stroke:#263238; stroke-linecap:round; stroke-linejoin:round;"/><polygon points="295.21 259.3 306.49 268.59 306.16 261.95 295.54 252.34 295.21 259.3" style="fill:#263238; stroke:#263238; stroke-linecap:round; stroke-linejoin:round;"/><polygon points="306.16 261.95 296.87 314.69 306.82 318.67 307.81 269.25 306.16 261.95" style="fill:#263238; stroke:#263238; stroke-linecap:round; stroke-linejoin:round;"/><path d="M329.7,457.78s-3.98-6.63-11.61-12.27c-7.63-5.64-16.58-8.29-17.58-4.64-.99,3.65-4.64,12.27-9.29,16.25-4.64,3.98-9.62,7.63-9.62,9.95s11.28,4.98,21.89,4.98,22.88-1.99,25.21-4.64c2.32-2.65.99-9.62.99-9.62Z" style="fill:#fff; stroke:#263238; stroke-linecap:round; stroke-linejoin:round;"/><path d="M328.71,467.39c.8-.92,1.16-2.35,1.3-3.83-4.31,1.62-11.72,4.06-20.87,4.49-10.02.48-20.73-1.79-26.57-3.1-.6.78-.96,1.49-.96,2.11,0,2.32,11.28,4.97,21.89,4.97s22.88-1.99,25.21-4.64Z" style="fill:#fff; stroke:#263238; stroke-linecap:round; stroke-linejoin:round;"/><path d="M267,139.82s-9.75-.75-19.5-5.75-21-7.5-21-7.5l-5.5,25.25s14.25,4.75,20,10.75,8.75,9.5,8.25,18-.75,33.5-.75,33.5c0,0,15.75,6.25,35.25,7.25s35.75-3.75,35.75-3.75l6.5-37s19.25,5.5,29.25,5.5,13.75-3.75,13.75-10.5-18.25-14-27.75-18.5-19.25-10-29.25-12.25-19.25-4-19.25-4c0,0-5.5-12.25-5.5-18.75,0,0-9.25,10.75-12.5,13s-7.75,4.75-7.75,4.75Z" style="fill:#263238; stroke:#263238; stroke-linecap:round; stroke-linejoin:round;"/><path d="M267,141.9s-2,18.67,5.67,32.33" style="fill:none; stroke:#8c8c8c; stroke-linecap:round; stroke-linejoin:round;"/><path d="M263.67,145.23s-2,16,.67,25" style="fill:none; stroke:#8c8c8c; stroke-linecap:round; stroke-linejoin:round;"/><line x1="326" y1="180.57" x2="317" y2="176.57" style="fill:none; stroke:#8c8c8c; stroke-linecap:round; stroke-linejoin:round;"/><path d="M248.67,171.57s-3.67-10.33-5.67-15.67" style="fill:none; stroke:#8c8c8c; stroke-linecap:round; stroke-linejoin:round;"/><path d="M300.27,142.31c-4.48-.91-7.52-1.49-7.52-1.49,0,0-5.5-12.25-5.5-18.75,0,0-9.25,10.75-12.5,13-2.07,1.43-4.65,2.97-6.24,3.89.07,4.29,1.11,28.93,15.49,27.11,12.49-1.59,15.54-17.31,16.27-23.76Z" style="fill:#b2b2b2; stroke:#263238; stroke-linecap:round; stroke-linejoin:round;"/><path d="M274.75,135.07c-2.07,1.43-4.65,2.97-6.24,3.89.02,1.49.17,5.42.94,9.86,11.93-6.91,14.33-18.93,14.33-18.93l-3.24-.35c-2.24,2.38-4.49,4.63-5.79,5.53Z" style="fill:#263238; stroke:#263238; stroke-linecap:round; stroke-linejoin:round;"/><path d="M342.49,157.65c-4.12,3.99-10.11,12.25-7.66,25.19,6.39,1.51,14.84,3.22,20.41,3.22,10,0,13.75-3.75,13.75-10.5s-16.75-13.39-26.51-17.92Z" style="fill:#b2b2b2; stroke:#263238; stroke-linecap:round; stroke-linejoin:round;"/><path d="M166.37,309.75s15.2,38.92,15.2,50.4-5.6,30.35-3.11,39.97c2.48,9.62,11.16,49.32,11.16,49.32l14.28-.26s3.13-52.86,3.44-67.75c.31-14.9,4.34-81.61,4.34-81.61,0,0,12.1,34.76,19.86,46.24,7.76,11.48,13.03,20.48,13.03,20.48,0,0-15.52,16.14-18.62,29.79s-3.72,28.86-3.72,28.86l13.65,8.69s22.96-40.34,28.55-53.06c5.59-12.72,8.07-16.76,6.52-22.96-1.55-6.21-10.86-42.2-15.21-54.93-4.34-12.72-8.69-18-11.17-22.34-2.48-4.34-8.38-13.65-22.65-19.24-14.27-5.59-28.24-2.48-41.27,4.97-13.03,7.45-18,11.79-18,22.96s3.72,20.48,3.72,20.48Z" style="fill:#263238; stroke:#263238; stroke-linecap:round; stroke-linejoin:round;"/><path d="M203.89,449.19s.48-8.15,1.09-18.94c-8.1,1.77-15.51,1.26-19.44.74,2.23,10.03,4.07,18.46,4.07,18.46l14.28-.26Z" style="fill:#fff; stroke:#263238; stroke-linecap:round; stroke-linejoin:round;"/><line x1="211.68" y1="299.82" x2="221.61" y2="293.31" style="fill:none; stroke:#263238; stroke-linecap:round; stroke-linejoin:round;"/><path d="M236.07,129.33c-5.43-1.84-9.57-2.76-9.57-2.76l-5.5,25.25s7.25,2.42,13.5,5.98l1.57-28.47Z" style="fill:none; stroke:#263238; stroke-linecap:round; stroke-linejoin:round;"/><path d="M228,143.07s-.75,5.75-.75,8.25,13.25,8.75,14.5,9.5,6,8.75,6.25,20.75-3.5,82-3,87.5,1.75,12.75,2,13.75-7.25,1-11.75-5-9-10-12-10.25-20.25-1.5-26,2.25-11.5,11.5-11.5,11.5c0,0-4.25-2.75-2.5-23s2.5-60,2.5-68.75,1.5-38.5,1.5-38.5c0,0,11.5-1.25,14.25-5.75s2.5-12.25,2.5-12.25c0,0,6,10.5,24,10Z" style="fill:#fff; stroke:#263238; stroke-linecap:round; stroke-linejoin:round;"/><path d="M245.35,272.27c-.13-1.09-.25-2.18-.35-3.2,0-.1-.02-.24-.02-.39-3.37-2.04-12.45-7.07-22.81-8.81-9.94-1.67-29.17,5.78-39.28,10.15.05,1.16.12,2.2.22,3.14,10.2-4.47,29.44-11.86,38.56-10.33,12.2,2.06,22.93,9.16,23.04,9.23.2.13.42.19.64.22Z" style="fill:#263238; stroke-width:0px;"/><path d="M247.83,178.52l-61.64-3.95c-.04,1.01-.08,2.02-.12,3l61.93,3.97c-.02-1.04-.09-2.04-.17-3.02Z" style="fill:#263238; stroke-width:0px;"/><path d="M184.93,226.73l61.71-4.35c.04-1.01.09-2.01.13-3.02l-61.74,4.35c-.03,1-.07,2.01-.1,3.01Z" style="fill:#263238; stroke-width:0px;"/><path d="M246,237.22c.04-1.01.09-2.03.13-3.06-9.1,1.35-30.63,4.38-41.43,4.38-7.98,0-15.36.32-20.27.61-.05,1.01-.09,2.02-.14,3.01,4.86-.28,12.33-.62,20.42-.62,10.91,0,31.84-2.92,41.3-4.33Z" style="fill:#263238; stroke-width:0px;"/><path d="M186.64,163.8l58.85,3.85c-.42-1.16-.85-2.2-1.28-3.09l-57.44-3.76c-.04.96-.09,1.96-.14,3Z" style="fill:#263238; stroke-width:0px;"/><path d="M203.66,248.63c-5.39.12-13.43,1.77-19.93,3.32-.07,1.08-.15,2.13-.22,3.15,6.52-1.58,14.87-3.34,20.22-3.46,20.59-.47,34.01,2.97,41.46,5.99.03-1,.07-2.06.11-3.16-8.33-3.19-22.05-6.29-41.64-5.84Z" style="fill:#263238; stroke-width:0px;"/><path d="M185.73,192.68l61.95,3.78c.04-1.04.07-2.04.1-3l-62.03-3.78c0,.78,0,1.79-.02,3Z" style="fill:#263238; stroke-width:0px;"/><path d="M185.49,206.79c-.02.98-.04,1.98-.07,3h61.74c.04-1.01.08-2.01.12-3h-61.8Z" style="fill:#263238; stroke-width:0px;"/><line x1="197.25" y1="269.82" x2="207.95" y2="263.48" style="fill:none; stroke:#263238; stroke-linecap:round; stroke-linejoin:round;"/><line x1="224.89" y1="267.65" x2="218.12" y2="263.48" style="fill:none; stroke:#263238; stroke-linecap:round; stroke-linejoin:round;"/><path d="M227.25,151.32c0-2.5.75-8.25.75-8.25-18,.5-24-10-24-10,0,0,.25,7.75-2.5,12.25-.8,1.3-2.33,2.33-4.1,3.14,2.5,10.07,8.14,33.83,16.35,37.86,13.13,6.45,15.46-21.28,17.45-31.29-2.24-1.43-3.95-2.81-3.95-3.71Z" style="fill:#fff; stroke:#263238; stroke-linecap:round; stroke-linejoin:round;"/><path d="M224.42,182.05c.07-.13.14-.26.21-.39v-13.85c0-1.04-13.82-15.64-13.82-15.64,11.21-2.09,16.94-7.82,16.94-7.82l-3.44-1.34c-9.36-.55-14.92-4.22-17.79-6.94l-2.56-1c-.12,2.6-.6,7.18-2.47,10.25-.8,1.3-2.33,2.33-4.1,3.14.62,2.49,1.43,5.82,2.42,9.48,8.83,5.48,20.9,13.26,20.9,13.26l3.7,10.85Z" style="fill:#263238; stroke:#263238; stroke-linecap:round; stroke-linejoin:round;"/><path d="M240.15,214.11s-3.25,12.99-3.25,25.58,4.87,28.83,4.87,28.83l-1.62-54.4Z" style="fill:#263238; stroke:#263238; stroke-linecap:round; stroke-linejoin:round;"/><path d="M195,149.07l-3.75,123-2,50.25s-9.75,3.5-26-2-19-8.25-19-8.25c0,0,22.25-67.5,24.25-72.75s3-13.25,3-18.5-1.25-5.5-1.25-5.5c0,0-9.75,27.75-12.75,30s-9.75-8-17.5-19.5-17.5-34.25-17.5-34.25c0,0,12-5.5,18-10s9.5-8.75,9.5-8.75l2.75,18s9-33.75,10.5-36,31.75-5.75,31.75-5.75Z" style="fill:#92e3a9; stroke:#263238; stroke-linecap:round; stroke-linejoin:round;"/><polygon points="170.25 215.32 176.72 194.22 171.78 224.42 170.25 215.32" style="fill:#263238; stroke:#263238; stroke-linecap:round; stroke-linejoin:round;"/><path d="M152.75,190.82s6,18,7.25,24.25" style="fill:none; stroke:#263238; stroke-linecap:round; stroke-linejoin:round;"/><path d="M158,206.07s4.5,6,4.75,9.75" style="fill:none; stroke:#263238; stroke-linecap:round; stroke-linejoin:round;"/><path d="M122.5,191.57s13.25-18,17.5-22,10,3.25,10,3.25c0,0-3.75,6.75-12,12.75s-15.5,6-15.5,6Z" style="fill:#263238; stroke:#263238; stroke-linecap:round; stroke-linejoin:round;"/><path d="M148.25,177.07s0-7,1.5-11,4.75-14.25,3.5-16.75-3.75-3.25-3.75-3.25c0,0,4-17.75,2.75-19.75s-3-.5-3.25,1.75-3,16.25-3,16.25c0,0-2.75-16.75-3.75-18.75s-2.5-.75-3.25.5,1.75,19,1.75,19c0,0-10,7-10,10.25s1.5,7.25,3.25,9.75,3.5,4.75,3.5,4.75l.5,15.75,10.25-8.5Z" style="fill:#fff; stroke:#263238; stroke-linecap:round; stroke-linejoin:round;"/><path d="M145.75,154.82s-4.5,6.25-3.25,9.25,2.5,3.25,2.5,3.25" style="fill:#fff; stroke:#263238; stroke-linecap:round; stroke-linejoin:round;"/><path d="M139.5,144.07s3.5,9,3.5,9.75-2.5,2.75-3.25,2.5-5-8.25-5-9,3.25-3.25,4.75-3.25Z" style="fill:#fff; stroke:#263238; stroke-linecap:round; stroke-linejoin:round;"/><path d="M134.75,147.32s-3.57,2.51-4.03,3.62c-.46,1.11,2.4,4.89,3.6,6.56,1.2,1.66,4.16-.18,4.62-.55.46-.37.28-.74,0-1.29-.28-.55-4.19-8.33-4.19-8.33Z" style="fill:#fff; stroke:#263238; stroke-linecap:round; stroke-linejoin:round;"/><path d="M151.5,147.82s-11.25-.5-12,.75-.5,3.5.25,4.75,10.5,1.25,10.5,1.25" style="fill:#fff; stroke:#263238; stroke-linecap:round; stroke-linejoin:round;"/><path d="M201.13,131.94s19.55,25.76,24.83,30.1c5.28,4.34,10.55,17.69,12.41,21.1,1.86,3.41.62,5.9-.93,7.14s-12.72,3.72-13.65,2.48c-.93-1.24-2.48-4.34-2.48-5.28s1.55-4.34,1.55-4.34l-2.48-14.27s-26.69-16.76-36-24.52c-9.31-7.76-13.96-13.34-9.62-17.07,4.34-3.72,20.48-4.65,20.48-4.65l5.9,9.31Z" style="fill:#b2b2b2; stroke:#263238; stroke-linecap:round; stroke-linejoin:round;"/><path d="M252.1,81.28s-2.21-2.88.44-7.52c2.66-4.65,7.08-4.87,7.08-4.87,0,0-1.11-11.73,8.19-13.06,9.29-1.33,11.15,1.93,11.15,1.93,0,0,7.43,6.03,7.43,10.46s-.89,5.53-.89,5.53c0,0,4.87,3.98,5.53,7.52s-1.33,6.64-1.33,6.64c0,0,3.32,3.98,3.32,7.08s-1.11,4.65-1.11,4.65c0,0,4.87,7.3,4.87,12.39s-1.99,9.74-1.99,10.62,5.53,9.74,4.87,14.16c-.66,4.43-2.43,6.86-2.43,6.86,0,0,1.99,5.98-.22,9.74-2.21,3.76-5.09,3.32-6.42,1.77-1.33-1.55-1.33-2.21-1.33-2.21,0,0,4.43.89,4.65-1.11.22-1.99-2.27-3.45-.95-5s2.27-3.85,2.27-3.85c0,0-3.98-3.76-3.98-8.63s1.77-10.18,1.77-10.18c0,0-4.43-3.1-5.09-8.41-.66-5.31-.89-12.84-.89-12.84,0,0-3.76-9.52-3.98-11.95l-.22-2.43s-3.18-5.8-3.18-8.9,2.51-5.7,2.51-5.7c0,0-6.2-3.76-7.08-4.65s-1.55-2.21-1.55-2.21c0,0-.89,3.1-2.21,3.98-1.33.89-3.1,1.33-3.1,1.33,0,0,3.76,3.54,3.32,6.2-.44,2.66-2.21,3.54-2.21,3.54l-16.82,2.21-.44-3.1Z" style="fill:#263238; stroke:#263238; stroke-linecap:round; stroke-linejoin:round;"/><path d="M254.81,78.88c-7.38,2.46-13.34,13.03-13.34,20.17s4.97,21.1,9.93,30.72c4.97,9.62,16.76,13.34,21.1,12.72,4.34-.62,13.34-11.17,15.52-18.31,2.17-7.14,2.17-9.62,2.17-9.62,0,0,5.59-4.97,4.65-10.86-.93-5.9-5.59-3.72-5.59-3.72,0,0-3.1-11.79-11.79-18.62-8.69-6.83-19.86-3.41-22.65-2.48Z" style="fill:#b2b2b2; stroke:#263238; stroke-linecap:round; stroke-linejoin:round;"/><path d="M281.37,76.88c-8.69-6.83-21.46-5.15-27.47-1.29-6.54,4.21-12.42,16.32-12.42,23.45,0,1.44.21,3.17.58,5.08l.98-.11s1.24-5.9,2.17-8.38c.93-2.48,15.83-6.83,20.79-7.14,4.97-.31,6.83-.31,11.48,2.48s9,10.86,11.79,9c0,0,.8-16.27-7.89-23.1Z" style="fill:#263238; stroke:#263238; stroke-linecap:round; stroke-linejoin:round;"/><path d="M262.88,113.63s.93.31-1.24,4.03c-2.17,3.72-4.97,4.34-3.1,4.65s5.9.62,6.83.62" style="fill:none; stroke:#263238; stroke-linecap:round; stroke-linejoin:round;"/><path d="M258.84,126.04s2.48,3.1,7.14,2.17" style="fill:none; stroke:#263238; stroke-linecap:round; stroke-linejoin:round;"/><rect x="261.93" y="108.08" width="3.93" height="2.2" style="fill:#fff; stroke:#263238; stroke-linecap:round; stroke-linejoin:round;"/><path d="M263.15,109.74c-.25-.62-.64-1.18-1.23-1.66-3.57-2.95-8.79-2.74-13.09-2.01-2.26.38-5.74.67-6.52,3.31-1.99,6.76,11.03,11.48,15.96,10.06,2.62-.75,4.47-3.93,5.02-6.46.25-1.13.24-2.25-.15-3.24Z" style="fill:#fff; stroke:#263238; stroke-linecap:round; stroke-linejoin:round;"/><path d="M260.9,110.43c-.19-.48-.5-.92-.95-1.29-2.77-2.29-6.82-2.12-10.16-1.56-1.76.3-4.46.52-5.06,2.57-1.55,5.25,8.56,8.91,12.39,7.81,2.03-.58,3.47-3.05,3.9-5.01.19-.88.19-1.75-.12-2.51Z" style="fill:#92e3a9; stroke:#263238; stroke-linecap:round; stroke-linejoin:round;"/><path d="M265.3,108.73c.18-.64.51-1.24,1.04-1.79,3.23-3.33,8.44-3.69,12.78-3.44,2.29.13,5.78.04,6.84,2.58,2.72,6.5-9.7,12.62-14.76,11.76-2.69-.46-4.87-3.41-5.7-5.87-.37-1.1-.49-2.21-.21-3.23Z" style="fill:#fff; stroke:#263238; stroke-linecap:round; stroke-linejoin:round;"/><path d="M267.61,109.17c.14-.5.4-.97.8-1.39,2.51-2.58,6.55-2.86,9.92-2.67,1.78.1,4.49.03,5.31,2,2.11,5.05-7.53,9.79-11.45,9.12-2.09-.36-3.78-2.65-4.43-4.55-.29-.85-.38-1.72-.16-2.51Z" style="fill:#92e3a9; stroke:#263238; stroke-linecap:round; stroke-linejoin:round;"/><polygon points="284.94 104.92 289.57 99.43 286.39 107.09 284.94 104.92" style="fill:#fff; stroke:#263238; stroke-linecap:round; stroke-linejoin:round;"/><path d="M249.09,103.19s7.59-1.94,11.21.67" style="fill:none; stroke:#263238; stroke-linecap:round; stroke-linejoin:round; stroke-width:2px;"/><path d="M266.58,99.57s5.88-3.67,12.97.52" style="fill:none; stroke:#263238; stroke-linecap:round; stroke-linejoin:round; stroke-width:2px;"/><path d="M193.1,92.3s-5.33-2.77-6.4-10.66c-1.07-7.89,7.89-13.64,15.13-13.86,7.25-.21,14.71,1.49,17.27,6.61,2.56,5.12.64,7.89-2.34,10.23-2.98,2.34-11.51,6.18-17.48,7.67-5.97,1.49-6.18,0-6.18,0Z" style="fill:#263238; stroke:#263238; stroke-linecap:round; stroke-linejoin:round;"/><path d="M224.64,97.63s-6.61,7.46-15.13,13.43c-8.53,5.97-12.58,8.74-12.58,8.74l-4.9,1.07s-5.12-4.69-4.05-17.27c1.07-12.58,15.99-19.19,23.24-21.1,7.25-1.92,23.02,7.67,27.92,11.72,4.9,4.05,5.12,12.79,3.41,15.99-1.71,3.2-2.34,5.54-2.34,5.54l-15.56-18.12Z" style="fill:#263238; stroke:#263238; stroke-linecap:round; stroke-linejoin:round;"/><path d="M240.42,114.47s.1,8.39-2.24,15.21c-2.34,6.82-7.38,18.29-16.94,18.25-7.61-.03-17.72-7.53-20.7-11.15-2.98-3.62-6.8-8.89-6.8-17.84s6.39-19.4,15.77-24.09,17.69-2.56,22.38.43c4.69,2.98,9.38,13.22,8.53,19.19Z" style="fill:#fff; stroke:#263238; stroke-linecap:round; stroke-linejoin:round;"/><path d="M198.64,122.78s-3.62-9.17-8.31-6.18c-4.69,2.98-.43,13.22,2.98,14.07,3.41.85,5.12-1.92,5.12-1.92" style="fill:#fff; stroke:#263238; stroke-linecap:round; stroke-linejoin:round;"/><path d="M225.07,113.83s-.21,3.84.85,4.69c1.07.85,5.12,3.41,2.34,5.33-2.77,1.92-5.12.21-5.12.21" style="fill:none; stroke:#263238; stroke-linecap:round; stroke-linejoin:round;"/><path d="M230.4,128.75s-10.87,5.97-15.99-1.28" style="fill:none; stroke:#263238; stroke-linecap:round; stroke-linejoin:round;"/><path d="M220.51,109.78s-4.2-1.8-9.41-1.6c-5.2.2-9.01,1.2-9.21,2.6-.2,1.4.6,7.41,2.8,9.61s9.01,2,11.81,1.2c2.8-.8,4.8-4.8,5.2-6.61.4-1.8.8-4.4.8-4.4l-2-.8Z" style="fill:#263238; stroke:#263238; stroke-linecap:round; stroke-linejoin:round;"/><path d="M227.2,109.73s4.09-1.75,9.14-1.56c5.06.19,8.76,1.17,8.95,2.53.19,1.36-.58,7.2-2.72,9.34-2.14,2.14-8.76,1.95-11.48,1.17-2.72-.78-4.67-4.67-5.06-6.42-.39-1.75-.78-4.28-.78-4.28l1.95-.78Z" style="fill:#263238; stroke:#263238; stroke-linecap:round; stroke-linejoin:round;"/><polygon points="202.05 111.7 193.95 116.39 195.01 117.24 202.26 115.11 202.05 111.7" style="fill:#263238; stroke:#263238; stroke-linecap:round; stroke-linejoin:round;"/><polygon points="222.51 110.58 225.25 110.51 225.28 112.77 222.09 112.55 222.51 110.58" style="fill:#263238; stroke:#263238; stroke-linecap:round; stroke-linejoin:round;"/><path d="M233.75,156.57s5,37.5,5,56.5,1.75,60.25,4.25,65.5,8.5,13.5,8.5,13.5c0,0-3.25-21.75-3.75-27s1-58.75,1.5-71.25.25-25.75-3.5-29.75-12-7.5-12-7.5Z" style="fill:#92e3a9; stroke:#263238; stroke-linecap:round; stroke-linejoin:round;"/><path d="M204.85,447.22s-4.03-6.83-9.62-5.28c-5.59,1.55-6.52,5.9-7.14,9.62-.62,3.72-3.1,13.67-3.72,16.46s.31,4.34,1.55,4.34h25.45s1.86-1.24,1.86-4.03-8.38-21.11-8.38-21.11Z" style="fill:#263238; stroke:#263238; stroke-linecap:round; stroke-linejoin:round;"/><path d="M184.37,468.03c-.62,2.79.31,4.34,1.55,4.34h25.45s1.86-1.24,1.86-4.03c0-.22-.06-.54-.16-.93h-28.56c-.06.23-.11.44-.15.62Z" style="fill:#fff; stroke:#263238; stroke-linecap:round; stroke-linejoin:round;"/><path d="M222.23,425.19s-4.65,13.96-7.14,17.69c-2.48,3.72-7.45,7.45-6.52,11.17.93,3.72,9.93,5.9,12.1,7.76s10.41,6.78,13.03,8.69c3.41,2.48,11.17.93,13.03.62,1.86-.31,0-1.86-1.24-4.03-1.24-2.17-8.69-11.17-10.86-15.83-2.17-4.65-2.48-5.9-2.48-7.14s3.72-10.24,3.72-10.24l-13.65-8.69Z" style="fill:#fff; stroke:#263238; stroke-linecap:round; stroke-linejoin:round;"/><path d="M246.74,471.12c1.5-1.15,0-1.86-1.24-4.03-1.24-2.17-8.69-11.17-10.86-15.83-2.17-4.65-2.48-5.9-2.48-7.14,0,0-1.24-4.97-3.72-4.03-2.48.93-4.03,4.34-4.03,4.34l-7.5-5.08c-.66,1.48-1.28,2.74-1.81,3.53-2.48,3.72-7.45,7.45-6.52,11.17s9.93,5.9,12.1,7.76c2.17,1.86,10.41,6.78,13.03,8.69,3.41,2.48,10.97,2.21,13.03.62Z" style="fill:#263238; stroke:#263238; stroke-linecap:round; stroke-linejoin:round;"/><path d="M246.74,471.12c.84-.64.74-1.15.27-1.85-2.27.4-5.7,1.02-9.36-.08-5.85-1.76-8.78-5.27-14.04-9.07-4.28-3.09-11.85-7.73-14.53-9.36-.53,1.1-.78,2.19-.5,3.29.93,3.72,9.93,5.9,12.1,7.76,2.17,1.86,10.41,6.78,13.03,8.69,3.41,2.48,10.97,2.21,13.03.62Z" style="fill:#fff; stroke:#263238; stroke-linecap:round; stroke-linejoin:round;"/><line x1="302.04" y1="77.99" x2="311.11" y2="89.9" style="fill:none; stroke:#263238; stroke-linecap:round; stroke-linejoin:round;"/><line x1="319.06" y1="80.82" x2="321.32" y2="89.33" style="fill:none; stroke:#263238; stroke-linecap:round; stroke-linejoin:round;"/><line x1="304.31" y1="101.81" x2="298.07" y2="102.95" style="fill:none; stroke:#263238; stroke-linecap:round; stroke-linejoin:round;"/><line x1="300.33" y1="92.74" x2="307.14" y2="95.57" style="fill:none; stroke:#263238; stroke-linecap:round; stroke-linejoin:round;"/><rect x="310.37" y="94.14" width="38.01" height="21.14" rx="1.64" ry="1.64" transform="translate(-16.17 97.63) rotate(-16.46)" style="fill:#263238; stroke:#263238; stroke-linecap:round; stroke-linejoin:round;"/><path d="M349.88,178.48c-1.92-3.63-1.49-9.18,0-19.43,1.49-10.25,1.49-42.71,1.49-42.71,0,0-.85-1.28-2.99-2.78-2.14-1.49-3.2-3.42-4.06-2.78-.85.64-4.27,3.42-5.98,3.42s-1.07-2.35-1.07-2.35c-1.07,0-2.35-1.49-1.07-3.42s9.82-6.83,9.82-6.83l-5.12.43s-4.48,2.14-5.98,2.78c-1.49.64-4.06,1.07-4.91.21s6.41-5.98,8.33-6.83c1.92-.85,10.04-1.28,10.04-1.28,0,0-2.14-4.27-3.84-4.7-1.71-.43-3.42-.21-6.19-.21s-5.77,1.92-7.05.64,2.78-2.99,5.12-3.63c2.35-.64,12.6-1.49,14.09.21,1.49,1.71,6.19,11.32,6.19,11.32,0,0,3.42,9.82,4.06,18.58s11.1,46.98,8.97,56.8c-2.14,9.82-8.26,10.48-12.56,10.15" style="fill:#b2b2b2; stroke:#263238; stroke-linecap:round; stroke-linejoin:round;"/><path d="M337.28,111.86s6.41-4.54,8.08-5.7c1.66-1.16,3.83-.33,3.83-.33" style="fill:none; stroke:#263238; stroke-linecap:round; stroke-linejoin:round;"/><path d="M206,94.64s17,6.04,24.17,11.33,9.82,18.89,9.82,18.89c0,0,.38,7.18-1.51,13.22s0,7.18,0,7.18c0,0-.38-2.64,3.4-8.31s3.32-25.93-.42-37.89c-3.74-11.96-8.45-15.55-16.58-14.99-8.13.57-12.09,4.15-12.09,4.15" style="fill:#263238; stroke:#263238; stroke-linecap:round; stroke-linejoin:round;"/><path d="M207.79,95.77s29.85,24.04,31.4,31.79" style="fill:none; stroke:#263238; stroke-linecap:round; stroke-linejoin:round;"/></g><g id="e"><line x1="28" y1="472.37" x2="468" y2="472.37" style="fill:none; stroke:#263238; stroke-linecap:round; stroke-linejoin:round;"/></g></svg>