<?xml version="1.0" encoding="UTF-8"?><svg id="a" xmlns="http://www.w3.org/2000/svg" viewBox="0 0 492 492"><path d="M366,486H126c-66,0-120-54-120-120V126C6,60,60,6,126,6h240c66,0,120,54,120,120v240c0,66-54,120-120,120Z" style="fill:#2e8555; stroke-width:0px;"/><path d="M230.4,385.9H102.3c-2.7,0-5.5-1.5-7-3.6-1.2-1.8-1.5-3.9-.8-5.8l10.3-26.9c.6-1.5,2.1-2.5,3.7-2.5h115.6c1.6,0,3.1,1,3.7,2.5l10.3,26.9c.7,1.9.5,4.1-.8,5.8-1.4,2.1-4.2,3.6-6.9,3.6ZM111.2,354.9l-8.8,23h127.9l-8.8-23h-110.3Z" style="fill:#fff; stroke-width:0px;"/><path d="M224.1,354.9c-2.2,0-3.9-1.8-3.9-3.9v-7.7c0-2.1-1.7-3.8-3.8-3.8h-100.2c-2.1,0-3.8,1.7-3.8,3.8v7.7c0,2.2-1.8,3.9-3.9,3.9s-3.9-1.8-3.9-3.9v-7.7c0-6.4,5.2-11.7,11.7-11.7h100.2c6.4,0,11.7,5.2,11.7,11.7v7.7c-.1,2.2-1.9,3.9-4.1,3.9Z" style="fill:#fff; stroke-width:0px;"/><path d="M190.1,339.5h-47.5c-2.2,0-3.9-1.8-3.9-3.9v-15c0-2.2,1.8-3.9,3.9-3.9h47.5c2.2,0,3.9,1.8,3.9,3.9v15c0,2.1-1.8,3.9-3.9,3.9ZM146.5,331.6h39.6v-7.1h-39.6v7.1Z" style="fill:#fff; stroke-width:0px;"/><path d="M181.7,324.5h-30.8c-2.2,0-3.9-1.8-3.9-3.9v-15c0-2.2,1.8-3.9,3.9-3.9h30.8c2.2,0,3.9,1.8,3.9,3.9v15c.1,2.1-1.7,3.9-3.9,3.9ZM154.9,316.6h22.9v-7.1h-22.9v7.1Z" style="fill:#fff; stroke-width:0px;"/><path d="M116.3,385.9c-2.2,0-3.9-1.8-3.9-3.9v-13.5c0-2.2,1.8-3.9,3.9-3.9s3.9,1.8,3.9,3.9v13.5c.1,2.1-1.7,3.9-3.9,3.9Z" style="fill:#fff; stroke-width:0px;"/><path d="M133,385.9c-2.2,0-3.9-1.8-3.9-3.9v-13.5c0-2.2,1.8-3.9,3.9-3.9s3.9,1.8,3.9,3.9v13.5c0,2.1-1.7,3.9-3.9,3.9Z" style="fill:#fff; stroke-width:0px;"/><path d="M149.7,385.9c-2.2,0-3.9-1.8-3.9-3.9v-13.5c0-2.2,1.8-3.9,3.9-3.9s3.9,1.8,3.9,3.9v13.5c0,2.1-1.8,3.9-3.9,3.9Z" style="fill:#fff; stroke-width:0px;"/><path d="M166.3,385.9c-2.2,0-3.9-1.8-3.9-3.9v-13.5c0-2.2,1.8-3.9,3.9-3.9s3.9,1.8,3.9,3.9v13.5c.1,2.1-1.7,3.9-3.9,3.9Z" style="fill:#fff; stroke-width:0px;"/><path d="M183,385.9c-2.2,0-3.9-1.8-3.9-3.9v-13.5c0-2.2,1.8-3.9,3.9-3.9s3.9,1.8,3.9,3.9v13.5c0,2.1-1.7,3.9-3.9,3.9Z" style="fill:#fff; stroke-width:0px;"/><path d="M199.7,385.9c-2.2,0-3.9-1.8-3.9-3.9v-13.5c0-2.2,1.8-3.9,3.9-3.9s3.9,1.8,3.9,3.9v13.5c0,2.1-1.8,3.9-3.9,3.9Z" style="fill:#fff; stroke-width:0px;"/><path d="M216.3,385.9c-2.2,0-3.9-1.8-3.9-3.9v-13.5c0-2.2,1.8-3.9,3.9-3.9s3.9,1.8,3.9,3.9v13.5c.1,2.1-1.7,3.9-3.9,3.9Z" style="fill:#fff; stroke-width:0px;"/><path d="M177.7,309.5h-22.8c-2.2,0-3.9-1.8-3.9-3.9v-126.5c0-2.2,1.8-3.9,3.9-3.9h22.8c2.2,0,3.9,1.8,3.9,3.9v126.4c.1,2.2-1.7,4-3.9,4ZM158.9,301.6h14.9v-118.5h-14.9v118.5Z" style="fill:#fff; stroke-width:0px;"/><path d="M384.8,367.7h-155.8c-2.2,0-3.9-1.8-3.9-3.9s1.8-3.9,3.9-3.9h151.8v-223.6h-166.5v199.2c0,2.2-1.8,3.9-3.9,3.9s-3.9-1.8-3.9-3.9v-203.1c0-2.2,1.8-3.9,3.9-3.9h174.4c2.2,0,3.9,1.8,3.9,3.9v231.4c.1,2.1-1.7,3.9-3.9,3.9Z" style="fill:#fff; stroke-width:0px;"/><path d="M394.3,136.3h-193.4c-2.2,0-3.9-1.8-3.9-3.9v-21.3c0-2.2,1.8-3.9,3.9-3.9h193.4c2.2,0,3.9,1.8,3.9,3.9v21.3c0,2.2-1.7,3.9-3.9,3.9ZM204.8,128.4h185.5v-13.4h-185.5v13.4Z" style="fill:#fff; stroke-width:0px;"/><path d="M297.6,367.7c-2.2,0-3.9-1.8-3.9-3.9v-231.4c0-2.2,1.8-3.9,3.9-3.9s3.9,1.8,3.9,3.9v231.4c0,2.1-1.7,3.9-3.9,3.9Z" style="fill:#fff; stroke-width:0px;"/><path d="M384.8,292.5h-87.2c-2.2,0-3.9-1.8-3.9-3.9s1.8-3.9,3.9-3.9h87.2c2.2,0,3.9,1.8,3.9,3.9.1,2.1-1.7,3.9-3.9,3.9Z" style="fill:#fff; stroke-width:0px;"/><path d="M384.8,331h-87.2c-2.2,0-3.9-1.8-3.9-3.9s1.8-3.9,3.9-3.9h87.2c2.2,0,3.9,1.8,3.9,3.9.1,2.1-1.7,3.9-3.9,3.9Z" style="fill:#fff; stroke-width:0px;"/><path d="M350,308.1h-17.6c-2.2,0-3.9-1.8-3.9-3.9s1.8-3.9,3.9-3.9h17.6c2.2,0,3.9,1.8,3.9,3.9s-1.7,3.9-3.9,3.9Z" style="fill:#fff; stroke-width:0px;"/><path d="M350,347h-17.6c-2.2,0-3.9-1.8-3.9-3.9s1.8-3.9,3.9-3.9h17.6c2.2,0,3.9,1.8,3.9,3.9s-1.7,3.9-3.9,3.9Z" style="fill:#fff; stroke-width:0px;"/><path d="M318.3,214h-8.3c-2.2,0-3.9-1.8-3.9-3.9s1.8-3.9,3.9-3.9h4.4v-15.8h-4.4c-2.2,0-3.9-1.8-3.9-3.9s1.8-3.9,3.9-3.9h8.3c2.2,0,3.9,1.8,3.9,3.9v23.5c0,2.2-1.7,4-3.9,4Z" style="fill:#fff; stroke-width:0px;"/><path d="M279,214h-8.3c-2.2,0-3.9-1.8-3.9-3.9v-23.7c0-2.2,1.8-3.9,3.9-3.9h8.3c2.2,0,3.9,1.8,3.9,3.9s-1.8,3.9-3.9,3.9h-4.4v15.8h4.4c2.2,0,3.9,1.8,3.9,3.9s-1.7,4-3.9,4Z" style="fill:#fff; stroke-width:0px;"/><path d="M375.1,384.7h-15.9c-1.5,0-2.8-.8-3.5-2.1l-8.9-17c-.6-1.2-.6-2.7.1-3.9s2-1.9,3.4-1.9h24.8c2.2,0,3.9,1.8,3.9,3.9v17c0,2.3-1.7,4-3.9,4ZM361.6,376.8h9.5v-9.1h-14.3l4.8,9.1Z" style="fill:#fff; stroke-width:0px;"/></svg>