<?xml version="1.0" encoding="UTF-8"?><svg xmlns="http://www.w3.org/2000/svg" viewBox="0 0 500 500"><g id="a"><path d="M90.31,265.54s11.67,62.89,70.86,96.97c59.18,34.08,132.75,25.95,192.55,20.93,59.8-5.02,100.15-45.46,99.28-97.15-.87-51.69-48.36-59.66-81.69-113.58-33.33-53.91-34.03-73.2-91.36-100.74-57.32-27.54-135.22,6.61-168.54,73.85-33.32,67.24-21.09,119.71-21.09,119.71Z" style="fill:#c6ff00; stroke-width:0px;"/><path d="M90.31,265.54s11.67,62.89,70.86,96.97c59.18,34.08,132.75,25.95,192.55,20.93,59.8-5.02,100.15-45.46,99.28-97.15-.87-51.69-48.36-59.66-81.69-113.58-33.33-53.91-34.03-73.2-91.36-100.74-57.32-27.54-135.22,6.61-168.54,73.85-33.32,67.24-21.09,119.71-21.09,119.71Z" style="fill:#fff; opacity:.7; stroke-width:0px;"/></g><g id="b"><ellipse cx="231.5" cy="435.78" rx="155.18" ry="11.22" style="fill:#c6ff00; stroke-width:0px;"/><ellipse cx="231.5" cy="435.78" rx="155.18" ry="11.22" style="fill:#fff; opacity:.5; stroke-width:0px;"/></g><g id="c"><rect x="184.32" y="76.5" width="253.68" height="328.35" rx="10" ry="10" style="fill:none; stroke:#263238; stroke-linecap:round; stroke-linejoin:round; stroke-width:1.02px;"/><polyline points="290.83 166.73 290.83 167.75 289.81 167.75" style="fill:none; stroke:#263238; stroke-linecap:round; stroke-linejoin:round; stroke-width:1.02px;"/><line x1="287.79" y1="167.75" x2="228.3" y2="167.75" style="fill:none; stroke:#263238; stroke-dasharray:0 0 2.02 2.02; stroke-linecap:round; stroke-linejoin:round; stroke-width:1.02px;"/><polyline points="227.29 167.75 226.26 167.75 226.26 166.73" style="fill:none; stroke:#263238; stroke-linecap:round; stroke-linejoin:round; stroke-width:1.02px;"/><line x1="226.26" y1="164.76" x2="226.26" y2="118.49" style="fill:none; stroke:#263238; stroke-dasharray:0 0 1.97 1.97; stroke-linecap:round; stroke-linejoin:round; stroke-width:1.02px;"/><polyline points="226.26 117.5 226.26 116.48 227.29 116.48" style="fill:none; stroke:#263238; stroke-linecap:round; stroke-linejoin:round; stroke-width:1.02px;"/><line x1="229.3" y1="116.48" x2="288.8" y2="116.48" style="fill:none; stroke:#263238; stroke-dasharray:0 0 2.02 2.02; stroke-linecap:round; stroke-linejoin:round; stroke-width:1.02px;"/><polyline points="289.81 116.48 290.83 116.48 290.83 117.5" style="fill:none; stroke:#263238; stroke-linecap:round; stroke-linejoin:round; stroke-width:1.02px;"/><line x1="290.83" y1="119.47" x2="290.83" y2="165.75" style="fill:none; stroke:#263238; stroke-dasharray:0 0 1.97 1.97; stroke-linecap:round; stroke-linejoin:round; stroke-width:1.02px;"/><rect x="236.57" y="124.67" width="43.95" height="34.9" style="fill:#fff; stroke:#263238; stroke-linecap:round; stroke-linejoin:round; stroke-width:1.02px;"/><line x1="233.99" y1="122.08" x2="218.91" y2="110.45" style="fill:none; stroke:#263238; stroke-linecap:round; stroke-linejoin:round; stroke-width:1.02px;"/><line x1="283.54" y1="161.29" x2="296.47" y2="172.49" style="fill:none; stroke:#263238; stroke-linecap:round; stroke-linejoin:round; stroke-width:1.02px;"/><polyline points="218.31 114.28 217.87 109.33 223.04 109.33" style="fill:none; stroke:#263238; stroke-linecap:round; stroke-linejoin:round; stroke-width:1.02px;"/><polyline points="296.82 167.81 297.72 173.21 291.42 173.44" style="fill:none; stroke:#263238; stroke-linecap:round; stroke-linejoin:round; stroke-width:1.02px;"/><rect x="313.61" y="299.36" width="21.34" height="7.7" style="fill:#263238; stroke-width:0px;"/><polygon points="343.62 303.2 329.94 295.3 329.94 311.1 343.62 303.2" style="fill:#263238; stroke-width:0px;"/><rect x="242.21" y="246.25" width="62.94" height="122.84" rx="6.93" ry="6.93" style="fill:#263238; stroke:#263238; stroke-linecap:round; stroke-linejoin:round; stroke-width:.83px;"/><rect x="245.01" y="254.59" width="57.35" height="107.2" style="fill:#fff; stroke:#263238; stroke-linecap:round; stroke-linejoin:round; stroke-width:.83px;"/><path d="M291.73,386.01l4.39-17.02c.47-1.84.71-3.72.71-5.62v-20.41c.08-.26.13-.53.13-.81,0-1.78-1.63-3.23-3.64-3.23-1.05,0-1.99.4-2.66,1.04-.16-1.65-1.7-2.96-3.61-2.96-1.3,0-2.42.6-3.07,1.51-.19-1.63-1.72-2.9-3.6-2.9-1.3,0-2.43.6-3.07,1.51,0-2.7-.05-15.65-.45-16.71-1.32-3.41-7.97-1.86-6.81,1.77v29.94c0-2.1-1.56-4.87-2.21-6.91-.61-1.91-1.04-3.99-2.24-5.7-2.06-2.93-5.69-1.32-5.48,1.75.18,2.69,2.12,4.81,3.17,7.24,1.94,4.51.78,9.21,2.61,13.73.52,1.27,3.94,6.79,5.06,8.3,1.14,1.53,2.35,5.54,2.35,5.54l-1.7,9.94" style="fill:#fff; stroke:#263238; stroke-linecap:round; stroke-linejoin:round; stroke-width:1.02px;"/><line x1="273.73" y1="310.1" x2="273.73" y2="315.7" style="fill:none; stroke:#263238; stroke-linecap:round; stroke-linejoin:round; stroke-width:1.02px;"/><line x1="280.03" y1="320.94" x2="284.58" y2="320.94" style="fill:none; stroke:#263238; stroke-linecap:round; stroke-linejoin:round; stroke-width:1.02px;"/><line x1="261.14" y1="320.94" x2="265.69" y2="320.94" style="fill:none; stroke:#263238; stroke-linecap:round; stroke-linejoin:round; stroke-width:1.02px;"/><line x1="267.44" y1="315" x2="269.19" y2="317.79" style="fill:none; stroke:#263238; stroke-linecap:round; stroke-linejoin:round; stroke-width:1.02px;"/><line x1="277.93" y1="318.14" x2="280.38" y2="315" style="fill:none; stroke:#263238; stroke-linecap:round; stroke-linejoin:round; stroke-width:1.02px;"/><rect x="247.15" y="296.11" width="53.17" height="6.65" style="fill:none; stroke:#263238; stroke-linecap:round; stroke-linejoin:round; stroke-width:1.02px;"/><rect x="248.9" y="260.43" width="25.54" height="30.43" style="fill:none; stroke:#263238; stroke-linecap:round; stroke-linejoin:round; stroke-width:1.02px;"/><line x1="248.9" y1="260.43" x2="274.43" y2="290.86" style="fill:none; stroke:#263238; stroke-linecap:round; stroke-linejoin:round; stroke-width:1.02px;"/><polyline points="248.2 349.63 248.2 306.25 299.97 306.25 299.97 349.28" style="fill:none; stroke:#263238; stroke-linecap:round; stroke-linejoin:round; stroke-width:1.02px;"/><rect x="348.06" y="246.25" width="62.94" height="122.84" rx="6.93" ry="6.93" style="fill:#263238; stroke:#263238; stroke-linecap:round; stroke-linejoin:round; stroke-width:.83px;"/><rect x="350.86" y="254.59" width="57.35" height="107.2" style="fill:#fff; stroke:#263238; stroke-linecap:round; stroke-linejoin:round; stroke-width:.83px;"/><rect x="353.84" y="259.73" width="51.77" height="56.67" style="fill:none; stroke:#263238; stroke-linecap:round; stroke-linejoin:round; stroke-width:1.02px;"/><line x1="353.84" y1="321.64" x2="405.61" y2="321.64" style="fill:none; stroke:#263238; stroke-linecap:round; stroke-linejoin:round; stroke-width:1.02px;"/><line x1="353.84" y1="325.84" x2="405.61" y2="325.84" style="fill:none; stroke:#263238; stroke-linecap:round; stroke-linejoin:round; stroke-width:1.02px;"/><line x1="353.84" y1="330.04" x2="405.61" y2="330.04" style="fill:none; stroke:#263238; stroke-linecap:round; stroke-linejoin:round; stroke-width:1.02px;"/><line x1="353.84" y1="334.24" x2="405.61" y2="334.24" style="fill:none; stroke:#263238; stroke-linecap:round; stroke-linejoin:round; stroke-width:1.02px;"/><line x1="353.84" y1="338.43" x2="405.61" y2="338.43" style="fill:none; stroke:#263238; stroke-linecap:round; stroke-linejoin:round; stroke-width:1.02px;"/><line x1="353.84" y1="342.63" x2="405.61" y2="342.63" style="fill:none; stroke:#263238; stroke-linecap:round; stroke-linejoin:round; stroke-width:1.02px;"/><line x1="353.84" y1="346.83" x2="405.61" y2="346.83" style="fill:none; stroke:#263238; stroke-linecap:round; stroke-linejoin:round; stroke-width:1.02px;"/><line x1="353.84" y1="316.4" x2="405.61" y2="259.73" style="fill:none; stroke:#263238; stroke-linecap:round; stroke-linejoin:round; stroke-width:1.02px;"/><rect x="348.06" y="105.24" width="62.94" height="122.84" rx="6.93" ry="6.93" style="fill:#263238; stroke:#263238; stroke-linecap:round; stroke-linejoin:round; stroke-width:.83px;"/><rect x="350.86" y="113.58" width="57.35" height="107.2" style="fill:#fff; stroke:#263238; stroke-linecap:round; stroke-linejoin:round; stroke-width:.83px;"/><polyline points="284.65 242.59 284.65 209.92 330.62 209.92" style="fill:none; stroke:#263238; stroke-linecap:round; stroke-linejoin:round; stroke-width:1.02px;"/><polygon points="329.12 215.02 337.96 209.92 329.12 204.82 329.12 215.02" style="fill:#263238; stroke-width:0px;"/><line x1="378.37" y1="241.73" x2="378.37" y2="216.65" style="fill:none; stroke:#263238; stroke-linecap:round; stroke-linejoin:round; stroke-width:1.02px;"/><polygon points="383.47 218.15 378.37 209.31 373.27 218.15 383.47 218.15" style="fill:#263238; stroke-width:0px;"/><line x1="354.67" y1="380.27" x2="377.86" y2="380.27" style="fill:none; stroke:#263238; stroke-linecap:round; stroke-linejoin:round; stroke-width:1.02px;"/><line x1="354.67" y1="385.49" x2="377.86" y2="385.49" style="fill:none; stroke:#263238; stroke-linecap:round; stroke-linejoin:round; stroke-width:1.02px;"/><line x1="354.67" y1="390.7" x2="377.86" y2="390.7" style="fill:none; stroke:#263238; stroke-linecap:round; stroke-linejoin:round; stroke-width:1.02px;"/><line x1="298.44" y1="380.27" x2="321.63" y2="380.27" style="fill:none; stroke:#263238; stroke-linecap:round; stroke-linejoin:round; stroke-width:1.02px;"/><line x1="298.44" y1="385.49" x2="321.63" y2="385.49" style="fill:none; stroke:#263238; stroke-linecap:round; stroke-linejoin:round; stroke-width:1.02px;"/><line x1="298.44" y1="390.7" x2="321.63" y2="390.7" style="fill:none; stroke:#263238; stroke-linecap:round; stroke-linejoin:round; stroke-width:1.02px;"/><line x1="292.06" y1="220.27" x2="315.25" y2="220.27" style="fill:none; stroke:#263238; stroke-linecap:round; stroke-linejoin:round; stroke-width:1.02px;"/><line x1="292.06" y1="225.48" x2="315.25" y2="225.48" style="fill:none; stroke:#263238; stroke-linecap:round; stroke-linejoin:round; stroke-width:1.02px;"/><line x1="292.06" y1="230.7" x2="315.25" y2="230.7" style="fill:none; stroke:#263238; stroke-linecap:round; stroke-linejoin:round; stroke-width:1.02px;"/><line x1="309.45" y1="157.08" x2="332.64" y2="157.08" style="fill:none; stroke:#263238; stroke-linecap:round; stroke-linejoin:round; stroke-width:1.02px;"/><line x1="309.45" y1="162.3" x2="332.64" y2="162.3" style="fill:none; stroke:#263238; stroke-linecap:round; stroke-linejoin:round; stroke-width:1.02px;"/><line x1="309.45" y1="167.51" x2="332.64" y2="167.51" style="fill:none; stroke:#263238; stroke-linecap:round; stroke-linejoin:round; stroke-width:1.02px;"/><line x1="225.97" y1="175.05" x2="249.16" y2="175.05" style="fill:none; stroke:#263238; stroke-linecap:round; stroke-linejoin:round; stroke-width:1.02px;"/><line x1="225.97" y1="180.27" x2="249.16" y2="180.27" style="fill:none; stroke:#263238; stroke-linecap:round; stroke-linejoin:round; stroke-width:1.02px;"/><line x1="225.97" y1="185.48" x2="249.16" y2="185.48" style="fill:none; stroke:#263238; stroke-linecap:round; stroke-linejoin:round; stroke-width:1.02px;"/></g><g id="d"><path d="M112.84,252.03s0-4.33-6.06-10.39c-6.06-6.06-9.95-9.52-9.95-9.52,0,0-3.03,9.95,2.6,16.01,5.63,6.06,13.41,11.68,13.41,11.68v-7.79Z" style="fill:#c6ff00; stroke-width:0px;"/><path d="M104.05,279.06s0-4.33-6.06-10.39c-6.06-6.06-9.95-9.52-9.95-9.52,0,0-3.03,9.95,2.6,16.01,5.63,6.06,13.41,11.68,13.41,11.68v-7.79Z" style="fill:#c6ff00; stroke-width:0px;"/><path d="M112.46,259.4s.46-4.3,7.12-9.69c6.66-5.38,10.9-8.42,10.9-8.42,0,0,1.96,10.22-4.27,15.65-6.23,5.43-14.57,10.2-14.57,10.2l.82-7.75Z" style="fill:#c6ff00; stroke-width:0px;"/><path d="M101.84,291.32s.91-4.23,8.1-8.89c7.19-4.65,11.73-7.22,11.73-7.22,0,0,.88,10.37-5.89,15.11-6.77,4.74-15.57,8.61-15.57,8.61l1.63-7.62Z" style="fill:#c6ff00; stroke-width:0px;"/><path d="M103.83,326.12s0-4.33,6.06-10.39c6.06-6.06,9.95-9.52,9.95-9.52,0,0,3.03,9.95-2.6,16.01-5.63,6.06-13.41,11.68-13.41,11.68v-7.79Z" style="fill:#c6ff00; stroke-width:0px;"/><path d="M103.73,334.61s.61-4.28-4.52-11.14c-5.14-6.86-8.5-10.84-8.5-10.84,0,0-4.41,9.42.29,16.22s11.62,13.47,11.62,13.47l1.11-7.71Z" style="fill:#c6ff00; stroke-width:0px;"/><path d="M97.76,359.79s0-4.33,6.06-10.39c6.06-6.06,9.95-9.52,9.95-9.52,0,0,3.03,9.95-2.6,16.01-5.63,6.06-13.41,11.68-13.41,11.68v-7.79Z" style="fill:#c6ff00; stroke-width:0px;"/><path d="M101.8,382.61s-1.1-4.19,3.23-11.58c4.33-7.4,7.22-11.73,7.22-11.73,0,0,5.45,8.86,1.54,16.15-3.91,7.29-10.02,14.7-10.02,14.7l-1.97-7.54Z" style="fill:#c6ff00; stroke-width:0px;"/><path d="M113.39,250.93c-.35,4.63-.88,9.41-1.66,13.44-2.39,12.37-8.38,20.36-10.78,31.53-2.39,11.18,4.48,25.57,2.64,39.93-1.84,14.35-7.43,22.34-5.83,31.92,1.6,9.58,9.98,35.52,9.98,35.52" style="fill:none; stroke:#263238; stroke-linecap:round; stroke-linejoin:round; stroke-width:1.03px;"/><line x1="112.4" y1="262.28" x2="118.93" y2="257.27" style="fill:none; stroke:#263238; stroke-linecap:round; stroke-linejoin:round; stroke-width:1.03px;"/><line x1="112.7" y1="256.51" x2="109.97" y2="251.65" style="fill:none; stroke:#263238; stroke-linecap:round; stroke-linejoin:round; stroke-width:1.03px;"/><path d="M101.31,295.38s5.47-4.1,11.08-8.2" style="fill:none; stroke:#263238; stroke-linecap:round; stroke-linejoin:round; stroke-width:1.03px;"/><path d="M104.05,286.85s-4.55-8.93-9.72-14.85" style="fill:none; stroke:#263238; stroke-linecap:round; stroke-linejoin:round; stroke-width:1.03px;"/><path d="M104.05,332.28s4.25-8.35,11.69-15.64" style="fill:none; stroke:#263238; stroke-linecap:round; stroke-linejoin:round; stroke-width:1.03px;"/><path d="M102.99,338.35s-2.73-6.53-5.92-11.24c-3.19-4.71-3.64-5.31-3.64-5.31" style="fill:none; stroke:#263238; stroke-linecap:round; stroke-linejoin:round; stroke-width:1.03px;"/><path d="M97.76,367.74s2.19-5.55,4.92-9.95c2.73-4.4,6.38-8.35,6.38-8.35" style="fill:none; stroke:#263238; stroke-linecap:round; stroke-linejoin:round; stroke-width:1.03px;"/><path d="M103.78,390.14s-.64-5.18,1.64-9.59c2.28-4.4,4.86-10.17,5.92-12.45" style="fill:none; stroke:#263238; stroke-linecap:round; stroke-linejoin:round; stroke-width:1.03px;"/><path d="M73.17,309.84s-.47-2.71,2.67-7.17c3.14-4.46,5.21-7.05,5.21-7.05,0,0,2.98,5.91.11,10.32-2.87,4.41-7.14,8.78-7.14,8.78l-.85-4.88Z" style="fill:#c6ff00; stroke-width:0px;"/><path d="M81.61,325.84s-.47-2.71,2.67-7.17c3.14-4.46,5.21-7.05,5.21-7.05,0,0,2.98,5.91.11,10.32-2.87,4.41-7.14,8.78-7.14,8.78l-.85-4.88Z" style="fill:#c6ff00; stroke-width:0px;"/><path d="M74.21,314.43s-.75-2.65-5.52-5.3c-4.76-2.65-7.75-4.09-7.75-4.09,0,0-.12,6.62,4.38,9.35,4.5,2.73,10.25,4.81,10.25,4.81l-1.36-4.77Z" style="fill:#c6ff00; stroke-width:0px;"/><path d="M84.33,333.29s-1.03-2.55-6.04-4.69c-5.02-2.14-8.14-3.26-8.14-3.26,0,0,.58,6.6,5.34,8.84s10.7,3.71,10.7,3.71l-1.85-4.6Z" style="fill:#c6ff00; stroke-width:0px;"/><path d="M86.86,355.32s-.47-2.71-4.93-5.85c-4.46-3.14-7.27-4.89-7.27-4.89,0,0-.82,6.57,3.37,9.76,4.19,3.19,9.68,5.87,9.68,5.87l-.85-4.88Z" style="fill:#c6ff00; stroke-width:0px;"/><path d="M87.84,360.64s-.85-2.62,1.63-7.48c2.48-4.86,4.15-7.72,4.15-7.72,0,0,3.79,5.43,1.58,10.2-2.21,4.77-5.82,9.71-5.82,9.71l-1.53-4.71Z" style="fill:#c6ff00; stroke-width:0px;"/><path d="M95.45,382.53s.31-2.74,4.58-6.13c4.27-3.39,6.98-5.3,6.98-5.3,0,0,1.19,6.51-2.8,9.93-4,3.42-9.33,6.41-9.33,6.41l.57-4.92Z" style="fill:#c6ff00; stroke-width:0px;"/><path d="M94.32,375.78s-.47-2.71-4.93-5.85c-4.46-3.14-7.27-4.89-7.27-4.89,0,0-.82,6.57,3.37,9.76,4.19,3.19,9.68,5.87,9.68,5.87l-.85-4.88Z" style="fill:#c6ff00; stroke-width:0px;"/><path d="M94.26,390.53s.23-2.74-3.28-6.91c-3.52-4.17-5.8-6.57-5.8-6.57,0,0-2.46,6.15.79,10.29,3.24,4.14,7.88,8.13,7.88,8.13l.42-4.94Z" style="fill:#c6ff00; stroke-width:0px;"/><path d="M72.7,309.21c.72,2.86,1.57,5.81,2.5,8.25,2.84,7.5,7.47,11.85,10.18,18.6s-.03,16.52,2.68,25.32c2.71,8.8,7.08,13.2,7.12,19.38.04,6.18-2.4,23.36-2.4,23.36" style="fill:none; stroke:#263238; stroke-linecap:round; stroke-linejoin:round; stroke-width:1.03px;"/><line x1="74.56" y1="316.22" x2="69.92" y2="313.79" style="fill:none; stroke:#263238; stroke-linecap:round; stroke-linejoin:round; stroke-width:1.03px;"/><line x1="73.74" y1="312.64" x2="74.93" y2="309.29" style="fill:none; stroke:#263238; stroke-linecap:round; stroke-linejoin:round; stroke-width:1.03px;"/><path d="M85.1,335.78s-3.87-1.98-7.84-3.94" style="fill:none; stroke:#263238; stroke-linecap:round; stroke-linejoin:round; stroke-width:1.03px;"/><path d="M82.46,330.72s1.89-6.09,4.48-10.37" style="fill:none; stroke:#263238; stroke-linecap:round; stroke-linejoin:round; stroke-width:1.03px;"/><path d="M87.39,359.21s-3.57-4.78-9.03-8.54" style="fill:none; stroke:#263238; stroke-linecap:round; stroke-linejoin:round; stroke-width:1.03px;"/><path d="M88.72,362.9s1-4.39,2.49-7.69c1.49-3.3,1.71-3.73,1.71-3.73" style="fill:none; stroke:#263238; stroke-linecap:round; stroke-linejoin:round; stroke-width:1.03px;"/><path d="M94.97,385.45s3.07-3.77,4.99-5.18c1.91-1.41,3.24-2.82,3.24-2.82" style="fill:none; stroke:#263238; stroke-linecap:round; stroke-linejoin:round; stroke-width:1.03px;"/><path d="M95.18,380.76s-1.98-3.24-4.17-5.71c-2.19-2.46-4.91-4.54-4.91-4.54" style="fill:none; stroke:#263238; stroke-linecap:round; stroke-linejoin:round; stroke-width:1.03px;"/><path d="M93.84,395.47s-.16-3.32-2.07-5.83c-1.91-2.51-4.15-5.85-5.06-7.16" style="fill:none; stroke:#263238; stroke-linecap:round; stroke-linejoin:round; stroke-width:1.03px;"/><path d="M80.41,401.13h39.63v29.81c0,1.68-1.36,3.04-3.04,3.04h-33.55c-1.68,0-3.04-1.36-3.04-3.04v-29.81h0Z" style="fill:#263238; stroke-width:0px;"/><path d="M119.69,406.3h-39.29c-1.71,0-3.1-1.39-3.1-3.1h0c0-1.71,1.39-3.1,3.1-3.1h39.29c1.71,0,3.1,1.39,3.1,3.1h0c0,1.71-1.39,3.1-3.1,3.1Z" style="fill:#263238; stroke-width:0px;"/></g><g id="e"><path d="M131.96,424.01s-2.15,8.27-2.15,10.37-.52,3.49,4.02,4.36c4.54.87,7.51.35,8.21-1.75.7-2.09,1.22-12.57,1.22-12.57l-11-2.1-.29,1.68Z" style="fill:#fff; stroke:#263238; stroke-linecap:round; stroke-linejoin:round; stroke-width:1.03px;"/><path d="M142.03,437c.1-.31.2-.83.3-1.46-4.67.15-10.25-.63-12.52-.99-.02,2-.39,3.34,4.02,4.19,4.54.87,7.51.35,8.21-1.75Z" style="fill:#fff; stroke:#263238; stroke-linecap:round; stroke-linejoin:round; stroke-width:1.03px;"/><path d="M238.05,424.78s3.49,1.22,8.55,2.79c5.06,1.57,15.36,3.32,16.41,3.49,1.05.17,1.05,2.27.17,3.14-.87.87-5.41,3.49-10.82,4.89-5.41,1.4-23.74,2.62-25.31,1.57-1.32-.88-.87-9.43-.35-11.35.52-1.92,11.35-4.54,11.35-4.54Z" style="fill:#fff; stroke:#263238; stroke-linecap:round; stroke-linejoin:round; stroke-width:1.03px;"/><path d="M263.19,434.21c.58-.58.77-1.71.52-2.45-3.54,2.82-10.6,5.92-17.8,6.64-7.22.72-16.57.13-19.59-.09.13,1.2.36,2.11.74,2.36,1.57,1.05,19.9-.17,25.31-1.57s9.95-4.02,10.82-4.89Z" style="fill:#fff; stroke:#263238; stroke-linecap:round; stroke-linejoin:round; stroke-width:1.03px;"/><path d="M153.6,272.57s-3.04,18.25-.68,28.39c0,0-4.39,40.23-5.07,58.14,0,0-9.46,31.44-10.82,41.24-1.35,9.8-5.07,23.66-5.07,23.66,0,0,2.03,1.35,6.76,2.37,4.73,1.01,5.41-2.7,5.41-2.7,0,0,26.03-59.83,28.06-68.62,2.03-8.79,8.79-40.23,8.79-40.23l28.06,51.38s1.35,17.58,5.41,27.72c4.06,10.14,11.83,38.2,11.83,38.2,0,0,5.07.34,9.13-1.01,4.06-1.35,4.06-3.38,4.06-3.38,0,0-6.08-22.65-6.08-30.08s-2.37-32.79-4.06-39.89c-1.69-7.1-13.18-44.28-14.87-48.34-1.69-4.06-5.41-16.9-5.41-16.9l-2.37-19.94s-29.07,8.11-53.07,0Z" style="fill:#263238; stroke:#263238; stroke-linecap:round; stroke-linejoin:round; stroke-width:1.03px;"/><path d="M175.05,186.42s-1.55-3.37-1.55-5.44-1.04-11.91-1.04-11.91c0,0,15.01-27.18,19.15-32.36,4.14-5.18,9.06-9.06,9.06-9.06,0,0,10.1-2.07,12.17-2.07s4.4-1.04,4.4-2.33-3.37-1.04-5.44-1.04-4.66-1.81-4.66-1.81c0,0,3.37-9.65,4.4-13.46.54-2.01,2.33-6.21,1.04-6.21s-1.55,1.04-2.33,2.59c-.78,1.55-4.14,6.73-4.14,6.73l.78-11.39s-1.04-1.55-1.81.26c-.78,1.81-2.33,7.25-2.59,8.54-.26,1.29-1.3,2.46-1.3,2.46l-1.04-8.5s-1.76-1.87-2.07,1.37c-.17,1.8,0,7.77,0,8.8s-1.04-1.47-1.04-1.47c0,0-.61-2.81-1.29-3.19-.78-.44-1.29.52-1.04,2.59.26,2.07-.26,10.61-.26,10.61,0,0-1.55,2.07-3.88,4.92-2.33,2.85-20.97,19.67-27.96,25.11-6.99,5.44-7.77,9.84-8.8,15.27-1.04,5.44-2.07,37.02-2.07,48.4s1.04,29.51,1.81,35.46c.78,5.95-.52,13.72-1.55,17.86-1.04,4.14,0,7.77,2.85,9.84,2.85,2.07,15.01,3.36,25.11,3.36s20.45-1.04,23.56-2.07c3.11-1.04,5.44-1.29,5.44-5.44s-2.07-12.42-2.07-14.75,4.14-26.4,4.14-26.4c0,0,26.4,8.02,31.32,6.21,4.92-1.81,46.07-40.64,46.07-40.64,0,0,6.47-2.59,9.84-3.11,3.36-.52,8.54-2.85,8.8-3.62.26-.78-.52-.52-2.59-.52s-5.44,1.04-5.44,1.04c0,0,7.07-4.47,8.28-4.92.84-.31,2.3-2.22.26-1.81-2.55.51-8.8,2.33-8.8,2.33l8.28-5.18s1.29-2.07-.26-2.07-9.32,4.66-9.32,4.66l6.05-5.61c1.17-1.09.19-2.61-1.19-1.81-.03.01-6.94,3.97-6.97,3.98-2.59,1.55-5.4,2.41-5.4,2.41l-1.29.78s.52-2.85.52-4.14-.78-4.66-2.59-4.92c-1.81-.26-.26,2.33-.26,3.62s-2.59,8.02-2.59,9.06v3.11s-8.8,7.77-16.83,11.91c-8.02,4.14-26.14,17.86-26.14,17.86,0,0-20.71-10.61-25.37-14.5-4.66-3.88-9.84-8.54-15.01-12.68-5.18-4.14-8.54-5.95-8.54-5.95l-16.83-.78Z" style="fill:#fff; stroke:#263238; stroke-linecap:round; stroke-linejoin:round; stroke-width:1.03px;"/><path d="M261.55,205.65c-8.79,5.62-20.75,14.68-20.75,14.68,0,0-20.71-10.61-25.37-14.5-4.66-3.88-9.84-8.54-15.01-12.68-5.18-4.14-8.54-5.95-8.54-5.95l-16.83-.78s-1.55-3.36-1.55-5.44-1.04-11.91-1.04-11.91c0,0,7.75-14.03,13.65-23.85-.16-.16-.31-.32-.47-.48-2.89-2.89-6.9-4.45-10.41-5.3-4.88,4.33-9.73,8.5-12.61,10.74-6.99,5.44-7.77,9.84-8.8,15.27-1.04,5.44-2.07,37.02-2.07,48.4s1.04,29.51,1.81,35.46c.78,5.95-.52,13.72-1.55,17.86-1.04,4.14,0,7.77,2.85,9.84,2.85,2.07,15.01,3.36,25.11,3.36s20.45-1.04,23.56-2.07c3.11-1.04,5.44-1.29,5.44-5.44s-2.07-12.42-2.07-14.75,4.14-26.4,4.14-26.4c0,0,26.4,8.02,31.32,6.21,2.63-.97,15.6-12.5,27.11-23.04-2.35-4.05-5.35-7.11-7.91-9.24Z" style="fill:#c6ff00; stroke:#263238; stroke-linecap:round; stroke-linejoin:round; stroke-width:1.03px;"/><path d="M203,197.76s-10.41,2.84-11.05,10.73" style="fill:none; stroke:#263238; stroke-linecap:round; stroke-linejoin:round; stroke-width:1.03px;"/><path d="M211.03,231.72s-12.13-3.34-18.44-9.65" style="fill:none; stroke:#263238; stroke-linecap:round; stroke-linejoin:round; stroke-width:1.03px;"/><path d="M204.26,229.95s-10.41,2.84-19.88-.95" style="fill:none; stroke:#263238; stroke-linecap:round; stroke-linejoin:round; stroke-width:1.03px;"/><path d="M160.3,213.23s3.28,22.97,19.14,34.46" style="fill:none; stroke:#263238; stroke-linecap:round; stroke-linejoin:round; stroke-width:1.03px;"/><path d="M184.45,253.95c1.2.34,2.45.62,3.74.85" style="fill:none; stroke:#263238; stroke-linecap:round; stroke-linejoin:round; stroke-width:1.03px;"/><path d="M160.3,236.2s5.87,9.74,17.74,15.35" style="fill:none; stroke:#263238; stroke-linecap:round; stroke-linejoin:round; stroke-width:1.03px;"/><path d="M157.23,185.14s10.1-5.05,16.1-.32" style="fill:none; stroke:#263238; stroke-linecap:round; stroke-linejoin:round; stroke-width:1.03px;"/><path d="M160.07,162.1s9.15,3.16,11.68,9.47" style="fill:none; stroke:#263238; stroke-linecap:round; stroke-linejoin:round; stroke-width:1.03px;"/><path d="M166.07,159.89s3.16,2.21,4.42,6.94" style="fill:none; stroke:#263238; stroke-linecap:round; stroke-linejoin:round; stroke-width:1.03px;"/><path d="M209.21,145s1.55,8.8,1.55,11.13-2.59,3.11-1.55,6.21,3.37,3.36,2.85,5.95c-.52,2.59-3.88,4.14-3.88,4.14,0,0-1.81,7.25-3.62,10.35-1.81,3.11-8.54.78-8.54.78l-.52,8.28s-2.33,3.37-10.87,2.33c-8.54-1.04-14.24-3.88-14.24-3.88l-1.29-1.81s6.73-3.36,6.99-5.69c.26-2.33,0-7.77,0-15.53s-2.33-22.78,10.35-26.66c12.68-3.88,22.78,4.4,22.78,4.4Z" style="fill:#fff; stroke:#263238; stroke-linecap:round; stroke-linejoin:round; stroke-width:1.03px;"/><path d="M193.4,166.25s-2.92-6.7-6.19-2.87c-2.12,2.49.52,9.84,1.81,10.87,1.29,1.04,4.14.52,4.14.52,0,0-4.14,4.14-8.54,4.14s-8.28-4.14-11.13-11.39c-2.85-7.25-4.92-19.67-1.81-27.18,3.11-7.51,19.15-7.77,22.78-7.77s9.06,2.07,9.06,2.07c0,0,11.65-1.04,11.91,2.85.26,3.88-1.55,4.14-1.55,4.14,0,0,8.28,4.4,4.4,6.21-3.88,1.81-9.84.78-13.72.78s-5.18,2.85-5.18,2.85c0,0,3.62,2.33,2.33,3.37-1.29,1.04-5.95,3.11-6.47,4.92-.52,1.81,1.81,4.66.26,5.95-1.55,1.29-2.09.54-2.09.54Z" style="fill:#263238; stroke:#263238; stroke-linecap:round; stroke-linejoin:round; stroke-width:1.03px;"/><path d="M207.8,163.12c0,1.32-.54,2.39-1.21,2.39s-1.21-1.07-1.21-2.39.54-2.39,1.21-2.39,1.21,1.07,1.21,2.39Z" style="fill:#263238; stroke-width:0px;"/><path d="M203.56,160.07s1.67-3.91,4.32-1.81" style="fill:none; stroke:#263238; stroke-linecap:round; stroke-linejoin:round; stroke-width:1.03px;"/><polyline points="180.98 314.83 178.61 310.43 166.78 307.39" style="fill:none; stroke:#fff; stroke-linecap:round; stroke-linejoin:round; stroke-width:1.03px;"/></g></svg>