<svg viewBox="0 0 256 256" xmlns="http://www.w3.org/2000/svg" xmlns:xlink="http://www.w3.org/1999/xlink"><linearGradient id="a" gradientUnits="userSpaceOnUse" x1="-21.55" x2="278.89" y1="174.53" y2="81.36"><stop offset="0" stop-color="#d8a430"/><stop offset=".5" stop-color="#ef7918"/><stop offset="1" stop-color="#93f"/></linearGradient><linearGradient id="b" gradientTransform="matrix(.99640469 .08472132 -.08472132 .99640469 102.64 -56.23)" x1="-286.98" x2="-27.74" xlink:href="#a" y1="125.16" y2="44.76"/><linearGradient id="c" gradientTransform="matrix(.99640469 .08472132 -.08472132 .99640469 102.64 -56.23)" x1="-282.56" x2="-23.33" xlink:href="#a" y1="128.61" y2="48.22"/><linearGradient id="d" gradientTransform="matrix(.99640469 .08472132 -.08472132 .99640469 102.64 -56.23)" x1="-278.16" x2="-18.92" xlink:href="#a" y1="132.02" y2="51.63"/><linearGradient id="e" gradientTransform="matrix(.99640469 .08472132 -.08472132 .99640469 102.64 -56.23)" x1="-273.78" x2="-14.54" xlink:href="#a" y1="135.38" y2="54.99"/><linearGradient id="f" gradientTransform="matrix(.99640469 .08472132 -.08472132 .99640469 102.64 -56.23)" x1="-269.4" x2="-10.16" xlink:href="#a" y1="138.69" y2="58.3"/><linearGradient id="g" gradientTransform="matrix(.99640469 .08472132 -.08472132 .99640469 102.64 -56.23)" x1="-265.05" x2="-5.81" xlink:href="#a" y1="141.96" y2="61.56"/><linearGradient id="h" gradientTransform="matrix(.99640469 .08472132 -.08472132 .99640469 102.64 -56.23)" x1="-260.7" x2="-1.46" xlink:href="#a" y1="145.17" y2="64.77"/><linearGradient id="i" gradientTransform="matrix(.99640469 .08472132 -.08472132 .99640469 102.64 -56.23)" x1="-256.38" x2="2.86" xlink:href="#a" y1="148.34" y2="67.94"/><linearGradient id="j" gradientTransform="matrix(.99640469 .08472132 -.08472132 .99640469 102.64 -56.23)" x1="-252.06" x2="7.18" xlink:href="#a" y1="151.45" y2="71.06"/><linearGradient id="k" gradientTransform="matrix(.99640469 .08472132 -.08472132 .99640469 102.64 -56.23)" x1="-247.77" x2="11.47" xlink:href="#a" y1="154.52" y2="74.13"/><linearGradient id="l" gradientTransform="matrix(.99640469 .08472132 -.08472132 .99640469 102.64 -56.23)" x1="-243.48" x2="15.75" xlink:href="#a" y1="157.55" y2="77.15"/><linearGradient id="m" gradientTransform="matrix(.99640469 .08472132 -.08472132 .99640469 102.64 -56.23)" x1="-239.22" x2="20.02" xlink:href="#a" y1="160.52" y2="80.13"/><linearGradient id="n" gradientTransform="matrix(.99640469 .08472132 -.08472132 .99640469 102.64 -56.23)" x1="-234.96" x2="24.28" xlink:href="#a" y1="163.45" y2="83.05"/><linearGradient id="o" gradientTransform="matrix(.99640469 .08472132 -.08472132 .99640469 102.64 -56.23)" x1="-230.73" x2="28.51" xlink:href="#a" y1="166.33" y2="85.93"/><linearGradient id="p" gradientTransform="matrix(.99640469 .08472132 -.08472132 .99640469 102.64 -56.23)" x1="-226.5" x2="32.74" xlink:href="#a" y1="169.16" y2="88.77"/><linearGradient id="q" gradientTransform="matrix(.99640469 .08472132 -.08472132 .99640469 102.64 -56.23)" x1="-222.29" x2="36.95" xlink:href="#a" y1="171.94" y2="91.55"/><linearGradient id="r" gradientTransform="matrix(.99640469 .08472132 -.08472132 .99640469 102.64 -56.23)" x1="-218.1" x2="41.14" xlink:href="#a" y1="174.68" y2="94.28"/><linearGradient id="s" gradientTransform="matrix(.99640469 .08472132 -.08472132 .99640469 102.64 -56.23)" x1="-213.92" x2="45.32" xlink:href="#a" y1="177.37" y2="96.97"/><linearGradient id="t" gradientTransform="matrix(.99640469 .08472132 -.08472132 .99640469 102.64 -56.23)" x1="-209.76" x2="49.48" xlink:href="#a" y1="180" y2="99.61"/><linearGradient id="u" gradientTransform="matrix(.99640469 .08472132 -.08472132 .99640469 102.64 -56.23)" x1="-205.61" x2="53.63" xlink:href="#a" y1="182.59" y2="102.2"/><linearGradient id="v" gradientTransform="matrix(.99640469 .08472132 -.08472132 .99640469 102.64 -56.23)" x1="-201.48" x2="57.76" xlink:href="#a" y1="185.13" y2="104.74"/><linearGradient id="w" gradientTransform="matrix(.99640469 .08472132 -.08472132 .99640469 102.64 -56.23)" x1="-197.36" x2="61.88" xlink:href="#a" y1="187.62" y2="107.22"/><linearGradient id="x" gradientTransform="matrix(.99640469 .08472132 -.08472132 .99640469 102.64 -56.23)" x1="-193.26" x2="65.98" xlink:href="#a" y1="190.06" y2="109.66"/><linearGradient id="y" gradientTransform="matrix(.99640469 .08472132 -.08472132 .99640469 102.64 -56.23)" x1="-189.17" x2="70.07" xlink:href="#a" y1="192.44" y2="112.05"/><linearGradient id="z" gradientTransform="matrix(.99640469 .08472132 -.08472132 .99640469 102.64 -56.23)" x1="-185.1" x2="74.14" xlink:href="#a" y1="194.78" y2="114.38"/><linearGradient id="A" gradientTransform="matrix(.99640469 .08472132 -.08472132 .99640469 102.64 -56.23)" x1="-181.05" x2="78.19" xlink:href="#a" y1="197.06" y2="116.67"/><linearGradient id="B" gradientTransform="matrix(.99640469 .08472132 -.08472132 .99640469 102.64 -56.23)" x1="-177.01" x2="82.23" xlink:href="#a" y1="199.29" y2="118.9"/><linearGradient id="C" gradientTransform="matrix(.99640469 .08472132 -.08472132 .99640469 102.64 -56.23)" x1="-172.99" x2="86.25" xlink:href="#a" y1="201.47" y2="121.07"/><linearGradient id="D" gradientTransform="matrix(.99640469 .08472132 -.08472132 .99640469 102.64 -56.23)" x1="-168.99" x2="90.25" xlink:href="#a" y1="203.59" y2="123.2"/><linearGradient id="E" gradientTransform="matrix(.99640469 .08472132 -.08472132 .99640469 102.64 -56.23)" x1="-165" x2="94.24" xlink:href="#a" y1="205.66" y2="125.26"/><linearGradient id="F" gradientTransform="matrix(.99640469 .08472132 -.08472132 .99640469 102.64 -56.23)" x1="-161.03" x2="98.21" xlink:href="#a" y1="207.67" y2="127.28"/><linearGradient id="G" gradientTransform="matrix(.99640469 .08472132 -.08472132 .99640469 102.64 -56.23)" x1="-157.08" x2="102.16" xlink:href="#a" y1="209.63" y2="129.23"/><linearGradient id="H" gradientTransform="matrix(.99640469 .08472132 -.08472132 .99640469 102.64 -56.23)" x1="-153.15" x2="106.09" xlink:href="#a" y1="211.53" y2="131.13"/><linearGradient id="I" gradientTransform="matrix(.99640469 .08472132 -.08472132 .99640469 102.64 -56.23)" x1="-149.23" x2="110.01" xlink:href="#a" y1="213.36" y2="132.97"/><linearGradient id="J" gradientTransform="matrix(.99640469 .08472132 -.08472132 .99640469 102.64 -56.23)" x1="-145.33" x2="113.91" xlink:href="#a" y1="215.15" y2="134.75"/><linearGradient id="K" gradientTransform="matrix(.99640469 .08472132 -.08472132 .99640469 102.64 -56.23)" x1="-141.46" x2="117.78" xlink:href="#a" y1="216.87" y2="136.47"/><linearGradient id="L" gradientTransform="matrix(.99640469 .08472132 -.08472132 .99640469 102.64 -56.23)" x1="-137.6" x2="121.64" xlink:href="#a" y1="218.53" y2="138.13"/><linearGradient id="M" gradientTransform="matrix(.99640469 .08472132 -.08472132 .99640469 102.64 -56.23)" x1="-133.76" x2="125.48" xlink:href="#a" y1="220.13" y2="139.73"/><linearGradient id="N" gradientTransform="matrix(.99640469 .08472132 -.08472132 .99640469 102.64 -56.23)" x1="-130.23" x2="129.01" xlink:href="#a" y1="220.7" y2="140.3"/><linearGradient id="O" gradientTransform="matrix(.99640469 .08472132 -.08472132 .99640469 102.64 -56.23)" x1="-126.96" x2="132.28" xlink:href="#a" y1="220.47" y2="140.07"/><linearGradient id="P" gradientTransform="matrix(.99640469 .08472132 -.08472132 .99640469 102.64 -56.23)" x1="-123.69" x2="135.55" xlink:href="#a" y1="220.24" y2="139.84"/><linearGradient id="Q" gradientTransform="matrix(.99640469 .08472132 -.08472132 .99640469 102.64 -56.23)" x1="-120.41" x2="138.83" xlink:href="#a" y1="220" y2="139.61"/><linearGradient id="R" gradientTransform="matrix(.99640469 .08472132 -.08472132 .99640469 102.64 -56.23)" x1="-117.14" x2="142.1" xlink:href="#a" y1="219.77" y2="139.38"/><linearGradient id="S" gradientTransform="matrix(.99640469 .08472132 -.08472132 .99640469 102.64 -56.23)" x1="-113.86" x2="145.38" xlink:href="#a" y1="219.54" y2="139.15"/><linearGradient id="T" gradientTransform="matrix(.99640469 .08472132 -.08472132 .99640469 102.64 -56.23)" x1="-110.59" x2="148.65" xlink:href="#a" y1="219.31" y2="138.92"/><linearGradient id="U" gradientTransform="matrix(.99640469 .08472132 -.08472132 .99640469 102.64 -56.23)" x1="-107.32" x2="151.92" xlink:href="#a" y1="219.08" y2="138.69"/><linearGradient id="V" gradientTransform="matrix(.99640469 .08472132 -.08472132 .99640469 102.64 -56.23)" x1="-104.04" x2="155.2" xlink:href="#a" y1="218.85" y2="138.45"/><linearGradient id="W" gradientTransform="matrix(.99640469 .08472132 -.08472132 .99640469 102.64 -56.23)" x1="-100.77" x2="158.47" xlink:href="#a" y1="218.62" y2="138.22"/><linearGradient id="X" gradientTransform="matrix(.99640469 .08472132 -.08472132 .99640469 102.64 -56.23)" x1="-97.5" x2="161.74" xlink:href="#a" y1="218.39" y2="137.99"/><linearGradient id="Y" gradientTransform="matrix(.99640469 .08472132 -.08472132 .99640469 102.64 -56.23)" x1="-94.22" x2="165.02" xlink:href="#a" y1="218.16" y2="137.76"/><linearGradient id="Z" gradientTransform="matrix(.99640469 .08472132 -.08472132 .99640469 102.64 -56.23)" x1="-90.95" x2="168.29" xlink:href="#a" y1="217.92" y2="137.53"/><linearGradient id="aa" gradientTransform="matrix(.99640469 .08472132 -.08472132 .99640469 102.64 -56.23)" x1="-87.68" x2="171.56" xlink:href="#a" y1="217.69" y2="137.3"/><linearGradient id="ab" gradientTransform="matrix(.99640469 .08472132 -.08472132 .99640469 102.64 -56.23)" x1="-84.4" x2="174.84" xlink:href="#a" y1="217.46" y2="137.07"/><linearGradient id="ac" gradientTransform="matrix(.99640469 .08472132 -.08472132 .99640469 102.64 -56.23)" x1="-81.13" x2="178.11" xlink:href="#a" y1="217.23" y2="136.83"/><linearGradient id="ad" gradientTransform="matrix(.99640469 .08472132 -.08472132 .99640469 102.64 -56.23)" x1="-77.86" x2="181.38" xlink:href="#a" y1="217" y2="136.6"/><linearGradient id="ae" gradientTransform="matrix(.99640469 .08472132 -.08472132 .99640469 102.64 -56.23)" x1="-74.58" x2="184.66" xlink:href="#a" y1="216.77" y2="136.37"/><linearGradient id="af" gradientTransform="matrix(.99640469 .08472132 -.08472132 .99640469 102.64 -56.23)" x1="-71.31" x2="187.93" xlink:href="#a" y1="216.53" y2="136.14"/><linearGradient id="ag" gradientTransform="matrix(.99640469 .08472132 -.08472132 .99640469 102.64 -56.23)" x1="-68.04" x2="191.2" xlink:href="#a" y1="216.3" y2="135.91"/><linearGradient id="ah" gradientTransform="matrix(.99640469 .08472132 -.08472132 .99640469 102.64 -56.23)" x1="-64.76" x2="194.48" xlink:href="#a" y1="216.07" y2="135.68"/><linearGradient id="ai" gradientTransform="matrix(.99640469 .08472132 -.08472132 .99640469 102.64 -56.23)" x1="-61.49" x2="197.75" xlink:href="#a" y1="215.84" y2="135.44"/><linearGradient id="aj" gradientTransform="matrix(.99640469 .08472132 -.08472132 .99640469 102.64 -56.23)" x1="-58.22" x2="201.02" xlink:href="#a" y1="215.61" y2="135.21"/><linearGradient id="ak" gradientTransform="matrix(.99640469 .08472132 -.08472132 .99640469 102.64 -56.23)" x1="-54.94" x2="204.3" xlink:href="#a" y1="215.37" y2="134.98"/><linearGradient id="al" gradientTransform="matrix(.99640469 .08472132 -.08472132 .99640469 102.64 -56.23)" x1="-51.67" x2="207.57" xlink:href="#a" y1="215.14" y2="134.75"/><linearGradient id="am" gradientTransform="matrix(.99640469 .08472132 -.08472132 .99640469 102.64 -56.23)" x1="-48.4" x2="210.84" xlink:href="#a" y1="214.91" y2="134.52"/><linearGradient id="an" gradientTransform="matrix(.99640469 .08472132 -.08472132 .99640469 102.64 -56.23)" x1="-45.12" x2="214.12" xlink:href="#a" y1="214.68" y2="134.28"/><linearGradient id="ao" gradientTransform="matrix(.99640469 .08472132 -.08472132 .99640469 102.64 -56.23)" x1="-41.85" x2="217.39" xlink:href="#a" y1="214.45" y2="134.05"/><linearGradient id="ap" gradientTransform="matrix(.99640469 .08472132 -.08472132 .99640469 102.64 -56.23)" x1="-38.58" x2="220.66" xlink:href="#a" y1="214.21" y2="133.82"/><linearGradient id="aq" gradientTransform="matrix(.99640469 .08472132 -.08472132 .99640469 102.64 -56.23)" x1="-35.3" x2="223.94" xlink:href="#a" y1="213.98" y2="133.59"/><linearGradient id="ar" gradientTransform="matrix(.99640469 .08472132 -.08472132 .99640469 102.64 -56.23)" x1="-32.03" x2="227.21" xlink:href="#a" y1="213.75" y2="133.36"/><linearGradient id="as" gradientTransform="matrix(.99640469 .08472132 -.08472132 .99640469 102.64 -56.23)" x1="-28.76" x2="230.48" xlink:href="#a" y1="213.52" y2="133.12"/><linearGradient id="at" gradientTransform="matrix(.99640469 .08472132 -.08472132 .99640469 102.64 -56.23)" x1="-25.48" x2="233.76" xlink:href="#a" y1="213.29" y2="132.89"/><linearGradient id="au" gradientTransform="matrix(.99640469 .08472132 -.08472132 .99640469 102.64 -56.23)" x1="-22.21" x2="237.03" xlink:href="#a" y1="213.05" y2="132.66"/><linearGradient id="av" gradientTransform="matrix(.99640469 .08472132 -.08472132 .99640469 102.64 -56.23)" x1="-18.94" x2="240.3" xlink:href="#a" y1="212.82" y2="132.43"/><linearGradient id="aw" gradientTransform="matrix(.99640469 .08472132 -.08472132 .99640469 102.64 -56.23)" x1="-15.66" x2="243.58" xlink:href="#a" y1="212.59" y2="132.19"/><linearGradient id="ax" gradientTransform="matrix(.99640469 .08472132 -.08472132 .99640469 102.64 -56.23)" x1="-12.39" x2="246.85" xlink:href="#a" y1="212.36" y2="131.96"/><linearGradient id="ay" gradientTransform="matrix(.99640469 .08472132 -.08472132 .99640469 102.64 -56.23)" x1="-8.28" x2="250.96" xlink:href="#a" y1="214.82" y2="134.42"/><linearGradient id="az" gradientTransform="matrix(.99640469 .08472132 -.08472132 .99640469 102.64 -56.23)" x1="-3.83" x2="255.41" xlink:href="#a" y1="218.38" y2="137.99"/><linearGradient id="aA" gradientTransform="matrix(.99640469 .08472132 -.08472132 .99640469 102.64 -56.23)" x1=".61" x2="259.85" xlink:href="#a" y1="221.9" y2="141.51"/><linearGradient id="aB" gradientTransform="matrix(.99640469 .08472132 -.08472132 .99640469 102.64 -56.23)" x1="5.03" x2="264.27" xlink:href="#a" y1="225.37" y2="144.98"/><linearGradient id="aC" gradientTransform="matrix(.99640469 .08472132 -.08472132 .99640469 102.64 -56.23)" x1="9.43" x2="268.67" xlink:href="#a" y1="228.79" y2="148.4"/><linearGradient id="aD" gradientTransform="matrix(.99640469 .08472132 -.08472132 .99640469 102.64 -56.23)" x1="13.82" x2="273.06" xlink:href="#a" y1="232.16" y2="151.77"/><linearGradient id="aE" gradientTransform="matrix(.99640469 .08472132 -.08472132 .99640469 102.64 -56.23)" x1="18.2" x2="277.44" xlink:href="#a" y1="235.49" y2="155.09"/><linearGradient id="aF" gradientTransform="matrix(.99640469 .08472132 -.08472132 .99640469 102.64 -56.23)" x1="22.56" x2="281.8" xlink:href="#a" y1="238.77" y2="158.37"/><linearGradient id="aG" gradientTransform="matrix(.99640469 .08472132 -.08472132 .99640469 102.64 -56.23)" x1="26.91" x2="286.15" xlink:href="#a" y1="241.99" y2="161.6"/><linearGradient id="aH" gradientTransform="matrix(.99640469 .08472132 -.08472132 .99640469 102.64 -56.23)" x1="31.24" x2="290.48" xlink:href="#a" y1="245.17" y2="164.78"/><linearGradient id="aI" gradientTransform="matrix(.99640469 .08472132 -.08472132 .99640469 102.64 -56.23)" x1="35.56" x2="294.8" xlink:href="#a" y1="248.3" y2="167.91"/><linearGradient id="aJ" gradientTransform="matrix(.99640469 .08472132 -.08472132 .99640469 102.64 -56.23)" x1="39.86" x2="299.1" xlink:href="#a" y1="251.39" y2="170.99"/><linearGradient id="aK" gradientTransform="matrix(.99640469 .08472132 -.08472132 .99640469 102.64 -56.23)" x1="44.14" x2="303.38" xlink:href="#a" y1="254.42" y2="174.03"/><linearGradient id="aL" gradientTransform="matrix(.99640469 .08472132 -.08472132 .99640469 102.64 -56.23)" x1="48.42" x2="307.65" xlink:href="#a" y1="257.41" y2="177.01"/><linearGradient id="aM" gradientTransform="matrix(.99640469 .08472132 -.08472132 .99640469 102.64 -56.23)" x1="52.67" x2="311.91" xlink:href="#a" y1="260.35" y2="179.95"/><linearGradient id="aN" gradientTransform="matrix(.99640469 .08472132 -.08472132 .99640469 102.64 -56.23)" x1="56.91" x2="316.15" xlink:href="#a" y1="263.24" y2="182.85"/><linearGradient id="aO" gradientTransform="matrix(.99640469 .08472132 -.08472132 .99640469 102.64 -56.23)" x1="61.14" x2="320.38" xlink:href="#a" y1="266.09" y2="185.69"/><linearGradient id="aP" gradientTransform="matrix(.99640469 .08472132 -.08472132 .99640469 102.64 -56.23)" x1="65.35" x2="324.59" xlink:href="#a" y1="268.88" y2="188.49"/><linearGradient id="aQ" gradientTransform="matrix(.99640469 .08472132 -.08472132 .99640469 102.64 -56.23)" x1="69.55" x2="328.79" xlink:href="#a" y1="271.63" y2="191.24"/><linearGradient id="aR" gradientTransform="matrix(.99640469 .08472132 -.08472132 .99640469 102.64 -56.23)" x1="73.73" x2="332.97" xlink:href="#a" y1="274.33" y2="193.94"/><linearGradient id="aS" gradientTransform="matrix(.99640469 .08472132 -.08472132 .99640469 102.64 -56.23)" x1="77.9" x2="337.14" xlink:href="#a" y1="276.98" y2="196.58"/><linearGradient id="aT" gradientTransform="matrix(.99640469 .08472132 -.08472132 .99640469 102.64 -56.23)" x1="82.05" x2="341.29" xlink:href="#a" y1="279.58" y2="199.19"/><linearGradient id="aU" gradientTransform="matrix(.99640469 .08472132 -.08472132 .99640469 102.64 -56.23)" x1="86.19" x2="345.43" xlink:href="#a" y1="282.13" y2="201.74"/><linearGradient id="aV" gradientTransform="matrix(.99640469 .08472132 -.08472132 .99640469 102.64 -56.23)" x1="90.31" x2="349.55" xlink:href="#a" y1="284.63" y2="204.24"/><linearGradient id="aW" gradientTransform="matrix(.99640469 .08472132 -.08472132 .99640469 102.64 -56.23)" x1="94.42" x2="353.66" xlink:href="#a" y1="287.09" y2="206.69"/><linearGradient id="aX" gradientTransform="matrix(.99640469 .08472132 -.08472132 .99640469 102.64 -56.23)" x1="98.5" x2="357.74" xlink:href="#a" y1="289.48" y2="209.09"/><linearGradient id="aY" gradientTransform="matrix(.99640469 .08472132 -.08472132 .99640469 102.64 -56.23)" x1="102.58" x2="361.82" xlink:href="#a" y1="291.83" y2="211.44"/><linearGradient id="aZ" gradientTransform="matrix(.99640469 .08472132 -.08472132 .99640469 102.64 -56.23)" x1="106.64" x2="365.88" xlink:href="#a" y1="294.13" y2="213.73"/><linearGradient id="a0" gradientTransform="matrix(.99640469 .08472132 -.08472132 .99640469 102.64 -56.23)" x1="110.68" x2="369.92" xlink:href="#a" y1="296.37" y2="215.98"/><linearGradient id="a1" gradientTransform="matrix(.99640469 .08472132 -.08472132 .99640469 102.64 -56.23)" x1="114.7" x2="373.94" xlink:href="#a" y1="298.56" y2="218.16"/><linearGradient id="a2" gradientTransform="matrix(.99640469 .08472132 -.08472132 .99640469 102.64 -56.23)" x1="118.71" x2="377.95" xlink:href="#a" y1="300.69" y2="220.3"/><linearGradient id="a3" gradientTransform="matrix(.99640469 .08472132 -.08472132 .99640469 102.64 -56.23)" x1="122.7" x2="381.94" xlink:href="#a" y1="302.77" y2="222.38"/><linearGradient id="a4" gradientTransform="matrix(.99640469 .08472132 -.08472132 .99640469 102.64 -56.23)" x1="126.67" x2="385.91" xlink:href="#a" y1="304.8" y2="224.4"/><linearGradient id="a5" gradientTransform="matrix(.99640469 .08472132 -.08472132 .99640469 102.64 -56.23)" x1="130.63" x2="389.87" xlink:href="#a" y1="306.76" y2="226.37"/><linearGradient id="a6" gradientTransform="matrix(.99640469 .08472132 -.08472132 .99640469 102.64 -56.23)" x1="134.56" x2="393.8" xlink:href="#a" y1="308.67" y2="228.28"/><linearGradient id="a7" gradientTransform="matrix(.99640469 .08472132 -.08472132 .99640469 102.64 -56.23)" x1="138.46" x2="397.7" xlink:href="#a" y1="310.44" y2="230.05"/><linearGradient id="a8" gradientTransform="matrix(.98774289 -.15608969 .15608969 .98774289 -126.46 163.34)" x1="108.77" x2="343.5" xlink:href="#a" y1="109.04" y2="57.58"/><linearGradient id="a9" gradientTransform="matrix(.98774289 -.15608969 .15608969 .98774289 -126.46 163.34)" x1="113.07" x2="347.8" xlink:href="#a" y1="104.24" y2="52.77"/><linearGradient id="ba" gradientTransform="matrix(.98774289 -.15608969 .15608969 .98774289 -126.46 163.34)" x1="117.23" x2="351.96" xlink:href="#a" y1="98.83" y2="47.36"/><linearGradient id="bb" gradientTransform="matrix(.98774289 -.15608969 .15608969 .98774289 -126.46 163.34)" x1="121.23" x2="355.96" xlink:href="#a" y1="92.67" y2="41.21"/><linearGradient id="bc" gradientTransform="matrix(.98774289 -.15608969 .15608969 .98774289 -126.46 163.34)" x1="125.02" x2="359.75" xlink:href="#a" y1="85.58" y2="34.12"/><linearGradient id="bd" gradientTransform="matrix(.98774289 -.15608969 .15608969 .98774289 -126.46 163.34)" x1="128.53" x2="363.26" xlink:href="#a" y1="77.14" y2="25.68"/><linearGradient id="be" gradientTransform="matrix(.98774289 -.15608969 .15608969 .98774289 -126.46 163.34)" x1="131.56" x2="366.29" xlink:href="#a" y1="66.59" y2="15.13"/><linearGradient id="bf" gradientTransform="matrix(.98774289 -.15608969 .15608969 .98774289 -126.46 163.34)" x1="133.58" x2="368.31" xlink:href="#a" y1="51.42" y2="-.04"/><linearGradient id="bg" gradientTransform="matrix(.98774289 -.15608969 .15608969 .98774289 -126.46 163.34)" x1="96.16" x2="330.89" xlink:href="#a" y1="-119.28" y2="-170.74"/><linearGradient id="bh" gradientTransform="matrix(.98774289 -.15608969 .15608969 .98774289 -126.46 163.34)" x1="126.91" x2="361.64" xlink:href="#a" y1="-3.42" y2="-54.89"/><linearGradient id="bi" gradientTransform="matrix(.98774289 -.15608969 .15608969 .98774289 -126.46 163.34)" x1="132.44" x2="367.17" xlink:href="#a" y1="-2.58" y2="-54.05"/><linearGradient id="bj" gradientTransform="matrix(.98774289 -.15608969 .15608969 .98774289 -126.46 163.34)" x1="137.98" x2="372.71" xlink:href="#a" y1="-1.74" y2="-53.2"/><linearGradient id="bk" gradientTransform="matrix(.98774289 -.15608969 .15608969 .98774289 -126.46 163.34)" x1="143.51" x2="378.24" xlink:href="#a" y1="-.89" y2="-52.36"/><linearGradient id="bl" gradientTransform="matrix(.98774289 -.15608969 .15608969 .98774289 -126.46 163.34)" x1="149.05" x2="383.78" xlink:href="#a" y1="-.05" y2="-51.51"/><linearGradient id="bm" gradientTransform="matrix(.98774289 -.15608969 .15608969 .98774289 -126.46 163.34)" x1="154.58" x2="389.31" xlink:href="#a" y1=".8" y2="-50.66"/><linearGradient id="bn" gradientTransform="matrix(.98774289 -.15608969 .15608969 .98774289 -126.46 163.34)" x1="160.11" x2="394.84" xlink:href="#a" y1="1.65" y2="-49.81"/><linearGradient id="bo" gradientTransform="matrix(.98774289 -.15608969 .15608969 .98774289 -126.46 163.34)" x1="165.65" x2="400.38" xlink:href="#a" y1="2.51" y2="-48.96"/><linearGradient id="bp" gradientTransform="matrix(.98774289 -.15608969 .15608969 .98774289 -126.46 163.34)" x1="171.19" x2="405.92" xlink:href="#a" y1="3.36" y2="-48.1"/><linearGradient id="bq" gradientTransform="matrix(.98774289 -.15608969 .15608969 .98774289 -126.46 163.34)" x1="176.72" x2="411.45" xlink:href="#a" y1="4.22" y2="-47.24"/><linearGradient id="br" gradientTransform="matrix(.98774289 -.15608969 .15608969 .98774289 -126.46 163.34)" x1="182.26" x2="416.99" xlink:href="#a" y1="5.08" y2="-46.38"/><linearGradient id="bs" gradientTransform="matrix(.98774289 -.15608969 .15608969 .98774289 -126.46 163.34)" x1="187.79" x2="422.52" xlink:href="#a" y1="5.95" y2="-45.52"/><linearGradient id="bt" gradientTransform="matrix(.98774289 -.15608969 .15608969 .98774289 -126.46 163.34)" x1="193.33" x2="428.06" xlink:href="#a" y1="6.81" y2="-44.65"/><linearGradient id="bu" gradientTransform="matrix(.98774289 -.15608969 .15608969 .98774289 -126.46 163.34)" x1="198.87" x2="433.6" xlink:href="#a" y1="7.68" y2="-43.78"/><linearGradient id="bv" gradientTransform="matrix(.98774289 -.15608969 .15608969 .98774289 -126.46 163.34)" x1="204.41" x2="439.14" xlink:href="#a" y1="8.55" y2="-42.91"/><linearGradient id="bw" gradientTransform="matrix(.98774289 -.15608969 .15608969 .98774289 -126.46 163.34)" x1="209.95" x2="444.68" xlink:href="#a" y1="9.43" y2="-42.03"/><linearGradient id="bx" gradientTransform="matrix(.98774289 -.15608969 .15608969 .98774289 -126.46 163.34)" x1="215.5" x2="450.22" xlink:href="#a" y1="10.31" y2="-41.16"/><linearGradient id="by" gradientTransform="matrix(.98774289 -.15608969 .15608969 .98774289 -126.46 163.34)" x1="221.04" x2="455.77" xlink:href="#a" y1="11.19" y2="-40.28"/><linearGradient id="bz" gradientTransform="matrix(.98774289 -.15608969 .15608969 .98774289 -126.46 163.34)" x1="226.58" x2="461.31" xlink:href="#a" y1="12.07" y2="-39.39"/><linearGradient id="bA" gradientTransform="matrix(.98774289 -.15608969 .15608969 .98774289 -126.46 163.34)" x1="232.12" x2="466.85" xlink:href="#a" y1="12.96" y2="-38.5"/><linearGradient id="bB" gradientTransform="matrix(.98774289 -.15608969 .15608969 .98774289 -126.46 163.34)" x1="237.67" x2="472.4" xlink:href="#a" y1="13.85" y2="-37.61"/><linearGradient id="bC" gradientTransform="matrix(.98774289 -.15608969 .15608969 .98774289 -126.46 163.34)" x1="243.21" x2="477.94" xlink:href="#a" y1="14.75" y2="-36.71"/><linearGradient id="bD" gradientTransform="matrix(.98774289 -.15608969 .15608969 .98774289 -126.46 163.34)" x1="248.76" x2="483.49" xlink:href="#a" y1="15.65" y2="-35.81"/><linearGradient id="bE" gradientTransform="matrix(.98774289 -.15608969 .15608969 .98774289 -126.46 163.34)" x1="254.31" x2="489.04" xlink:href="#a" y1="16.55" y2="-34.91"/><linearGradient id="bF" gradientTransform="matrix(.98774289 -.15608969 .15608969 .98774289 -126.46 163.34)" x1="259.85" x2="494.58" xlink:href="#a" y1="17.46" y2="-34"/><linearGradient id="bG" gradientTransform="matrix(.98774289 -.15608969 .15608969 .98774289 -126.46 163.34)" x1="265.4" x2="500.13" xlink:href="#a" y1="18.38" y2="-33.09"/><linearGradient id="bH" gradientTransform="matrix(.98774289 -.15608969 .15608969 .98774289 -126.46 163.34)" x1="270.95" x2="505.68" xlink:href="#a" y1="19.29" y2="-32.17"/><linearGradient id="bI" gradientTransform="matrix(.98774289 -.15608969 .15608969 .98774289 -126.46 163.34)" x1="276.5" x2="511.23" xlink:href="#a" y1="20.22" y2="-31.24"/><linearGradient id="bJ" gradientTransform="matrix(.98774289 -.15608969 .15608969 .98774289 -126.46 163.34)" x1="282.06" x2="516.79" xlink:href="#a" y1="21.15" y2="-30.31"/><linearGradient id="bK" gradientTransform="matrix(.98774289 -.15608969 .15608969 .98774289 -126.46 163.34)" x1="287.61" x2="522.34" xlink:href="#a" y1="22.09" y2="-29.38"/><linearGradient id="bL" gradientTransform="matrix(.98774289 -.15608969 .15608969 .98774289 -126.46 163.34)" x1="293.17" x2="527.9" xlink:href="#a" y1="23.03" y2="-28.44"/><linearGradient id="bM" gradientTransform="matrix(.98774289 -.15608969 .15608969 .98774289 -126.46 163.34)" x1="298.72" x2="533.45" xlink:href="#a" y1="23.98" y2="-27.48"/><linearGradient id="bN" gradientTransform="matrix(.98774289 -.15608969 .15608969 .98774289 -126.46 163.34)" x1="304.28" x2="539.01" xlink:href="#a" y1="24.94" y2="-26.52"/><linearGradient id="bO" gradientTransform="matrix(.98774289 -.15608969 .15608969 .98774289 -126.46 163.34)" x1="309.84" x2="544.57" xlink:href="#a" y1="25.91" y2="-25.56"/><linearGradient id="bP" gradientTransform="matrix(.98774289 -.15608969 .15608969 .98774289 -126.46 163.34)" x1="315.07" x2="549.8" xlink:href="#a" y1="25.36" y2="-26.1"/><linearGradient id="bQ" gradientTransform="matrix(.98774289 -.15608969 .15608969 .98774289 -126.46 163.34)" x1="319.9" x2="554.63" xlink:href="#a" y1="22.96" y2="-28.5"/><linearGradient id="bR" gradientTransform="matrix(.98774289 -.15608969 .15608969 .98774289 -126.46 163.34)" x1="324.66" x2="559.39" xlink:href="#a" y1="20.28" y2="-31.19"/><linearGradient id="bS" gradientTransform="matrix(.98774289 -.15608969 .15608969 .98774289 -126.46 163.34)" x1="329.35" x2="564.08" xlink:href="#a" y1="17.28" y2="-34.19"/><linearGradient id="bT" gradientTransform="matrix(.98774289 -.15608969 .15608969 .98774289 -126.46 163.34)" x1="333.97" x2="568.7" xlink:href="#a" y1="13.93" y2="-37.53"/><linearGradient id="bU" gradientTransform="matrix(.98774289 -.15608969 .15608969 .98774289 -126.46 163.34)" x1="338.5" x2="573.23" xlink:href="#a" y1="10.22" y2="-41.24"/><linearGradient id="bV" gradientTransform="matrix(.98774289 -.15608969 .15608969 .98774289 -126.46 163.34)" x1="342.95" x2="577.68" xlink:href="#a" y1="6.1" y2="-45.36"/><linearGradient id="bW" gradientTransform="matrix(.98774289 -.15608969 .15608969 .98774289 -126.46 163.34)" x1="347.29" x2="582.02" xlink:href="#a" y1="1.5" y2="-49.96"/><linearGradient id="bX" gradientTransform="matrix(.98774289 -.15608969 .15608969 .98774289 -126.46 163.34)" x1="351.51" x2="586.24" xlink:href="#a" y1="-3.63" y2="-55.09"/><linearGradient id="bY" gradientTransform="matrix(.98774289 -.15608969 .15608969 .98774289 -126.46 163.34)" x1="355.59" x2="590.32" xlink:href="#a" y1="-9.4" y2="-60.87"/><linearGradient id="bZ" gradientTransform="matrix(.98774289 -.15608969 .15608969 .98774289 -126.46 163.34)" x1="359.5" x2="594.22" xlink:href="#a" y1="-15.99" y2="-67.45"/><linearGradient id="b0" gradientTransform="matrix(.98774289 -.15608969 .15608969 .98774289 -126.46 163.34)" x1="363.17" x2="597.9" xlink:href="#a" y1="-23.63" y2="-75.1"/><linearGradient id="b1" gradientTransform="matrix(.98774289 -.15608969 .15608969 .98774289 -126.46 163.34)" x1="366.5" x2="601.23" xlink:href="#a" y1="-32.81" y2="-84.27"/><linearGradient id="b2" gradientTransform="matrix(.98774289 -.15608969 .15608969 .98774289 -126.46 163.34)" x1="369.26" x2="603.99" xlink:href="#a" y1="-44.66" y2="-96.12"/><linearGradient id="b3" gradientTransform="matrix(.98774289 -.15608969 .15608969 .98774289 -126.46 163.34)" x1="370.36" x2="605.09" xlink:href="#a" y1="-64" y2="-115.46"/><path d="m.5 0h256v256h-256z" fill="url(#a)"/><g fill="none"><path d="m170.82 256c31.58-44.32 61.27-103.51 85.18-157.51v-5.37c-24.28 55.38-54.87 117.01-87.49 162.89h2.31z"/><path d="m0 253.93v2.07h.69c43.87-56.23 84.98-144.56 113.18-212.96 6.11-14.8 11.85-29.26 17.18-43.04h-2.37c-5.34 13.81-11.1 28.29-17.22 43.13-27.83 67.5-68.22 154.38-111.46 210.8z"/><path d="m5.51 256h2.29c43.7-56.26 84.63-144.22 112.74-212.4 6.19-15.01 12.01-29.65 17.4-43.6h-2.37c-5.4 13.98-11.23 28.65-17.43 43.69-28.09 68.11-68.95 155.94-112.63 212.31z"/><path d="m0 229.13v3.45c37.77-55.57 72.45-130.93 97.21-190.96 5.9-14.3 11.46-28.27 16.63-41.62h-2.37c-5.18 13.38-10.76 27.38-16.67 41.71-24.22 58.74-57.95 132.17-94.8 187.42z"/><path d="m0 249.23v3.06c42.87-56.35 82.9-142.51 110.54-209.54 6.06-14.7 11.77-29.06 17.07-42.75h-2.37c-5.31 13.72-11.03 28.11-17.11 42.84-27.11 65.77-66.15 149.93-108.13 206.39z"/><path d="m9.06 256h2.29c43.62-56.27 84.46-144.05 112.53-212.12 6.23-15.11 12.09-29.85 17.51-43.88h-2.37c-5.43 14.06-11.3 28.83-17.54 43.98-28.05 67.99-68.82 155.64-112.42 212.02z"/><path d="m0 223.78v3.54c36.47-55.02 69.85-127.73 93.88-185.99 5.85-14.2 11.38-28.07 16.52-41.33h-2.37c-5.15 13.29-10.69 27.2-16.56 41.42-23.49 56.97-55.93 127.74-91.47 182.36z"/><path d="m0 234.34v3.35c39.06-55.96 75.06-134 100.54-195.8 5.94-14.4 11.53-28.46 16.74-41.89h-2.37c-5.22 13.46-10.83 27.56-16.78 41.99-24.95 60.51-59.99 136.59-98.13 192.35z"/><path d="m58.75 256h2.3c42.48-56.37 82.08-141.66 109.49-208.15 6.82-16.54 13.19-32.64 19.04-47.85h-2.37c-5.85 15.24-12.24 31.37-19.07 47.95-27.39 66.41-66.93 151.59-109.38 208.05z"/><path d="m0 239.44v3.26c40.34-56.23 77.67-136.97 103.88-200.52 5.98-14.5 11.61-28.66 16.85-42.18h-2.37c-5.25 13.55-10.89 27.74-16.89 42.27-25.68 62.27-62.04 141.04-101.47 197.17z"/><path d="m51.66 256h2.3c42.64-56.36 82.41-142 109.92-208.71 6.74-16.34 13.04-32.24 18.82-47.29h-2.37c-5.79 15.07-12.11 31.01-18.86 47.38-27.48 66.64-67.19 152.16-109.81 208.62z"/><path d="m44.56 256h2.3c42.8-56.35 82.75-142.35 110.35-209.28 6.65-16.13 12.88-31.84 18.6-46.72h-2.37c-5.73 14.91-11.97 30.65-18.64 46.81-27.57 66.86-67.46 152.73-110.24 209.19z"/><path d="m37.47 256h2.3c42.96-56.34 83.08-142.69 110.78-209.84 6.57-15.93 12.72-31.45 18.39-46.16h-2.37c-5.67 14.74-11.84 30.29-18.42 46.25-27.66 67.08-67.73 153.31-110.67 209.75z"/><path d="m41.02 256h2.3c42.88-56.35 82.92-142.52 110.56-209.57 6.61-16.03 12.8-31.64 18.49-46.43h-2.37c-5.7 14.82-11.91 30.47-18.53 46.53-27.62 66.97-67.59 153.02-110.45 209.47z"/><path d="m48.11 256h2.3c42.72-56.35 82.58-142.17 110.13-208.99 6.69-16.23 12.96-32.04 18.71-47.01h-2.37c-5.77 14.99-12.04 30.83-18.75 47.1-27.52 66.75-67.33 152.45-110.02 208.9z"/><path d="m55.21 256h2.3c42.56-56.36 82.24-141.83 109.7-208.43 6.78-16.44 13.11-32.44 18.93-47.57h-2.37c-5.82 15.16-12.17 31.19-18.96 47.66-27.43 66.53-67.06 151.87-109.59 208.34z"/><path d="m0 218.32v3.63c35.17-54.36 67.25-124.42 90.54-180.9 5.81-14.1 11.3-27.87 16.41-41.05h-2.37c-5.12 13.21-10.62 27.01-16.45 41.14-22.75 55.18-53.89 123.32-88.13 177.18z"/><path d="m12.61 256h2.29c43.54-56.28 84.29-143.88 112.31-211.83 6.27-15.21 12.17-30.05 17.62-44.17h-2.37c-5.46 14.15-11.37 29.02-17.65 44.26-28 67.88-68.68 155.35-112.2 211.74z"/><path d="m19.72 256h2.29c43.37-56.3 83.94-143.54 111.87-211.26 6.36-15.42 12.32-30.45 17.84-44.74h-2.37c-5.52 14.32-11.5 29.38-17.87 44.83-27.9 67.65-68.4 154.76-111.75 211.17z"/><path d="m23.27 256h2.29c43.29-56.31 83.77-143.37 111.65-210.98 6.4-15.52 12.4-30.65 17.95-45.02h-2.37c-5.55 14.4-11.57 29.56-17.98 45.11-27.85 67.53-68.26 154.47-111.53 210.89z"/><path d="m16.16 256h2.29c43.46-56.29 84.11-143.71 112.09-211.55 6.31-15.31 12.24-30.24 17.73-44.45h-2.37c-5.49 14.23-11.43 29.2-17.76 44.54-27.94 67.76-68.54 155.05-111.97 211.46z"/><path d="m33.92 256h2.29c43.04-56.33 83.25-142.87 110.99-210.14 6.52-15.82 12.64-31.24 18.27-45.86h-2.37c-5.64 14.65-11.77 30.11-18.31 45.96-27.71 67.19-67.86 153.6-110.88 210.04z"/><path d="m26.82 256h2.29c43.21-56.32 83.6-143.2 111.43-210.7 6.44-15.62 12.48-30.85 18.06-45.3h-2.37c-5.58 14.48-11.64 29.74-18.09 45.39-27.8 67.42-68.13 154.18-111.31 210.61z"/><path d="m30.37 256h2.29c43.12-56.32 83.42-143.03 111.21-210.41 6.48-15.72 12.56-31.05 18.17-45.59h-2.37c-5.61 14.57-11.7 29.92-18.2 45.68-27.76 67.31-67.99 153.89-111.1 210.32z"/><path d="m0 244.4v3.16c41.61-56.37 80.29-139.8 107.21-205.1 6.02-14.6 11.69-28.86 16.96-42.46h-2.37c-5.28 13.64-10.96 27.93-17 42.56-26.4 64.02-64.09 145.47-104.8 201.84z"/><path d="m0 77.63v5.31c7.41-16.55 14.29-32.69 20.54-47.84 4.95-11.99 9.65-23.75 14.1-35.1h-2.37c-4.45 11.38-9.17 23.17-14.13 35.18-5.57 13.51-11.64 27.79-18.14 42.45z"/><path d="m0 85.38v5.24c8.68-19.13 16.7-37.83 23.88-55.24 4.98-12.09 9.73-23.94 14.2-35.38h-2.37c-4.48 11.47-9.24 23.35-14.24 35.47-6.51 15.79-13.71 32.64-21.47 49.91z"/><path d="m0 122.61v4.87c15.22-31.19 28.97-62.61 40.54-90.69 5.19-12.59 10.12-24.92 14.76-36.8h-2.37c-4.65 11.91-9.59 24.27-14.79 36.89-10.96 26.59-23.88 56.18-38.14 85.73z"/><path d="m0 93.03v5.16c9.97-21.67 19.12-42.92 27.21-62.54 5.03-12.19 9.81-24.13 14.31-35.66h-2.37c-4.52 11.56-9.31 23.53-14.35 35.75-7.43 18.03-15.77 37.44-24.81 57.28z"/><path d="m0 108.03v5.01c12.58-26.56 24.02-52.9 33.88-76.81 5.11-12.39 9.96-24.52 14.53-36.23h-2.37c-4.58 11.73-9.45 23.9-14.57 36.32-9.23 22.38-19.84 46.89-31.47 71.71z"/><path d="m0 115.38v4.94c13.9-28.91 26.49-57.79 37.21-83.8 5.15-12.49 10.04-24.72 14.65-36.51h-2.37c-4.61 11.82-9.52 24.08-14.68 36.6-10.11 24.49-21.86 51.54-34.81 78.77z"/><path d="m0 100.58v5.09c11.27-24.14 21.56-47.95 30.55-69.73 5.07-12.28 9.88-24.32 14.42-35.94h-2.37c-4.55 11.65-9.38 23.72-14.46 36.04-8.34 20.22-17.81 42.18-28.14 64.54z"/><path d="m0 37.33v5.68c1.32-3.15 2.61-6.26 3.88-9.33 4.74-11.49 9.26-22.77 13.53-33.68h-2.37c-4.29 10.94-8.82 22.25-13.57 33.77-.49 1.18-.98 2.37-1.47 3.56z"/><path d="m13.97 0h-2.37c-3.69 9.41-7.56 19.1-11.6 28.95v5.76l.54-1.32c4.7-11.39 9.18-22.56 13.43-33.39z"/><path d="m0 69.77v5.38c6.15-13.92 11.91-27.49 17.21-40.35 4.9-11.88 9.57-23.53 13.98-34.8h-2.37c-4.42 11.29-9.1 22.98-14.02 34.9-4.61 11.17-9.56 22.87-14.81 34.87z"/><path d="m0 45.59v5.61c2.49-5.86 4.9-11.62 7.21-17.25 4.78-11.58 9.34-22.95 13.65-33.95h-2.37c-4.32 11.03-8.89 22.43-13.68 34.05-1.56 3.79-3.17 7.64-4.81 11.54z"/><path d="m0 61.82v5.46c4.9-11.26 9.54-22.24 13.88-32.75 4.86-11.79 9.49-23.35 13.87-34.53h-2.37c-4.39 11.21-9.03 22.8-13.91 34.62-3.62 8.77-7.45 17.88-11.47 27.2z"/><path d="m0 53.76v5.53c3.68-8.57 7.21-16.95 10.54-25.05 4.82-11.68 9.42-23.15 13.76-34.24h-2.37c-4.35 11.12-8.96 22.61-13.79 34.33-2.61 6.32-5.32 12.81-8.14 19.42z"/><path d="m0 129.75v4.79c16.55-33.39 31.46-67.35 43.88-97.46 5.23-12.69 10.2-25.11 14.87-37.08h-2.37c-4.68 12-9.66 24.45-14.9 37.17-11.82 28.64-25.89 60.77-41.48 92.58z"/><path d="m0 176.75v4.24c25.9-46.4 49.19-98.23 67.21-141.92 5.52-13.39 10.75-26.49 15.64-39.06h-2.37c-4.9 12.6-10.14 25.73-15.68 39.15-17.46 42.33-39.86 92.3-64.8 137.59z"/><path d="m0 212.72v3.73c33.86-53.57 64.66-120.99 87.21-175.68 5.77-13.99 11.22-27.67 16.3-40.77h-2.37c-5.09 13.12-10.55 26.83-16.34 40.86-22.01 53.38-51.88 118.89-84.8 171.86z"/><path d="m0 183.03v4.15c27.24-47.87 51.75-102.27 70.54-147.84 5.56-13.49 10.83-26.69 15.75-39.35h-2.37c-4.93 12.69-10.21 25.92-15.79 39.44-18.23 44.23-41.85 96.76-68.13 143.6z"/><path d="m0 189.2v4.07c28.57-49.24 54.32-106.22 73.88-153.64 5.6-13.59 10.91-26.88 15.86-39.63h-2.37c-4.97 12.78-10.28 26.1-15.9 39.72-19 46.08-43.85 101.19-71.47 149.48z"/><path d="m0 201.19v3.9c31.22-51.64 59.48-113.82 80.54-164.9 5.69-13.79 11.06-27.28 16.08-40.2h-2.37c-5.03 12.95-10.42 26.46-16.12 40.29-20.51 49.77-47.85 110.06-78.13 160.91z"/><path d="m0 207.02v3.81c32.55-52.67 62.07-117.46 83.88-170.36 5.73-13.89 11.14-27.47 16.19-40.48h-2.37c-5.06 13.04-10.48 26.65-16.23 40.57-21.27 51.59-49.87 114.49-81.47 166.46z"/><path d="m0 195.26v3.99c29.9-50.49 56.9-110.08 77.21-159.33 5.65-13.69 10.98-27.08 15.97-39.91h-2.37c-5 12.86-10.35 26.28-16.01 40.01-19.76 47.91-45.85 105.61-74.8 155.24z"/><path d="m0 150.53v4.56c20.55-39.51 39.01-81.11 53.88-117.17 5.35-12.98 10.43-25.7 15.2-37.92h-2.37c-4.77 12.26-9.87 25-15.23 38.02-14.3 34.65-31.89 74.4-51.48 112.51z"/><path d="m0 143.71v4.64c19.22-37.56 36.48-76.6 50.54-110.7 5.31-12.89 10.36-25.51 15.09-37.65h-2.37c-4.74 12.17-9.8 24.82-15.12 37.74-13.47 32.67-29.89 69.87-48.14 105.97z"/><path d="m0 136.79v4.71c17.88-35.51 33.97-72.02 47.21-104.13 5.27-12.79 10.28-25.31 14.98-37.36h-2.37c-4.71 12.08-9.73 24.63-15.01 37.45-12.65 30.66-27.89 65.33-44.81 99.33z"/><path d="m0 163.86v4.4c23.23-43.15 44.08-89.85 60.55-129.77 5.44-13.18 10.59-26.09 15.42-38.49h-2.37c-4.84 12.43-10 25.37-15.46 38.59-15.89 38.53-35.87 83.38-58.14 125.27z"/><path d="m0 170.36v4.32c24.57-44.82 46.63-94.08 63.88-135.9 5.48-13.29 10.67-26.29 15.53-38.78h-2.37c-4.87 12.52-10.07 25.55-15.57 38.87-16.68 40.45-37.86 87.85-61.47 131.49z"/><path d="m0 157.25v4.48c21.89-41.38 41.54-85.52 57.21-123.52 5.4-13.09 10.51-25.9 15.31-38.21h-2.37c-4.81 12.34-9.93 25.18-15.34 38.3-15.1 36.6-33.88 78.9-54.81 118.95z"/><path d="m1.95 256h2.29c43.79-56.24 84.81-144.39 112.97-212.68 6.15-14.91 11.93-29.45 17.29-43.32h-2.37c-5.37 13.89-11.16 28.47-17.33 43.41-28.13 68.22-69.08 156.23-112.85 212.59z"/><path d="m220.28 256c12.29-17.65 24.27-37.47 35.72-58.28v-4.3c-12.14 22.37-24.91 43.71-38.04 62.59h2.31z"/><path d="m237.93 256c6.11-8.84 12.14-18.22 18.07-27.98v-3.88c-6.67 11.15-13.48 21.84-20.38 31.86h2.32z"/><path d="m230.87 256c8.55-12.34 16.95-25.72 25.13-39.76v-4.05c-8.9 15.5-18.08 30.28-27.44 43.81z"/><path d="m227.34 256c9.79-14.1 19.38-29.58 28.66-45.82v-4.14c-9.99 17.75-20.37 34.66-30.97 49.96z"/><path d="m223.81 256c11.03-15.87 21.82-33.49 32.19-51.99v-4.22c-11.07 20.04-22.65 39.13-34.5 56.21z"/><path d="m163.75 256c34.73-48.59 67.21-115.25 92.25-173.34v-5.52c-25.32 59.3-58.73 128.64-94.56 178.86z"/><path d="m241.46 256c4.9-7.11 9.75-14.56 14.54-22.27v-3.8c-5.54 9.07-11.16 17.79-16.86 26.06h2.32z"/><path d="m234.4 256c7.33-10.59 14.54-21.94 21.6-33.81v-3.97c-7.79 13.3-15.78 26.01-23.91 37.78z"/><path d="m8.15 0c-2.62 6.7-5.34 13.54-8.15 20.48v5.83c3.65-8.94 7.16-17.74 10.52-26.31z"/><path d="m255.57 256c.14-.21.29-.42.43-.63v-3.43c-.91 1.36-1.83 2.71-2.75 4.06z"/><path d="m4.71 0c-1.54 3.92-3.11 7.89-4.71 11.9v5.91c2.43-6.03 4.79-11.97 7.08-17.81z"/><path d="m248.52 256c2.51-3.65 5-7.39 7.48-11.2v-3.62c-3.24 5.08-6.51 10.02-9.8 14.82z"/><path d="m244.99 256c3.7-5.37 7.37-10.94 11.01-16.67v-3.71c-4.39 7.04-8.84 13.85-13.33 20.38z"/><path d="m252.04 256c1.32-1.93 2.64-3.87 3.96-5.85v-3.53c-2.08 3.18-4.17 6.31-6.27 9.37h2.32z"/><path d="m195.56 256c21.46-30.47 42.01-67.69 60.44-105.34v-4.85c-19.01 39.26-40.39 78.37-62.75 110.18h2.31z"/><path d="m177.89 256c28.55-40.21 55.56-92.53 78.11-142.1v-5.22c-23 51.05-50.87 105.62-80.42 147.32z"/><path d="m181.42 256c27.09-38.21 52.77-87.29 74.58-134.54v-5.15c-22.28 48.78-48.82 100.02-76.89 139.68h2.31z"/><path d="m184.96 256c25.64-36.24 50.03-82.19 71.04-127.08v-5.07c-21.52 46.45-46.75 94.5-73.35 132.16h2.31z"/><path d="m174.35 256c30.05-42.25 58.39-97.93 81.65-149.75v-5.3c-23.67 53.26-52.89 111.29-83.96 155.05z"/><path d="m167.28 256c33.13-46.43 64.21-109.28 88.72-165.38v-5.45c-24.83 57.4-56.82 122.8-91.03 170.82h2.31z"/><path d="m188.49 256c24.23-34.29 47.32-77.23 67.51-119.73v-5c-20.72 44.08-44.65 89.04-69.82 124.73z"/><path d="m206.16 256c17.44-24.88 34.27-54.19 49.84-84.53v-4.62c-16.21 31.95-33.85 62.97-52.16 89.15h2.31z"/><path d="m209.69 256c16.13-23.05 31.74-49.89 46.31-77.81v-4.54c-15.22 29.53-31.64 58.02-48.63 82.35h2.31z"/><path d="m213.22 256c14.84-21.24 29.23-45.67 42.78-71.19v-4.46c-14.22 27.11-29.41 53.15-45.1 75.65h2.31z"/><path d="m216.75 256c13.56-19.44 26.74-41.53 39.25-64.68v-4.39c-13.19 24.73-27.17 48.38-41.57 69.06h2.31z"/><path d="m1.27 0c-.42 1.07-.85 2.14-1.27 3.22v5.98c1.23-3.09 2.44-6.16 3.64-9.2z"/><path d="m202.62 256c18.76-26.73 36.83-58.59 53.38-91.36v-4.7c-17.17 34.39-36.04 68.02-55.69 96.06z"/><path d="m199.09 256c20.1-28.59 39.4-63.09 56.91-98.29v-4.78c-18.1 36.83-38.22 73.15-59.22 103.07z"/><path d="m136.68 256h2.31c40.72-56.28 78.46-137.83 104.88-201.9 4.22-10.24 8.27-20.3 12.13-30.1v-6.04c-4.57 11.71-9.43 23.84-14.54 36.23-26.4 64.01-64.08 145.45-104.78 201.81z"/><path d="m97.74 256h2.3c41.59-56.36 80.25-139.76 107.16-205.02 7.29-17.68 14.07-34.85 20.23-50.98h-2.37c-6.18 16.15-12.97 33.36-20.27 51.07-26.89 65.2-65.49 148.48-107.06 204.93z"/><path d="m87.11 256h2.3c41.83-56.37 80.74-140.28 107.79-205.87 7.16-17.37 13.83-34.25 19.91-50.13h-2.37c-6.09 15.9-12.77 32.82-19.94 50.22-27.02 65.53-65.88 149.32-107.69 205.78z"/><path d="m90.65 256h2.3c41.75-56.36 80.58-140.11 107.59-205.6 7.2-17.47 13.91-34.44 20.02-50.4h-2.37c-6.12 15.99-12.84 33-20.05 50.5-26.98 65.42-65.75 149.04-107.48 205.5z"/><path d="m94.2 256h2.3c41.67-56.36 80.41-139.93 107.37-205.31 7.25-17.57 13.99-34.65 20.13-50.69h-2.37c-6.15 16.07-12.9 33.18-20.16 50.78-26.93 65.31-65.62 148.76-107.27 205.22z"/><path d="m111.91 256h2.3c41.27-56.34 79.59-139.06 106.32-203.89 7.46-18.09 14.39-35.66 20.67-52.11h-2.37c-6.29 16.48-13.23 34.08-20.7 52.2-26.71 64.76-64.97 147.37-106.22 203.8z"/><path d="m108.37 256h2.3c41.35-56.34 79.76-139.24 106.54-204.18 7.42-17.99 14.3-35.45 20.56-51.82h-2.37c-6.26 16.4-13.16 33.9-20.59 51.92-26.75 64.87-65.1 147.65-106.43 204.08z"/><path d="m104.83 256h2.3c41.43-56.35 79.92-139.41 106.74-204.46 7.38-17.89 14.23-35.25 20.45-51.54h-2.37c-6.24 16.32-13.1 33.72-20.49 51.63-26.8 64.98-65.23 147.93-106.64 204.37z"/><path d="m101.28 256h2.3c41.51-56.35 80.08-139.58 106.95-204.74 7.33-17.78 14.15-35.05 20.34-51.26h-2.37c-6.21 16.23-13.03 33.54-20.38 51.35-26.84 65.09-65.36 148.21-106.85 204.65z"/><path d="m69.4 256h2.3c42.23-56.37 81.57-141.14 108.85-207.29 6.95-16.85 13.43-33.24 19.37-48.71h-2.37c-5.94 15.49-12.44 31.91-19.4 48.8-27.25 66.08-66.53 150.73-108.74 207.2z"/><path d="m83.57 256h2.3c41.91-56.37 80.91-140.46 108.01-206.17 7.12-17.26 13.75-34.04 19.8-49.83h-2.37c-6.06 15.82-12.7 32.64-19.84 49.93-27.07 65.64-66.01 149.6-107.9 206.07z"/><path d="m72.94 256h2.3c42.15-56.37 81.4-140.97 108.63-207.01 6.99-16.95 13.51-33.44 19.47-48.99h-2.37c-5.97 15.57-12.5 32.1-19.51 49.08-27.2 65.97-66.4 150.45-108.53 206.92z"/><path d="m65.85 256h2.3c42.31-56.37 81.74-141.32 109.06-207.58 6.91-16.75 13.35-33.04 19.25-48.42h-2.37c-5.91 15.41-12.37 31.73-19.29 48.51-27.29 66.19-66.66 151.02-108.95 207.49z"/><path d="m76.48 256h2.3c42.07-56.37 81.24-140.8 108.42-206.73 7.03-17.06 13.59-33.65 19.58-49.27h-2.37c-6 15.66-12.57 32.28-19.62 49.37-27.16 65.86-66.27 150.17-108.32 206.63z"/><path d="m80.02 256h2.3c41.99-56.37 81.07-140.62 108.21-206.44 7.08-17.16 13.67-33.85 19.69-49.56h-2.37c-6.03 15.74-12.64 32.46-19.73 49.65-27.11 65.75-66.14 149.89-108.11 206.35z"/><path d="m140.22 256h2.31c40.64-56.27 78.3-137.66 104.68-201.63 3.02-7.33 5.95-14.57 8.79-21.69v-5.97c-3.58 9.05-7.32 18.33-11.2 27.75-26.35 63.9-63.95 145.17-104.58 201.53z"/><path d="m147.3 256h2.31c40.49-56.25 77.98-137.3 104.27-201.05.72-1.74 1.42-3.46 2.13-5.19v-5.82c-1.49 3.67-3 7.37-4.54 11.1-26.26 63.69-63.7 144.63-104.17 200.96z"/><path d="m143.76 256h2.31c40.57-56.26 78.14-137.48 104.47-201.34 1.86-4.5 3.68-8.96 5.46-13.39v-5.89c-2.55 6.37-5.17 12.84-7.87 19.37-26.31 63.8-63.83 144.9-104.37 201.25z"/><path d="m115.45 256h2.31c41.19-56.33 79.43-138.89 106.12-203.61 7.5-18.19 14.46-35.86 20.77-52.39h-2.37c-6.32 16.56-13.29 34.26-20.81 52.49-26.66 64.66-64.84 147.1-106.02 203.51z"/><path d="m160.21 256c36.37-50.79 70.29-121.46 95.79-181.41v-5.6c-25.72 61.06-60.59 134.53-98.1 187.01z"/><path d="m156.68 256c38.06-53.06 73.44-127.93 99.32-189.58v-5.67c-26.05 62.64-62.4 140.45-101.63 195.25z"/><path d="m0 0v.49c.06-.16.13-.33.19-.49z"/><path d="m150.83 256h2.31c39.8-55.39 76.68-134.68 102.86-197.86v-5.75c-.4.97-.8 1.95-1.2 2.93-26.22 63.58-63.57 144.36-103.96 200.68z"/><path d="m126.06 256h2.31c40.96-56.31 78.94-138.36 105.5-202.75 7.63-18.51 14.71-36.47 21.1-53.25h-2.37c-6.41 16.8-13.49 34.8-21.14 53.34-26.53 64.33-64.46 146.27-105.4 202.66z"/><path d="m62.3 256h2.3c42.39-56.37 81.91-141.49 109.28-207.86 6.86-16.65 13.27-32.84 19.15-48.14h-2.37c-5.88 15.32-12.31 31.55-19.18 48.23-27.34 66.3-66.79 151.3-109.17 207.77z"/><path d="m118.99 256h2.31c41.11-56.32 79.27-138.71 105.91-203.32 7.55-18.3 14.55-36.06 20.89-52.68h-2.37c-6.35 16.64-13.36 34.44-20.92 52.77-26.62 64.55-64.72 146.82-105.81 203.23z"/><path d="m122.53 256h2.31c41.04-56.32 79.11-138.53 105.71-203.04 7.59-18.4 14.63-36.27 20.99-52.96h-2.37c-6.38 16.72-13.43 34.62-21.03 53.05-26.57 64.44-64.59 146.54-105.61 202.95z"/><path d="m129.6 256h2.31c40.88-56.3 78.78-138.18 105.29-202.47 6.73-16.31 13.02-32.2 18.8-47.23v-6.19c-6.42 16.85-13.53 34.9-21.2 53.51-26.48 64.23-64.34 146-105.2 202.38z"/><path d="m133.14 256h2.31c40.8-56.29 78.62-138.01 105.09-202.19 5.45-13.22 10.62-26.17 15.46-38.6v-6.12c-5.52 14.31-11.5 29.37-17.87 44.82-26.44 64.12-64.21 145.72-104.99 202.1z"/><path d="m192.03 256c22.83-32.37 44.65-72.4 63.97-112.48v-4.92c-19.88 41.68-42.53 83.67-66.28 117.41h2.31z"/></g><path d="m.19 0c-.06.16-.13.33-.19.49v2.73c.42-1.08.85-2.15 1.27-3.22z" fill="url(#b)"/><path d="m3.64 0c-1.2 3.04-2.41 6.11-3.64 9.2v2.7c1.6-4.01 3.17-7.98 4.71-11.9z" fill="url(#c)"/><path d="m7.08 0c-2.29 5.84-4.65 11.78-7.08 17.81v2.67c2.81-6.94 5.53-13.78 8.15-20.48z" fill="url(#d)"/><path d="m10.52 0c-3.36 8.57-6.87 17.37-10.52 26.31v2.64c4.04-9.85 7.91-19.54 11.6-28.95h-1.07z" fill="url(#e)"/><path d="m1.47 33.77c4.75-11.52 9.28-22.83 13.57-33.77h-1.07c-4.25 10.83-8.73 22-13.43 33.39-.18.44-.36.88-.54 1.32v2.62c.49-1.19.99-2.38 1.47-3.56z" fill="url(#f)"/><path d="m0 43.01v2.59c1.64-3.9 3.24-7.75 4.81-11.54 4.79-11.63 9.36-23.03 13.68-34.06h-1.07c-4.28 10.91-8.8 22.19-13.54 33.68-1.27 3.07-2.56 6.19-3.88 9.33z" fill="url(#g)"/><path d="m0 51.2v2.56c2.82-6.62 5.53-13.11 8.14-19.42 4.83-11.73 9.44-23.22 13.79-34.34h-1.07c-4.31 11-8.87 22.37-13.64 33.95-2.32 5.62-4.73 11.38-7.21 17.25z" fill="url(#h)"/><path d="m0 59.29v2.53c4.02-9.32 7.85-18.42 11.47-27.2 4.88-11.82 9.52-23.41 13.91-34.62h-1.07c-4.34 11.09-8.94 22.56-13.76 34.24-3.34 8.1-6.86 16.48-10.54 25.05z" fill="url(#i)"/><path d="m0 67.27v2.5c5.25-12 10.2-23.71 14.81-34.87 4.91-11.92 9.59-23.61 14.01-34.9h-1.07c-4.38 11.18-9.01 22.74-13.87 34.53-4.33 10.51-8.97 21.49-13.88 32.75z" fill="url(#j)"/><path d="m0 75.16v2.47c6.5-14.66 12.57-28.94 18.14-42.45 4.95-12.01 9.67-23.8 14.13-35.18h-1.07c-4.41 11.27-9.08 22.92-13.98 34.81-5.31 12.86-11.07 26.43-17.22 40.35z" fill="url(#k)"/><path d="m0 82.94v2.44c7.76-17.27 14.96-34.13 21.47-49.92 5-12.11 9.75-23.99 14.24-35.46h-1.07c-4.44 11.35-9.15 23.11-14.09 35.09-6.25 15.16-13.14 31.3-20.54 47.84z" fill="url(#l)"/><path d="m0 90.62v2.41c9.04-19.84 17.37-39.25 24.81-57.28 5.04-12.22 9.83-24.19 14.35-35.75h-1.07c-4.47 11.44-9.22 23.29-14.2 35.38-7.18 17.41-15.2 36.11-23.88 55.24z" fill="url(#m)"/><path d="m0 98.2v2.38c10.33-22.36 19.8-44.32 28.14-64.55 5.08-12.32 9.91-24.39 14.46-36.04h-1.07c-4.51 11.53-9.29 23.48-14.31 35.66-8.1 19.63-17.25 40.88-27.22 62.55z" fill="url(#n)"/><path d="m0 105.67v2.36c11.63-24.82 22.24-49.33 31.47-71.71 5.12-12.42 9.99-24.59 14.57-36.32h-1.07c-4.54 11.62-9.36 23.65-14.42 35.94-8.99 21.78-19.28 45.59-30.55 69.73z" fill="url(#o)"/><path d="m0 113.04v2.33c12.95-27.22 24.7-54.27 34.8-78.77 5.16-12.52 10.07-24.78 14.68-36.6h-1.07c-4.57 11.71-9.43 23.84-14.53 36.23-9.86 23.91-21.3 50.25-33.88 76.81z" fill="url(#p)"/><path d="m0 120.31v2.3c14.26-29.55 27.18-59.14 38.14-85.73 5.2-12.62 10.14-24.98 14.79-36.89h-1.07c-4.6 11.79-9.5 24.03-14.65 36.51-10.72 26.02-23.31 54.9-37.21 83.81z" fill="url(#q)"/><path d="m0 127.48v2.27c15.59-31.81 29.66-63.94 41.47-92.58 5.24-12.72 10.22-25.17 14.9-37.17h-1.07c-4.64 11.88-9.57 24.21-14.76 36.8-11.57 28.07-25.32 59.49-40.54 90.68z" fill="url(#r)"/><path d="m0 134.54v2.25c16.92-34 32.16-68.67 44.8-99.33 5.29-12.82 10.3-25.37 15.01-37.45h-1.07c-4.67 11.97-9.63 24.39-14.87 37.08-12.41 30.1-27.32 64.06-43.87 97.45z" fill="url(#s)"/><path d="m0 141.5v2.22c18.25-36.1 34.67-73.31 48.14-105.98 5.33-12.92 10.38-25.57 15.12-37.74h-1.07c-4.7 12.05-9.7 24.58-14.98 37.36-13.24 32.12-29.33 68.62-47.21 104.14z" fill="url(#t)"/><path d="m0 148.35v2.18c19.59-38.12 37.18-77.87 51.47-112.51 5.37-13.02 10.46-25.76 15.23-38.02h-1.07c-4.73 12.14-9.77 24.76-15.09 37.65-14.06 34.1-31.32 73.14-50.54 110.7z" fill="url(#u)"/><path d="m0 155.09v2.16c20.93-40.05 39.71-82.35 54.8-118.95 5.41-13.12 10.54-25.96 15.34-38.3h-1.07c-4.76 12.23-9.84 24.94-15.2 37.92-14.86 36.06-33.32 77.66-53.87 117.17z" fill="url(#v)"/><path d="m0 161.73v2.13c22.27-41.89 42.25-86.74 58.14-125.27 5.45-13.22 10.62-26.16 15.46-38.59h-1.07c-4.8 12.31-9.91 25.13-15.31 38.21-15.68 38-35.33 82.15-57.22 123.52z" fill="url(#w)"/><path d="m0 168.26v2.1c23.61-43.64 44.79-91.04 61.47-131.49 5.49-13.32 10.7-26.35 15.57-38.87h-1.07c-4.83 12.4-9.98 25.31-15.42 38.49-16.47 39.92-37.32 86.62-60.55 129.77z" fill="url(#x)"/><path d="m0 174.68v2.07c24.94-45.29 47.34-95.26 64.8-137.6 5.53-13.42 10.77-26.55 15.68-39.15h-1.07c-4.86 12.49-10.05 25.49-15.53 38.78-17.25 41.82-39.31 91.08-63.88 135.9z" fill="url(#y)"/><path d="m0 180.99v2.04c26.28-46.84 49.9-99.38 68.14-143.59 5.58-13.52 10.85-26.75 15.79-39.44h-1.07c-4.89 12.58-10.12 25.68-15.64 39.06-18.03 43.7-41.32 95.53-67.22 141.93z" fill="url(#z)"/><path d="m0 187.19v2.01c27.62-48.29 52.47-103.4 71.47-149.48 5.62-13.62 10.93-26.95 15.9-39.72h-1.07c-4.92 12.66-10.19 25.86-15.75 39.35-18.8 45.56-43.31 99.97-70.55 147.84z" fill="url(#A)"/><path d="m0 193.27v1.98c28.95-49.63 55.04-107.32 74.8-155.25 5.66-13.72 11.01-27.14 16.01-40.01h-1.07c-4.96 12.75-10.26 26.04-15.86 39.63-19.56 47.43-45.31 104.42-73.88 153.65z" fill="url(#B)"/><path d="m0 199.24v1.95c30.28-50.86 57.62-111.15 78.14-160.9 5.7-13.82 11.09-27.34 16.12-40.29h-1.07c-4.99 12.83-10.32 26.22-15.97 39.91-20.32 49.25-47.32 108.84-77.22 159.33z" fill="url(#C)"/><path d="m0 205.1v1.92c31.6-51.98 60.2-114.87 81.47-166.45 5.74-13.93 11.17-27.54 16.23-40.57h-1.07c-5.02 12.92-10.39 26.41-16.08 40.2-21.07 51.08-49.33 113.26-80.55 164.9z" fill="url(#D)"/><path d="m0 210.83v1.89c32.92-52.98 62.79-118.48 84.8-171.87 5.78-14.03 11.24-27.73 16.34-40.86h-1.07c-5.05 13.01-10.46 26.58-16.19 40.48-21.81 52.9-51.33 117.7-83.88 170.36z" fill="url(#E)"/><path d="m0 216.45v1.87c34.24-53.86 65.38-121.99 88.14-177.18 5.83-14.13 11.32-27.93 16.45-41.14h-1.07c-5.08 13.09-10.53 26.77-16.3 40.77-22.56 54.69-53.36 122.11-87.22 175.68z" fill="url(#F)"/><path d="m0 221.95v1.83c35.54-54.62 67.98-125.39 91.47-182.35 5.87-14.23 11.4-28.13 16.56-41.42h-1.07c-5.11 13.18-10.6 26.95-16.41 41.05-23.3 56.47-55.38 126.53-90.55 180.89z" fill="url(#G)"/><path d="m0 227.32v1.81c36.85-55.25 70.58-128.68 94.8-187.42 5.91-14.33 11.48-28.33 16.67-41.71h-1.07c-5.14 13.27-10.67 27.14-16.52 41.33-24.03 58.26-57.41 130.97-93.88 185.99z" fill="url(#H)"/><path d="m0 232.57v1.77c38.14-55.76 73.18-131.84 98.14-192.35 5.95-14.43 11.56-28.53 16.78-41.99h-1.07c-5.17 13.35-10.74 27.32-16.63 41.62-24.77 60.03-59.45 135.39-97.22 190.95z" fill="url(#I)"/><path d="m0 237.69v1.74c39.43-56.12 75.79-134.89 101.47-197.16 5.99-14.53 11.64-28.72 16.89-42.27h-1.07c-5.2 13.43-10.8 27.5-16.74 41.89-25.49 61.8-61.49 139.84-100.55 195.8z" fill="url(#J)"/><path d="m0 242.7v1.7c40.71-56.37 78.4-137.82 104.8-201.84 6.03-14.63 11.72-28.92 17-42.56h-1.07c-5.24 13.52-10.87 27.68-16.85 42.18-26.21 63.55-63.54 144.29-103.88 200.52z" fill="url(#K)"/><path d="m0 247.55v1.68c41.98-56.46 81.02-140.62 108.14-206.39 6.08-14.73 11.8-29.12 17.11-42.84h-1.07c-5.27 13.61-10.94 27.86-16.96 42.46-26.93 65.3-65.61 148.73-107.22 205.09z" fill="url(#L)"/><path d="m0 252.29v1.65c43.24-56.43 83.63-143.31 111.47-210.81 6.12-14.84 11.88-29.32 17.22-43.13h-1.07c-5.3 13.69-11.01 28.05-17.07 42.75-27.65 67.03-67.68 153.19-110.55 209.54z" fill="url(#M)"/><path d="m.69 256h1.26c43.77-56.36 84.72-144.37 112.85-212.59 6.16-14.94 11.95-29.52 17.33-43.41h-1.07c-5.33 13.78-11.08 28.23-17.18 43.04-28.21 68.4-69.32 156.73-113.19 212.96z" fill="url(#N)"/><path d="m4.25 256h1.26c43.68-56.37 84.54-144.2 112.63-212.31 6.2-15.04 12.03-29.72 17.43-43.69h-1.07c-5.36 13.86-11.14 28.41-17.29 43.32-28.16 68.29-69.18 156.44-112.96 212.68z" fill="url(#O)"/><path d="m7.8 256h1.26c43.6-56.38 84.37-144.03 112.41-212.02 6.24-15.14 12.11-29.91 17.54-43.98h-1.07c-5.39 13.95-11.21 28.59-17.4 43.6-28.11 68.18-69.04 156.14-112.74 212.4z" fill="url(#P)"/><path d="m11.35 256h1.26c43.52-56.39 84.2-143.86 112.19-211.74 6.29-15.24 12.19-30.11 17.65-44.26h-1.07c-5.42 14.03-11.28 28.77-17.51 43.88-28.06 68.07-68.9 155.85-112.52 212.12z" fill="url(#Q)"/><path d="m14.9 256h1.26c43.43-56.4 84.03-143.69 111.97-211.46 6.33-15.35 12.27-30.31 17.76-44.54h-1.07c-5.45 14.12-11.35 28.96-17.62 44.17-28.01 67.95-68.76 155.55-112.3 211.83z" fill="url(#R)"/><path d="m18.45 256h1.26c43.35-56.41 83.86-143.52 111.75-211.17 6.37-15.45 12.35-30.51 17.87-44.83h-1.07c-5.48 14.2-11.41 29.13-17.73 44.45-27.97 67.84-68.63 155.26-112.09 211.55z" fill="url(#S)"/><path d="m22.01 256h1.26c43.27-56.42 83.68-143.35 111.53-210.89 6.41-15.55 12.43-30.71 17.98-45.11h-1.07c-5.51 14.29-11.48 29.32-17.84 44.74-27.93 67.72-68.5 154.96-111.87 211.26z" fill="url(#T)"/><path d="m25.56 256h1.26c43.19-56.43 83.51-143.18 111.31-210.61 6.45-15.65 12.51-30.91 18.09-45.39h-1.07c-5.54 14.37-11.55 29.5-17.95 45.02-27.88 67.61-68.36 154.67-111.65 210.98z" fill="url(#U)"/><path d="m29.11 256h1.26c43.1-56.43 83.34-143.01 111.1-210.32 6.5-15.75 12.59-31.11 18.2-45.68h-1.07c-5.57 14.46-11.62 29.68-18.06 45.3-27.83 67.49-68.22 154.38-111.43 210.7z" fill="url(#V)"/><path d="m32.66 256h1.26c43.02-56.44 83.17-142.84 110.88-210.04 6.54-15.86 12.67-31.31 18.31-45.96h-1.07c-5.6 14.54-11.68 29.87-18.17 45.59-27.79 67.38-68.09 154.09-111.21 210.41z" fill="url(#W)"/><path d="m36.22 256h1.25c42.94-56.45 83-142.67 110.67-209.75 6.58-15.96 12.75-31.51 18.42-46.25h-1.07c-5.63 14.62-11.75 30.04-18.27 45.86-27.74 67.27-67.95 153.8-110.99 210.14z" fill="url(#X)"/><path d="m39.76 256h1.25c42.86-56.45 82.83-142.5 110.45-209.47 6.62-16.06 12.82-31.71 18.53-46.53h-1.07c-5.66 14.71-11.82 30.23-18.39 46.16-27.69 67.15-67.82 153.51-110.78 209.84z" fill="url(#Y)"/><path d="m43.31 256h1.25c42.78-56.45 82.67-142.33 110.24-209.19 6.67-16.16 12.9-31.91 18.64-46.81h-1.07c-5.69 14.79-11.88 30.41-18.49 46.43-27.65 67.05-67.68 153.22-110.56 209.57z" fill="url(#Z)"/><path d="m46.86 256h1.25c42.7-56.46 82.5-142.16 110.02-208.9 6.71-16.27 12.98-32.11 18.75-47.1h-1.07c-5.73 14.88-11.95 30.59-18.6 46.72-27.6 66.93-67.55 152.93-110.35 209.28z" fill="url(#aa)"/><path d="m50.41 256h1.25c42.62-56.46 82.33-141.98 109.81-208.62 6.75-16.37 13.06-32.31 18.86-47.38h-1.07c-5.76 14.96-12.02 30.77-18.71 47.01-27.55 66.82-67.42 152.64-110.13 208.99z" fill="url(#ab)"/><path d="m53.95 256h1.25c42.54-56.46 82.16-141.81 109.59-208.34 6.79-16.47 13.14-32.51 18.96-47.66h-1.07c-5.79 15.05-12.08 30.95-18.82 47.29-27.51 66.71-67.28 152.35-109.92 208.71z" fill="url(#ac)"/><path d="m57.5 256h1.25c42.45-56.47 81.99-141.64 109.38-208.05 6.83-16.57 13.22-32.71 19.07-47.95h-1.07c-5.81 15.13-12.15 31.13-18.93 47.57-27.46 66.6-67.15 152.07-109.7 208.43z" fill="url(#ad)"/><path d="m61.05 256h1.25c42.37-56.47 81.83-141.47 109.17-207.77 6.88-16.68 13.3-32.91 19.18-48.23h-1.07c-5.84 15.21-12.22 31.31-19.04 47.85-27.42 66.49-67.02 151.79-109.49 208.15z" fill="url(#ae)"/><path d="m64.6 256h1.25c42.29-56.47 81.66-141.3 108.95-207.49 6.92-16.78 13.38-33.11 19.29-48.51h-1.07c-5.87 15.3-12.28 31.5-19.15 48.14-27.37 66.37-66.88 151.49-109.28 207.86z" fill="url(#af)"/><path d="m68.14 256h1.25c42.21-56.47 81.49-141.12 108.74-207.2 6.96-16.88 13.46-33.31 19.4-48.8h-1.07c-5.9 15.38-12.35 31.67-19.25 48.42-27.32 66.26-66.75 151.21-109.06 207.58z" fill="url(#ag)"/><path d="m71.69 256h1.25c42.13-56.47 81.32-140.95 108.53-206.92 7-16.99 13.54-33.51 19.51-49.08h-1.07c-5.93 15.46-12.42 31.86-19.37 48.71-27.28 66.15-66.62 150.92-108.85 207.29z" fill="url(#ah)"/><path d="m75.24 256h1.24c42.05-56.47 81.16-140.78 108.32-206.63 7.05-17.09 13.62-33.71 19.62-49.37h-1.07c-5.96 15.55-12.48 32.04-19.47 48.99-27.23 66.04-66.48 150.64-108.63 207.01z" fill="url(#ai)"/><path d="m78.78 256h1.24c41.97-56.46 81-140.6 108.11-206.35 7.09-17.19 13.7-33.91 19.73-49.65h-1.07c-5.99 15.63-12.55 32.22-19.58 49.27-27.19 65.93-66.35 150.36-108.42 206.73z" fill="url(#aj)"/><path d="m82.33 256h1.24c41.89-56.46 80.83-140.43 107.9-206.07 7.13-17.3 13.78-34.11 19.84-49.93h-1.07c-6.02 15.71-12.62 32.4-19.69 49.56-27.14 65.82-66.22 150.07-108.21 206.44z" fill="url(#ak)"/><path d="m85.87 256h1.24c41.81-56.46 80.67-140.25 107.69-205.78 7.17-17.4 13.85-34.31 19.94-50.22h-1.07c-6.05 15.79-12.68 32.57-19.8 49.83-27.1 65.71-66.09 149.8-108.01 206.17z" fill="url(#al)"/><path d="m89.41 256h1.24c41.73-56.46 80.5-140.08 107.48-205.5 7.22-17.5 13.93-34.51 20.05-50.5h-1.07c-6.08 15.88-12.75 32.76-19.91 50.13-27.05 65.6-65.96 149.51-107.79 205.87z" fill="url(#am)"/><path d="m92.96 256h1.24c41.65-56.45 80.34-139.91 107.27-205.22 7.26-17.61 14.01-34.71 20.16-50.78h-1.07c-6.11 15.96-12.81 32.93-20.02 50.4-27.01 65.49-65.83 149.23-107.59 205.6z" fill="url(#an)"/><path d="m96.5 256h1.24c41.57-56.45 80.17-139.73 107.06-204.93 7.3-17.71 14.09-34.92 20.27-51.07h-1.07c-6.14 16.04-12.88 33.12-20.13 50.69-26.96 65.38-65.7 148.95-107.37 205.31z" fill="url(#ao)"/><path d="m100.04 256h1.24c41.49-56.44 80.01-139.56 106.85-204.65 7.35-17.81 14.17-35.12 20.38-51.35h-1.07c-6.17 16.12-12.95 33.3-20.23 50.98-26.92 65.27-65.57 148.67-107.16 205.02z" fill="url(#ap)"/><path d="m103.58 256h1.24c41.41-56.44 79.84-139.38 106.64-204.37 7.39-17.92 14.25-35.32 20.49-51.63h-1.07c-6.2 16.21-13.01 33.48-20.34 51.26-26.87 65.16-65.44 148.39-106.95 204.74z" fill="url(#aq)"/><path d="m107.13 256h1.24c41.33-56.43 79.68-139.21 106.43-204.08 7.43-18.02 14.33-35.52 20.59-51.92h-1.07c-6.23 16.29-13.08 33.66-20.45 51.54-26.82 65.05-65.31 148.11-106.74 204.46z" fill="url(#ar)"/><path d="m110.67 256h1.24c41.25-56.43 79.52-139.03 106.22-203.8 7.47-18.13 14.41-35.72 20.7-52.2h-1.07c-6.25 16.37-13.14 33.83-20.56 51.82-26.78 64.94-65.18 147.84-106.54 204.18z" fill="url(#as)"/><path d="m114.21 256h1.23c41.17-56.42 79.35-138.86 106.02-203.51 7.52-18.23 14.49-35.92 20.81-52.49h-1.07c-6.28 16.45-13.21 34.02-20.67 52.11-26.73 64.83-65.05 147.55-106.32 203.89z" fill="url(#at)"/><path d="m117.75 256h1.23c41.1-56.41 79.19-138.68 105.81-203.23 7.56-18.33 14.57-36.13 20.92-52.77h-1.07c-6.31 16.53-13.27 34.19-20.77 52.39-26.69 64.72-64.93 147.28-106.12 203.61z" fill="url(#au)"/><path d="m121.29 256h1.23c41.02-56.4 79.03-138.51 105.61-202.95 7.6-18.44 14.65-36.33 21.03-53.05h-1.07c-6.34 16.62-13.34 34.38-20.89 52.68-26.65 64.61-64.8 147-105.91 203.32z" fill="url(#av)"/><path d="m124.83 256h1.23c40.94-56.39 78.87-138.33 105.4-202.66 7.65-18.54 14.73-36.53 21.14-53.34h-1.07c-6.37 16.7-13.4 34.56-20.99 52.96-26.6 64.51-64.67 146.72-105.71 203.04z" fill="url(#aw)"/><path d="m128.37 256h1.23c40.86-56.39 78.71-138.15 105.2-202.38 7.67-18.6 14.78-36.65 21.2-53.51v-.11h-1.03c-6.4 16.78-13.47 34.74-21.1 53.25-26.56 64.4-64.54 146.45-105.5 202.75z" fill="url(#ax)"/><path d="m131.91 256h1.23c40.78-56.38 78.55-137.98 104.99-202.1 6.37-15.44 12.35-30.5 17.87-44.82v-2.78c-5.78 15.03-12.07 30.91-18.8 47.23-26.51 64.29-64.42 146.17-105.29 202.47z" fill="url(#ay)"/><path d="m135.45 256h1.23c40.7-56.37 78.39-137.8 104.78-201.81 5.11-12.39 9.96-24.52 14.54-36.23v-2.75c-4.84 12.43-10.01 25.38-15.46 38.6-26.47 64.18-64.29 145.9-105.09 202.19z" fill="url(#az)"/><path d="m138.99 256h1.23c40.62-56.35 78.23-137.63 104.58-201.53 3.88-9.42 7.62-18.7 11.2-27.75v-2.72c-3.86 9.79-7.91 19.86-12.13 30.1-26.42 64.07-64.16 145.62-104.88 201.9z" fill="url(#aA)"/><path d="m142.53 256h1.23c40.55-56.34 78.07-137.45 104.37-201.25 2.69-6.53 5.32-13 7.87-19.37v-2.7c-2.84 7.12-5.77 14.36-8.79 21.69-26.38 63.97-64.04 145.35-104.68 201.63z" fill="url(#aB)"/><path d="m146.06 256h1.23c40.47-56.33 77.9-137.28 104.17-200.96 1.54-3.72 3.05-7.42 4.54-11.1v-2.67c-1.79 4.43-3.61 8.89-5.46 13.39-26.33 63.86-63.91 145.07-104.47 201.34z" fill="url(#aC)"/><path d="m149.6 256h1.23c40.39-56.32 77.74-137.1 103.96-200.68.4-.98.8-1.95 1.2-2.93v-2.64c-.71 1.73-1.41 3.45-2.13 5.19-26.29 63.75-63.78 144.8-104.27 201.05z" fill="url(#aD)"/><path d="m154.37 256c39.23-54.8 75.59-132.61 101.63-195.25v-2.61c-26.18 63.18-63.06 142.47-102.86 197.86z" fill="url(#aE)"/><path d="m157.9 256c37.51-52.48 72.37-125.95 98.1-187.01v-2.58c-25.88 61.66-61.26 136.53-99.32 189.58h1.22z" fill="url(#aF)"/><path d="m161.44 256c35.84-50.22 69.25-119.56 94.56-178.86v-2.55c-25.5 59.95-59.42 130.62-95.79 181.41h1.22z" fill="url(#aG)"/><path d="m164.97 256c34.21-48.02 66.2-113.42 91.03-170.82v-2.52c-25.04 58.09-57.52 124.75-92.25 173.34z" fill="url(#aH)"/><path d="m168.51 256c32.62-45.87 63.21-107.51 87.49-162.89v-2.49c-24.5 56.1-55.58 118.95-88.72 165.38h1.22z" fill="url(#aI)"/><path d="m172.04 256c31.07-43.76 60.29-101.79 83.96-155.05v-2.46c-23.91 54.01-53.61 113.19-85.18 157.51z" fill="url(#aJ)"/><path d="m175.58 256c29.55-41.7 57.42-96.27 80.42-147.32v-2.44c-23.26 51.82-51.6 107.5-81.65 149.75h1.22z" fill="url(#aK)"/><path d="m179.11 256c28.06-39.66 54.61-90.91 76.89-139.68v-2.41c-22.56 49.57-49.56 101.88-78.11 142.1h1.22z" fill="url(#aL)"/><path d="m182.65 256c26.6-37.66 51.83-85.71 73.35-132.16v-2.38c-21.81 47.25-47.49 96.33-74.58 134.54h1.22z" fill="url(#aM)"/><path d="m186.18 256c25.17-35.69 49.1-80.65 69.82-124.73v-2.35c-21.02 44.89-45.4 90.84-71.04 127.08z" fill="url(#aN)"/><path d="m189.72 256c23.76-33.74 46.4-75.73 66.28-117.41v-2.32c-20.19 42.5-43.28 85.44-67.51 119.73h1.22z" fill="url(#aO)"/><path d="m193.25 256c22.37-31.82 43.75-70.93 62.75-110.18v-2.3c-19.32 40.08-41.14 80.11-63.97 112.48z" fill="url(#aP)"/><path d="m196.78 256c21-29.92 41.12-66.24 59.22-103.07v-2.27c-18.43 37.65-38.98 74.87-60.44 105.34z" fill="url(#aQ)"/><path d="m200.31 256c19.65-28.04 38.52-61.67 55.69-96.06v-2.24c-17.5 35.21-36.81 69.71-56.91 98.29h1.22z" fill="url(#aR)"/><path d="m203.84 256c18.31-26.17 35.95-57.2 52.16-89.15v-2.21c-16.55 32.77-34.62 64.63-53.38 91.36z" fill="url(#aS)"/><path d="m207.37 256c16.99-24.33 33.41-52.82 48.63-82.35v-2.18c-15.57 30.34-32.41 59.65-49.84 84.53h1.22z" fill="url(#aT)"/><path d="m210.9 256c15.69-22.5 30.88-48.54 45.1-75.65v-2.15c-14.57 27.92-30.18 54.75-46.31 77.81h1.22z" fill="url(#aU)"/><path d="m214.43 256c14.4-20.68 28.38-44.34 41.57-69.06v-2.13c-13.55 25.52-27.95 49.95-42.78 71.19h1.22z" fill="url(#aV)"/><path d="m217.96 256c13.12-18.88 25.9-40.22 38.04-62.59v-2.09c-12.51 23.15-25.7 45.24-39.25 64.68h1.22z" fill="url(#aW)"/><path d="m221.5 256c11.86-17.09 23.43-36.18 34.5-56.21v-2.07c-11.45 20.81-23.43 40.64-35.72 58.28z" fill="url(#aX)"/><path d="m225.03 256c10.61-15.3 20.98-32.21 30.97-49.96v-2.03c-10.37 18.51-21.16 36.12-32.19 51.99z" fill="url(#aY)"/><path d="m228.56 256c9.36-13.53 18.54-28.31 27.44-43.81v-2.01c-9.28 16.25-18.87 31.72-28.66 45.82z" fill="url(#aZ)"/><path d="m232.09 256c8.13-11.77 16.12-24.48 23.91-37.78v-1.97c-8.17 14.03-16.58 27.42-25.13 39.76h1.22z" fill="url(#a0)"/><path d="m235.62 256c6.91-10.02 13.72-20.71 20.38-31.86v-1.95c-7.06 11.87-14.27 23.22-21.6 33.81h1.21z" fill="url(#a1)"/><path d="m239.14 256c5.69-8.27 11.32-17 16.86-26.06v-1.91c-5.93 9.76-11.96 19.13-18.07 27.98h1.21z" fill="url(#a2)"/><path d="m242.67 256c4.49-6.53 8.94-13.34 13.33-20.38v-1.89c-4.79 7.71-9.64 15.16-14.54 22.27z" fill="url(#a3)"/><path d="m246.2 256c3.29-4.79 6.56-9.74 9.8-14.82v-1.85c-3.64 5.73-7.31 11.29-11.01 16.67z" fill="url(#a4)"/><path d="m249.73 256c2.1-3.07 4.19-6.19 6.27-9.37v-1.83c-2.48 3.82-4.98 7.55-7.48 11.2z" fill="url(#a5)"/><path d="m253.25 256c.92-1.34 1.83-2.69 2.75-4.06v-1.79c-1.31 1.97-2.63 3.92-3.96 5.85z" fill="url(#a6)"/><path d="m256 256v-.63c-.14.21-.29.42-.43.63z" fill="url(#a7)"/><path d="m172.91 246.06c-26.14-30.95-45.27-82.87-52.48-142.46-4.3-35.55-4.12-70.79.3-103.6h-4.16c-4.54 33-4.77 68.5-.43 104.31 7.19 59.4 26.23 111.14 52.25 141.94 3 3.55 6.09 6.8 9.24 9.75h4.71c-3.22-3-6.36-6.32-9.42-9.94z" fill="none"/><path d="m43.41 0h-4.13c-6.37 36.46-7.27 76.45-2.38 116.84 6.98 57.65 25.12 108.08 49.97 139.16h4.68c-25.05-31.2-43.34-81.91-50.36-139.88-4.85-40.12-4.01-79.84 2.22-116.12z" fill="none"/><path d="m7.48 0h-4.11c-1.32 6.85-2.44 13.84-3.37 20.93v102.4c6.61 53.9 22.98 101.44 45.46 132.67h4.66c-22.77-31.49-39.32-79.55-45.91-134.03-5.12-42.28-3.91-84.13 3.27-121.97z" fill="none"/><path d="m246.88 234.37c-26.14-30.94-45.27-82.87-52.48-142.46-3.79-31.36-4.1-62.48-1.09-91.91h-4.19c-3.11 29.63-2.84 61 .99 92.62 7.19 59.4 26.23 111.14 52.25 141.94 4.39 5.2 8.95 9.74 13.64 13.65v-4.18c-3.11-2.93-6.15-6.14-9.12-9.66z" fill="none"/><path d="m236.31 236.04c-26.14-30.95-45.27-82.87-52.48-142.46-3.87-31.95-4.11-63.66-.91-93.58h-4.19c-3.3 30.12-3.09 62.08.81 94.29 7.19 59.4 26.23 111.14 52.25 141.94 6.93 8.21 14.28 14.81 21.95 19.77h2.26v-1.66c-6.85-4.8-13.44-10.9-19.69-18.3z" fill="none"/><path d="m178.2 245.22c-26.14-30.95-45.27-82.87-52.48-142.46-4.26-35.25-4.13-70.19.19-102.76h-4.16c-4.43 32.76-4.62 67.96-.32 103.48 7.19 59.4 26.23 111.14 52.25 141.94 3.29 3.89 6.67 7.42 10.13 10.59h4.71c-3.53-3.22-6.98-6.81-10.32-10.78z" fill="none"/><path d="m241.59 235.2c-26.14-30.95-45.27-82.87-52.48-142.46-3.83-31.66-4.11-63.07-1-92.74h-4.19c-3.21 29.87-2.97 61.54.9 93.46 7.19 59.4 26.23 111.14 52.25 141.94 6.02 7.12 12.35 13.03 18.92 17.71v-3.61c-4.97-4.06-9.78-8.82-14.41-14.3z" fill="none"/><path d="m48.55 0h-4.13c-6.24 36.23-7.09 75.92-2.24 116 7.04 58.18 25.46 108.99 50.66 140h4.68c-25.4-31.13-43.96-82.22-51.04-140.71-4.82-39.81-4.02-79.23 2.08-115.29z" fill="none"/><path d="m0 238.43c3.25 6.26 6.69 12.13 10.31 17.57h4.64c-5.38-8.07-10.38-17.09-14.94-26.91v9.34z" fill="none"/><path d="m38.26 0h-4.12c-6.5 36.68-7.45 76.97-2.53 117.67 6.91 57.15 24.81 107.18 49.32 138.33h4.67c-24.71-31.27-42.74-81.59-49.69-139.04-4.89-40.42-4-80.45 2.36-116.96z" fill="none"/><path d="m157.06 248.56c-26.14-30.95-45.27-82.87-52.48-142.46-4.41-36.45-4.12-72.58.64-106.1h-4.16c-4.88 33.7-5.22 70.1-.78 106.82 7.19 59.4 26.23 111.14 52.25 141.94 2.18 2.58 4.4 4.99 6.65 7.25h4.69c-2.32-2.31-4.59-4.79-6.83-7.44z" fill="none"/><path d="m203.71 0h-4.2c-2.93 29.13-2.59 59.92 1.16 90.95 7.19 59.4 26.23 111.14 52.25 141.94 1.02 1.2 2.04 2.36 3.07 3.49v-5.44c-25.4-31.13-43.96-82.22-51.03-140.7-3.72-30.77-4.09-61.3-1.26-90.24z" fill="none"/><path d="m199.68 91.07c-3.76-31.06-4.1-61.89-1.18-91.07h-4.19c-3.02 29.38-2.72 60.46 1.07 91.79 7.19 59.4 26.23 111.14 52.25 141.94 2.72 3.22 5.51 6.19 8.36 8.92v-4.78c-1.29-1.39-2.57-2.83-3.84-4.33-26.14-30.94-45.27-82.87-52.48-142.46z" fill="none"/><path d="m167.63 246.89c-26.14-30.94-45.27-82.87-52.48-142.46-4.34-35.85-4.12-71.38.42-104.43h-4.16c-4.66 33.24-4.92 69.03-.55 105.15 7.19 59.4 26.23 111.14 52.25 141.94 2.72 3.22 5.51 6.19 8.35 8.92h4.7c-2.91-2.78-5.76-5.81-8.54-9.11z" fill="none"/><path d="m0 0v13.79c.7-4.65 1.48-9.25 2.35-13.79z" fill="none"/><path d="m162.35 247.73c-26.14-30.94-45.27-82.87-52.48-142.46-4.37-36.15-4.12-71.98.53-105.27h-4.16c-4.77 33.47-5.07 69.56-.66 105.98 7.19 59.4 26.23 111.14 52.25 141.94 2.45 2.9 4.95 5.59 7.49 8.08h4.71c-2.61-2.55-5.17-5.3-7.68-8.27z" fill="none"/><path d="m225.75 237.71c-26.14-30.94-45.27-82.87-52.48-142.46-3.94-32.55-4.12-64.84-.73-95.25h-4.19c-3.5 30.6-3.34 63.15.63 95.96 7.19 59.4 26.23 111.14 52.25 141.94 6.18 7.32 12.7 13.36 19.48 18.1h4.72c-6.85-4.8-13.43-10.9-19.68-18.29z" fill="none"/><path d="m17.74 0h-4.11c-7.05 37.57-8.22 79.07-3.14 121.01 6.67 55.15 23.57 103.67 46.77 134.99h4.66c-23.39-31.45-40.43-80.25-47.13-135.7-5.06-41.66-3.95-82.9 2.95-120.3z" fill="none"/><path d="m204.61 241.05c-26.14-30.95-45.27-82.87-52.48-142.46-4.08-33.74-4.13-67.21-.34-98.59h-4.18c-3.9 31.57-3.89 65.29.22 99.3 7.19 59.4 26.23 111.14 52.25 141.94 4.82 5.7 9.83 10.62 15.02 14.76h4.71c-5.25-4.19-10.33-9.18-15.21-14.95z" fill="none"/><path d="m28 0h-4.11c-6.77 37.13-7.83 78.02-2.83 119.34 6.79 56.14 24.18 105.41 48.02 136.66h4.67c-24.04-31.37-41.57-80.93-48.4-137.37-4.97-41.04-3.97-81.67 2.66-118.63z" fill="none"/><path d="m220.46 238.54c-26.14-30.94-45.27-82.87-52.48-142.46-3.97-32.85-4.13-65.43-.64-96.08h-4.18c-3.59 30.85-3.48 63.69.53 96.8 7.19 59.4 26.23 111.14 52.25 141.94 5.82 6.89 11.94 12.66 18.29 17.27h4.73c-6.43-4.66-12.61-10.49-18.5-17.46z" fill="none"/><path d="m183.48 244.39c-26.14-30.94-45.27-82.87-52.48-142.46-4.23-34.94-4.14-69.59.07-101.93h-4.16c-4.32 32.53-4.46 67.43-.2 102.64 7.19 59.4 26.23 111.14 52.25 141.94 3.58 4.24 7.28 8.04 11.07 11.42h4.71c-3.86-3.43-7.61-7.3-11.26-11.61z" fill="none"/><path d="m209.9 240.21c-26.14-30.95-45.27-82.87-52.48-142.46-4.05-33.44-4.13-66.62-.44-97.75h-4.17c-3.8 31.33-3.76 64.76.32 98.47 7.19 59.4 26.23 111.14 52.25 141.94 5.14 6.09 10.51 11.29 16.06 15.6h4.73c-5.63-4.36-11.07-9.62-16.28-15.79z" fill="none"/><path d="m215.18 239.38c-26.14-30.94-45.27-82.87-52.48-142.46-4.01-33.15-4.13-66.02-.54-96.92h-4.17c-3.69 31.09-3.62 64.22.43 97.63 7.19 59.4 26.23 111.14 52.25 141.94 5.48 6.49 11.22 11.97 17.17 16.43h4.72c-6.02-4.52-11.83-10.06-17.37-16.62z" fill="none"/><path d="m33.13 0h-4.11c-6.64 36.9-7.64 77.5-2.68 118.51 6.85 56.64 24.49 106.29 48.67 137.49h4.67c-24.38-31.33-42.15-81.26-49.04-138.21-4.93-40.73-3.99-81.06 2.5-117.79z" fill="none"/><path d="m188.76 243.55c-26.14-30.94-45.27-82.87-52.48-142.46-4.19-34.64-4.14-69-.03-101.09h-4.17c-4.21 32.29-4.31 66.9-.09 101.81 7.19 59.4 26.23 111.14 52.25 141.94 3.88 4.59 7.88 8.68 12 12.26h4.72c-4.19-3.63-8.26-7.78-12.2-12.45z" fill="none"/><path d="m12.61 0h-4.11c-7.19 37.79-8.41 79.6-3.3 121.85 6.61 54.66 23.27 102.81 46.16 134.15h4.66c-23.08-31.47-39.87-79.9-46.52-134.87-5.09-41.97-3.93-83.51 3.11-121.13z" fill="none"/><path d="m199.33 241.88c-26.14-30.94-45.27-82.87-52.48-142.46-4.12-34.04-4.13-67.8-.24-99.42h-4.18c-4 31.81-4.03 65.83.12 100.14 7.19 59.4 26.23 111.14 52.25 141.94 4.49 5.32 9.16 9.96 13.97 13.93h4.73c-4.89-4.02-9.63-8.72-14.18-14.12z" fill="none"/><path d="m194.05 242.72c-26.14-30.94-45.27-82.87-52.48-142.46-4.16-34.34-4.13-68.4-.13-100.26h-4.18c-4.11 32.05-4.17 66.36.02 100.97 7.19 59.4 26.23 111.14 52.25 141.94 4.18 4.95 8.52 9.31 12.99 13.09h4.71c-4.53-3.83-8.93-8.26-13.18-13.28z" fill="none"/><path d="m231.03 236.87c-26.14-30.94-45.27-82.87-52.48-142.46-3.9-32.25-4.12-64.25-.82-94.41h-4.19c-3.4 30.36-3.22 62.61.72 95.13 7.19 59.4 26.23 111.14 52.25 141.94 6.55 7.76 13.47 14.08 20.68 18.94h4.72c-7.28-4.91-14.27-11.3-20.88-19.13z" fill="none"/><path d="m67.61 111.95c-4.67-38.58-4.07-76.8 1.52-111.95h-4.13c-5.73 35.32-6.38 73.81-1.68 112.66 7.19 59.4 26.23 111.14 52.25 141.94.4.48.81.94 1.21 1.4h4.68c-.46-.52-.92-1.05-1.37-1.59-26.14-30.94-45.27-82.87-52.48-142.46z" fill="none"/><path d="m0 213.36c6.32 16.11 13.72 30.5 21.99 42.64h4.65c-10.37-15.16-19.38-33.83-26.64-54.97z" fill="none"/><path d="m62.32 112.78c-4.71-38.89-4.06-77.41 1.66-112.78h-4.13c-5.85 35.55-6.56 74.34-1.82 113.5 7.19 59.4 26.23 111.14 52.25 141.94.16.19.33.37.49.56h4.68c-.22-.25-.43-.5-.65-.75-26.14-30.95-45.27-82.87-52.48-142.46z" fill="none"/><path d="m245.38 0h-4.22c-2.25 27.14-1.69 55.6 1.77 84.27 2.73 22.56 7.17 44.01 13.06 63.64v-16.33c-3.79-15.21-6.75-31.31-8.77-48.02-3.44-28.41-4.01-56.62-1.85-83.55z" fill="none"/><path d="m234.95 0h-4.2c-2.41 27.64-1.91 56.69 1.63 85.94 4.18 34.56 12.38 66.5 23.62 93.26v-11.49c-9.05-24.42-15.7-52.48-19.33-82.48-3.51-29-4.04-57.79-1.72-85.22z" fill="none"/><path d="m250.6 0h-4.22c-2.17 26.89-1.59 55.06 1.84 83.43 1.84 15.21 4.46 29.91 7.77 43.89v-21.38c-1.36-7.59-2.53-15.34-3.48-23.22-3.4-28.12-4-56.04-1.91-82.72z" fill="none"/><path d="m78.17 110.28c-4.59-37.97-4.08-75.59 1.27-110.28h-4.15c-5.48 34.86-6.04 72.75-1.41 110.99 7.19 59.4 26.23 111.14 52.25 141.94.89 1.05 1.79 2.07 2.69 3.07h4.69c-.96-1.06-1.91-2.14-2.86-3.26-26.14-30.94-45.27-82.87-52.48-142.46z" fill="none"/><path d="m240.17 0h-4.22c-2.33 27.39-1.8 56.15 1.71 85.1 3.5 28.89 9.8 55.95 18.34 79.68v-13.47c-6.38-20.52-11.17-43.11-14.05-66.93-3.47-28.7-4.03-57.2-1.78-84.39z" fill="none"/><path d="m0 256h3.28c-1.11-1.71-2.2-3.45-3.28-5.24z" fill="none"/><path d="m0 248.8c1.46 2.47 2.95 4.87 4.47 7.2h4.64c-3.17-4.82-6.21-9.98-9.11-15.43v8.24z" fill="none"/><path d="m253.51 82.6c.71 5.9 1.55 11.72 2.49 17.45v-36.2c-1.71-21.7-1.75-43.14-.18-63.85h-4.22c-2.09 26.64-1.49 54.52 1.9 82.6z" fill="none"/><path d="m256 47v-32.9c-.43 10.82-.44 21.81 0 32.89z" fill="none"/><path d="m22.87 0h-4.11c-6.91 37.35-8.02 78.55-2.99 120.18 6.73 55.63 23.86 104.54 47.38 135.82h4.66c-23.71-31.41-40.98-80.6-47.75-136.54-5-41.35-3.95-82.29 2.81-119.46z" fill="none"/><path d="m72.89 111.11c-4.63-38.28-4.07-76.2 1.39-111.11h-4.15c-5.6 35.09-6.2 73.28-1.54 111.83 7.19 59.4 26.23 111.14 52.25 141.94.64.76 1.29 1.5 1.93 2.24h4.69c-.71-.79-1.41-1.6-2.11-2.43-26.14-30.94-45.27-82.87-52.48-142.46z" fill="none"/><path d="m0 226.71c4.89 10.77 10.29 20.59 16.14 29.29h4.64c-7.76-11.49-14.73-24.95-20.78-39.94z" fill="none"/><path d="m99.3 106.94c-4.45-36.75-4.12-73.19.76-106.94h-4.15c-5 33.94-5.39 70.63-.91 107.65 7.19 59.4 26.23 111.14 52.25 141.94 1.91 2.26 3.85 4.4 5.82 6.41h4.71c-2.03-2.07-4.04-4.27-6.01-6.6-26.14-30.94-45.27-82.87-52.48-142.46z" fill="none"/><path d="m0 156.53c8.22 39.95 22.01 74.71 39.58 99.47h4.65c-21.32-29.91-37.1-74.42-44.23-125.05z" fill="none"/><path d="m0 197.93c7.48 22.47 16.91 42.22 27.85 58.07h4.65c-13.32-19.2-24.41-44.14-32.5-72.7v14.64z" fill="none"/><path d="m214.12 0h-4.2c-2.75 28.64-2.36 58.85 1.32 89.28 6.48 53.54 22.59 100.84 44.76 132.21v-6.92c-19.95-31.35-34.41-75.97-40.47-126.01-3.65-30.18-4.07-60.13-1.41-88.56z" fill="none"/><path d="m219.33 0h-4.2c-2.66 28.39-2.25 58.3 1.4 88.44 5.95 49.19 20.04 93.1 39.47 124.24v-7.8c-17.22-30.64-29.68-71.65-35.18-117.16-3.62-29.88-4.06-59.54-1.49-87.73z" fill="none"/><path d="m208.92 0h-4.2c-2.84 28.89-2.47 59.39 1.25 90.12 6.98 57.71 25.16 108.17 50.04 139.24v-6.15c-22.68-31.49-39.17-79.46-45.75-133.81-3.69-30.47-4.08-60.72-1.33-89.4z" fill="none"/><path d="m53.69 0h-4.13c-6.11 36.01-6.91 75.39-2.1 115.17 7.1 58.71 25.79 109.91 51.34 140.83h4.68c-25.75-31.05-44.59-82.53-51.73-141.55-4.78-39.5-4.03-78.62 1.94-114.45z" fill="none"/><path d="m94.02 107.77c-4.48-37.06-4.11-73.79.89-107.77h-4.15c-5.12 34.17-5.55 71.16-1.03 108.49 7.19 59.4 26.23 111.14 52.25 141.94 1.65 1.95 3.32 3.8 5.02 5.58h4.69c-1.75-1.83-3.49-3.75-5.19-5.77-26.14-30.95-45.27-82.87-52.48-142.46z" fill="none"/><path d="m88.74 108.61c-4.52-37.36-4.1-74.39 1.01-108.61h-4.15c-5.24 34.4-5.71 71.69-1.16 109.32 7.19 59.4 26.23 111.14 52.25 141.94 1.39 1.65 2.8 3.22 4.22 4.74h4.7c-1.48-1.58-2.95-3.22-4.4-4.93-26.14-30.94-45.27-82.87-52.48-142.46z" fill="none"/><path d="m83.46 109.44c-4.56-37.67-4.09-74.99 1.14-109.44h-4.15c-5.36 34.64-5.88 72.22-1.29 110.16 7.19 59.4 26.23 111.14 52.25 141.94 1.14 1.35 2.29 2.64 3.45 3.91h4.69c-1.22-1.32-2.43-2.68-3.62-4.1-26.14-30.94-45.27-82.87-52.48-142.46z" fill="none"/><path d="m229.74 0h-4.2c-2.49 27.89-2.02 57.23 1.55 86.77 4.81 39.76 14.94 76.07 28.91 104.98v-10c-11.76-27.28-20.31-60.12-24.62-95.7-3.54-29.29-4.05-58.37-1.64-86.06z" fill="none"/><path d="m224.53 0h-4.2c-2.58 28.14-2.13 57.77 1.48 87.61 5.4 44.62 17.49 84.9 34.19 115.24v-8.82c-14.48-29.31-24.97-66.43-29.9-107.14-3.58-29.59-4.06-58.96-1.57-86.89z" fill="none"/><path d="m0 179.54c8.21 30.2 19.74 56.5 33.71 76.46h4.65c-16.78-23.87-30.08-56.81-38.36-94.65z" fill="none"/><path d="m58.84 0h-4.13c-5.98 35.78-6.73 74.86-1.96 114.33 7.17 59.23 26.12 110.84 52.03 141.67h4.68c-26.11-30.95-45.21-82.84-52.41-142.38-4.74-39.2-4.04-78.02 1.8-113.62z" fill="none"/><path d="m0 250.76c1.08 1.79 2.17 3.53 3.28 5.24h1.2c-1.52-2.32-3.01-4.72-4.47-7.2v1.96z" fill="url(#a8)"/><path d="m0 240.57c2.89 5.46 5.94 10.61 9.11 15.43h1.2c-3.61-5.44-7.05-11.31-10.31-17.57v2.14z" fill="url(#a9)"/><path d="m0 229.09c4.57 9.82 9.56 18.84 14.94 26.91h1.2c-5.85-8.7-11.25-18.53-16.14-29.29z" fill="url(#ba)"/><path d="m0 216.06c6.04 14.99 13.02 28.45 20.78 39.94h1.21c-8.27-12.14-15.67-26.53-21.99-42.64v2.7z" fill="url(#bb)"/><path d="m0 201.03c7.26 21.15 16.26 39.81 26.64 54.97h1.22c-10.94-15.84-20.38-35.59-27.85-58.07v3.09z" fill="url(#bc)"/><path d="m0 183.3c8.09 28.57 19.18 53.5 32.5 72.7h1.22c-13.97-19.95-25.51-46.26-33.71-76.46v3.75z" fill="url(#bd)"/><path d="m0 161.35c8.28 37.84 21.58 70.78 38.36 94.65h1.22c-17.57-24.76-31.36-59.52-39.58-99.47z" fill="url(#be)"/><path d="m0 130.95c7.13 50.63 22.91 95.14 44.22 125.05h1.24c-22.48-31.23-38.85-78.76-45.46-132.67z" fill="url(#bf)"/><path d="m2.35 0c-.87 4.54-1.65 9.14-2.35 13.79v7.14c.93-7.09 2.05-14.08 3.37-20.93z" fill="url(#bg)"/><path d="m8.49 0h-1.02c-7.17 37.84-8.38 79.69-3.26 121.97 6.59 54.48 23.15 102.54 45.91 134.03h1.24c-22.89-31.34-39.55-79.49-46.16-134.15-5.11-42.25-3.89-84.06 3.29-121.85z" fill="url(#bh)"/><path d="m13.62 0h-1.02c-7.04 37.62-8.2 79.16-3.12 121.13 6.65 54.96 23.44 103.39 46.52 134.87h1.24c-23.2-31.31-40.1-79.84-46.77-134.99-5.06-41.94-3.89-83.44 3.15-121.01z" fill="url(#bi)"/><path d="m18.75 0h-1.02c-6.9 37.4-8.01 78.64-2.96 120.3 6.71 55.45 23.74 104.25 47.13 135.7h1.24c-23.52-31.28-40.65-80.19-47.38-135.82-5.03-41.63-3.92-82.83 2.99-120.18z" fill="url(#bj)"/><path d="m23.88 0h-1.02c-6.76 37.18-7.81 78.11-2.81 119.46 6.77 55.94 24.04 105.12 47.75 136.54h1.26c-23.85-31.24-41.23-80.52-48.02-136.66-5-41.32-3.94-82.22 2.83-119.34z" fill="url(#bk)"/><path d="m29.01 0h-1.02c-6.62 36.96-7.62 77.59-2.66 118.63 6.83 56.44 24.35 106 48.4 137.37h1.26c-24.18-31.2-41.82-80.85-48.67-137.49-4.96-41.01-3.96-81.61 2.68-118.51z" fill="url(#bl)"/><path d="m34.14 0h-1.02c-6.49 36.73-7.43 77.06-2.5 117.79 6.89 56.95 24.67 106.88 49.04 138.21h1.27c-24.51-31.14-42.4-81.18-49.32-138.33-4.92-40.7-3.97-80.99 2.53-117.67z" fill="url(#bm)"/><path d="m39.28 0h-1.01c-6.36 36.51-7.25 76.54-2.36 116.96 6.95 57.45 24.98 107.77 49.69 139.04h1.27c-24.85-31.08-43-81.51-49.97-139.16-4.89-40.39-3.99-80.38 2.38-116.84z" fill="url(#bn)"/><path d="m44.42 0h-1.01c-6.23 36.28-7.07 76.01-2.22 116.12 7.01 57.97 25.31 108.67 50.36 139.88h1.29c-25.2-31-43.62-81.82-50.66-140-4.85-40.08-4-79.77 2.24-116z" fill="url(#bo)"/><path d="m49.56 0h-1.01c-6.1 36.06-6.9 75.48-2.08 115.29 7.08 58.49 25.64 109.58 51.04 140.71h1.29c-25.55-30.92-44.24-82.12-51.34-140.83-4.81-39.78-4.01-79.16 2.1-115.17z" fill="url(#bp)"/><path d="m54.71 0h-1.01c-5.97 35.83-6.72 74.95-1.94 114.45 7.14 59.02 25.97 110.5 51.73 141.55h1.29c-25.9-30.83-44.86-82.43-52.03-141.67-4.78-39.47-4.02-78.55 1.96-114.33z" fill="url(#bq)"/><path d="m58.03 113.5c-4.74-39.16-4.03-77.95 1.82-113.5h-1.01c-5.84 35.6-6.54 74.42-1.8 113.62 7.2 59.54 26.31 111.43 52.41 142.38h1.32c-.16-.19-.33-.37-.49-.56-26.02-30.8-45.06-82.53-52.25-141.94z" fill="url(#br)"/><path d="m63.31 112.66c-4.7-38.86-4.05-77.34 1.68-112.66h-1.01c-5.72 35.37-6.36 73.9-1.66 112.78 7.21 59.59 26.34 111.52 52.48 142.46.22.26.43.5.65.75h1.33c-.4-.46-.81-.92-1.21-1.4-26.02-30.8-45.06-82.53-52.25-141.94z" fill="url(#bs)"/><path d="m68.6 111.83c-4.66-38.55-4.06-76.73 1.54-111.83h-1.01c-5.59 35.14-6.19 73.37-1.52 111.95 7.21 59.59 26.34 111.52 52.48 142.46.45.54.91 1.07 1.37 1.59h1.33c-.65-.73-1.29-1.48-1.93-2.24-26.02-30.8-45.06-82.53-52.25-141.94z" fill="url(#bt)"/><path d="m73.88 110.99c-4.63-38.24-4.07-76.13 1.41-110.99h-1.01c-5.47 34.91-6.03 72.84-1.39 111.11 7.21 59.59 26.34 111.52 52.48 142.46.7.83 1.4 1.63 2.11 2.43h1.35c-.9-1-1.8-2.02-2.69-3.07-26.02-30.8-45.06-82.53-52.25-141.94z" fill="url(#bu)"/><path d="m79.16 110.16c-4.59-37.94-4.07-75.52 1.29-110.16h-1.01c-5.35 34.68-5.86 72.31-1.27 110.28 7.21 59.59 26.34 111.52 52.48 142.46.94 1.12 1.9 2.2 2.86 3.26h1.36c-1.16-1.26-2.31-2.56-3.45-3.91-26.02-30.8-45.06-82.53-52.25-141.94z" fill="url(#bv)"/><path d="m84.45 109.32c-4.55-37.64-4.08-74.92 1.16-109.32h-1.01c-5.23 34.45-5.7 71.78-1.14 109.44 7.21 59.59 26.34 111.52 52.48 142.46 1.19 1.41 2.4 2.78 3.62 4.1h1.37c-1.42-1.52-2.83-3.09-4.22-4.74-26.02-30.8-45.06-82.53-52.25-141.94z" fill="url(#bw)"/><path d="m89.73 108.49c-4.52-37.33-4.09-74.32 1.03-108.49h-1.01c-5.11 34.22-5.53 71.24-1.01 108.61 7.21 59.59 26.34 111.52 52.48 142.46 1.45 1.71 2.92 3.35 4.4 4.93h1.38c-1.7-1.77-3.37-3.62-5.02-5.58-26.02-30.8-45.06-82.53-52.25-141.94z" fill="url(#bx)"/><path d="m95.01 107.65c-4.48-37.03-4.09-73.71.91-107.65h-1.01c-4.99 33.99-5.37 70.71-.89 107.77 7.21 59.59 26.34 111.52 52.48 142.46 1.71 2.02 3.44 3.94 5.19 5.77h1.39c-1.97-2.02-3.91-4.15-5.82-6.41-26.02-30.8-45.06-82.53-52.25-141.94z" fill="url(#by)"/><path d="m152.55 248.75c-26.02-30.8-45.06-82.53-52.25-141.94-4.44-36.72-4.1-73.11.78-106.82h-1.01c-4.88 33.75-5.21 70.18-.76 106.94 7.21 59.59 26.34 111.52 52.48 142.46 1.97 2.33 3.97 4.53 6.01 6.6h1.41c-2.26-2.26-4.48-4.67-6.65-7.25z" fill="url(#bz)"/><path d="m157.83 247.92c-26.02-30.8-45.06-82.53-52.25-141.94-4.41-36.42-4.11-72.51.66-105.98h-1.01c-4.76 33.52-5.06 69.65-.64 106.1 7.21 59.59 26.34 111.52 52.48 142.46 2.23 2.64 4.51 5.12 6.83 7.44h1.43c-2.55-2.5-5.04-5.19-7.49-8.08z" fill="url(#bA)"/><path d="m163.11 247.08c-26.02-30.8-45.06-82.53-52.25-141.94-4.37-36.12-4.11-71.91.55-105.15h-1.01c-4.65 33.28-4.91 69.12-.53 105.27 7.21 59.59 26.34 111.52 52.48 142.46 2.51 2.97 5.07 5.72 7.68 8.27h1.44c-2.84-2.73-5.63-5.69-8.35-8.92z" fill="url(#bB)"/><path d="m168.39 246.25c-26.02-30.8-45.06-82.53-52.25-141.94-4.33-35.82-4.11-71.31.43-104.31h-1.01c-4.54 33.05-4.75 68.58-.42 104.43 7.21 59.59 26.34 111.52 52.48 142.46 2.78 3.29 5.63 6.33 8.54 9.11h1.46c-3.15-2.95-6.23-6.2-9.24-9.75z" fill="url(#bC)"/><path d="m173.68 245.41c-26.02-30.8-45.06-82.53-52.25-141.94-4.3-35.51-4.11-70.71.32-103.48h-1.01c-4.43 32.81-4.6 68.05-.3 103.6 7.21 59.59 26.34 111.52 52.48 142.46 3.06 3.63 6.21 6.94 9.42 9.94h1.47c-3.46-3.17-6.84-6.7-10.13-10.59z" fill="url(#bD)"/><path d="m178.96 244.58c-26.02-30.8-45.06-82.53-52.25-141.94-4.26-35.21-4.12-70.12.2-102.64h-1.01c-4.32 32.57-4.45 67.52-.19 102.76 7.21 59.59 26.34 111.52 52.48 142.46 3.35 3.96 6.79 7.56 10.32 10.78h1.5c-3.79-3.38-7.48-7.18-11.07-11.42z" fill="url(#bE)"/><path d="m184.24 243.74c-26.02-30.8-45.06-82.53-52.25-141.94-4.22-34.91-4.12-69.52.09-101.81h-1.01c-4.21 32.33-4.3 66.98-.07 101.93 7.21 59.59 26.34 111.52 52.48 142.46 3.64 4.31 7.4 8.18 11.26 11.61h1.51c-4.12-3.58-8.12-7.67-12-12.26z" fill="url(#bF)"/><path d="m189.53 242.91c-26.02-30.8-45.06-82.53-52.25-141.94-4.19-34.61-4.13-68.92-.02-100.97h-1.01c-4.1 32.1-4.16 66.45.03 101.09 7.21 59.59 26.34 111.52 52.48 142.46 3.94 4.66 8.01 8.81 12.2 12.45h1.55c-4.46-3.78-8.8-8.14-12.99-13.09z" fill="url(#bG)"/><path d="m194.81 242.07c-26.02-30.8-45.06-82.53-52.25-141.94-4.15-34.31-4.12-68.33-.12-100.14h-1.01c-4 31.86-4.02 65.91.13 100.26 7.21 59.59 26.34 111.52 52.48 142.46 4.24 5.03 8.65 9.45 13.18 13.28h1.56c-4.81-3.96-9.48-8.61-13.97-13.93z" fill="url(#bH)"/><path d="m200.09 241.24c-26.02-30.8-45.06-82.53-52.25-141.94-4.12-34.01-4.12-67.73-.22-99.3h-1.01c-3.89 31.62-3.88 65.38.24 99.42 7.21 59.59 26.34 111.52 52.48 142.46 4.56 5.4 9.3 10.1 14.18 14.12h1.6c-5.18-4.14-10.2-9.06-15.02-14.76z" fill="url(#bI)"/><path d="m205.38 240.4c-26.02-30.8-45.06-82.53-52.25-141.94-4.08-33.71-4.12-67.14-.32-98.47h-1.01c-3.79 31.38-3.75 64.84.34 98.59 7.21 59.59 26.34 111.52 52.48 142.46 4.88 5.77 9.96 10.76 15.21 14.95h1.62c-5.56-4.31-10.92-9.51-16.06-15.6z" fill="url(#bJ)"/><path d="m210.66 239.57c-26.02-30.8-45.06-82.53-52.25-141.94-4.04-33.41-4.12-66.54-.43-97.63h-1.01c-3.69 31.13-3.61 64.31.44 97.75 7.21 59.59 26.34 111.52 52.48 142.46 5.21 6.16 10.65 11.43 16.28 15.79h1.66c-5.95-4.47-11.69-9.94-17.17-16.43z" fill="url(#bK)"/><path d="m215.94 238.73c-26.02-30.8-45.06-82.53-52.25-141.94-4.01-33.11-4.12-65.95-.53-96.8h-1.01c-3.59 30.89-3.47 63.77.54 96.92 7.21 59.59 26.34 111.52 52.48 142.46 5.54 6.56 11.35 12.11 17.37 16.62h1.69c-6.35-4.61-12.47-10.37-18.29-17.27z" fill="url(#bL)"/><path d="m221.23 237.9c-26.02-30.8-45.06-82.53-52.25-141.94-3.97-32.81-4.12-65.36-.63-95.96h-1.01c-3.49 30.65-3.33 63.24.64 96.08 7.21 59.59 26.34 111.52 52.48 142.46 5.89 6.97 12.08 12.8 18.5 17.46h1.74c-6.77-4.74-13.29-10.78-19.48-18.1z" fill="url(#bM)"/><path d="m226.51 237.06c-26.02-30.8-45.06-82.53-52.25-141.94-3.93-32.51-4.12-64.77-.72-95.13h-1c-3.39 30.41-3.21 62.7.73 95.25 7.21 59.59 26.34 111.52 52.48 142.46 6.25 7.39 12.83 13.5 19.68 18.29h1.77c-7.21-4.86-14.13-11.18-20.68-18.94z" fill="url(#bN)"/><path d="m231.79 236.23c-26.02-30.8-45.06-82.53-52.25-141.94-3.9-32.22-4.11-64.17-.81-94.29h-1c-3.3 30.16-3.08 62.16.82 94.41 7.21 59.59 26.34 111.52 52.48 142.46 6.61 7.83 13.6 14.21 20.88 19.13h1.83c-7.66-4.96-15.01-11.56-21.95-19.77z" fill="url(#bO)"/><path d="m237.08 235.39c-26.02-30.8-45.06-82.53-52.25-141.94-3.86-31.92-4.1-63.58-.9-93.46h-1c-3.2 29.92-2.96 61.62.91 93.58 7.21 59.59 26.34 111.52 52.48 142.46 6.25 7.4 12.84 13.5 19.69 18.3v-1.23c-6.58-4.68-12.91-10.59-18.92-17.71z" fill="url(#bP)"/><path d="m242.36 234.56c-26.02-30.8-45.06-82.53-52.25-141.94-3.83-31.62-4.1-62.99-.99-92.62h-1c-3.11 29.67-2.83 61.08 1 92.74 7.21 59.59 26.34 111.52 52.48 142.46 4.63 5.48 9.44 10.24 14.41 14.3v-1.3c-4.7-3.9-9.25-8.45-13.64-13.65z" fill="url(#bQ)"/><path d="m247.64 233.72c-26.02-30.8-45.06-82.53-52.25-141.94-3.79-31.32-4.1-62.4-1.07-91.79h-1c-3.02 29.43-2.71 60.55 1.09 91.91 7.21 59.59 26.34 111.52 52.48 142.46 2.97 3.51 6.01 6.73 9.12 9.66v-1.38c-2.85-2.73-5.63-5.7-8.36-8.92z" fill="url(#bR)"/><path d="m200.68 90.95c-3.75-31.03-4.09-61.82-1.16-90.95h-1c-2.93 29.18-2.58 60.01 1.18 91.07 7.21 59.59 26.34 111.52 52.48 142.46 1.27 1.5 2.55 2.94 3.84 4.33v-1.48c-1.03-1.13-2.06-2.29-3.07-3.49-26.02-30.8-45.06-82.53-52.25-141.94z" fill="url(#bS)"/><path d="m204.71 0h-1c-2.84 28.93-2.46 59.47 1.26 90.24 7.08 58.48 25.64 109.57 51.03 140.7v-1.58c-24.88-31.07-43.06-81.54-50.04-139.24-3.72-30.73-4.09-61.23-1.25-90.12z" fill="url(#bT)"/><path d="m209.92 0h-1c-2.75 28.68-2.35 58.93 1.33 89.4 6.58 54.35 23.07 102.31 45.75 133.81v-1.72c-22.17-31.37-38.28-78.67-44.76-132.21-3.68-30.43-4.08-60.64-1.32-89.28z" fill="url(#bU)"/><path d="m215.13 0h-1c-2.66 28.44-2.24 58.39 1.41 88.56 6.05 50.04 20.51 94.66 40.47 126.01v-1.89c-19.44-31.14-33.52-75.06-39.47-124.24-3.65-30.14-4.06-60.05-1.4-88.44z" fill="url(#bV)"/><path d="m220.33 0h-1c-2.58 28.19-2.13 57.85 1.49 87.73 5.51 45.5 17.97 86.52 35.18 117.16v-2.03c-16.71-30.34-28.79-70.63-34.19-115.24-3.61-29.84-4.06-59.47-1.48-87.61z" fill="url(#bW)"/><path d="m225.54 0h-1c-2.49 27.94-2.01 57.31 1.57 86.89 4.93 40.71 15.42 77.83 29.9 107.14v-2.28c-13.97-28.91-24.1-65.22-28.91-104.98-3.58-29.55-4.05-58.88-1.55-86.77z" fill="url(#bX)"/><path d="m230.74 0h-1c-2.41 27.69-1.9 56.77 1.64 86.06 4.3 35.58 12.86 68.42 24.62 95.7v-2.56c-11.24-26.75-19.44-58.7-23.62-93.26-3.54-29.25-4.04-58.3-1.63-85.94z" fill="url(#bY)"/><path d="m235.95 0h-1c-2.32 27.44-1.79 56.23 1.72 85.22 3.63 30.01 10.29 58.07 19.33 82.48v-2.92c-8.54-23.73-14.85-50.8-18.34-79.68-3.5-28.96-4.03-57.71-1.71-85.1z" fill="url(#bZ)"/><path d="m241.17 0h-1c-2.24 27.19-1.69 55.69 1.78 84.39 2.88 23.82 7.67 46.41 14.05 66.93v-3.41c-5.88-19.62-10.33-41.07-13.06-63.64-3.47-28.67-4.02-57.13-1.77-84.27z" fill="url(#b0)"/><path d="m246.39 0h-1c-2.16 26.93-1.59 55.15 1.85 83.55 2.02 16.71 4.98 32.81 8.77 48.02v-4.25c-3.31-13.98-5.93-28.68-7.77-43.89-3.43-28.37-4-56.54-1.84-83.43z" fill="url(#b1)"/><path d="m251.6 0h-1c-2.09 26.68-1.49 54.6 1.91 82.72.95 7.89 2.12 15.64 3.48 23.22v-5.89c-.94-5.73-1.78-11.55-2.49-17.45-3.4-28.08-3.99-55.96-1.9-82.6z" fill="url(#b2)"/><path d="m256 63.85v-16.85c-.44-11.09-.43-22.07 0-32.89v-14.11h-.18c-1.57 20.71-1.53 42.15.18 63.85z" fill="url(#b3)"/><path d="m21.26 200.86v-145.72c0-8.1 4.16-14.67 9.29-14.67h194.88c5.13 0 9.29 6.57 9.29 14.67v145.73c0 8.1-4.16 14.67-9.29 14.67h-194.87c-5.13 0-9.29-6.57-9.29-14.67z" fill="none" stroke="#fff" stroke-miterlimit="10" stroke-width="16"/><path d="m127 40.47v48.57h107.74" fill="none" stroke="#fff" stroke-miterlimit="10" stroke-width="16"/><path d="m155.22 168.02c.4 3.23-.54 6.57-2.35 9.06-.13 7.56-4.85 12.89-15.28 12.89-.95 0-2.03 0-3.01 0-13.9 0-18.03-5.27-24.05-5.4-.48 1.86-2.18 3.24-4.19 3.24h-8.66c-2.39 0-4.33-1.94-4.33-4.33v-32.46c0-2.39 1.94-4.33 4.33-4.33h13.36c2.59-2.29 6.22-8.2 9.3-11.28 1.85-1.85 1.37-14.69 9.71-14.69 7.79 0 12.89 4.32 12.89 14.17 0 2.49-.53 4.56-1.2 6.29h4.93c6.57 0 11.61 5.62 11.61 11.58 0 2.59-.67 4.73-1.86 6.74.63 3.06.12 6.02-1.22 8.52zm-53.19 7.89c-1.79 0-3.25 1.45-3.25 3.25s1.45 3.25 3.25 3.25 3.25-1.45 3.25-3.25-1.45-3.25-3.25-3.25zm46.76-18c1.28 0 3.02-2.56 3.01-5.11-.01-2.56-2.26-5.12-5.12-5.12h-14.06c0-5.12 3.84-7.49 3.84-12.79 0-3.21 0-7.67-6.39-7.67-2.56 2.56-1.28 8.95-5.12 12.79-3.59 3.59-8.95 13.18-12.79 13.18h-1.48v25.18c7.25 0 13.53 5.12 23.21 5.12h5.12c4.8 0 8.23-2.32 7.19-8.91 2.06-1.1 3.58-4.93 1.89-7.79 2.92-2.76 2.53-6.91.7-8.88z" fill="#fff"/></svg>